<?xml version="1.0" encoding="utf-8"?>
<!-- Generator: Adobe Illustrator 24.2.0, SVG Export Plug-In . SVG Version: 6.00 Build 0)  -->
<svg version="1.1" id="Capa_1" xmlns="http://www.w3.org/2000/svg" xmlns:xlink="http://www.w3.org/1999/xlink" x="0px" y="0px"
	 viewBox="0 0 78.75 78.75" style="enable-background:new 0 0 78.75 78.75;" xml:space="preserve">
<style type="text/css">
	.st0{fill:#F0ECEC;stroke:#052333;stroke-miterlimit:10;}
	.st1{fill:#FCFBFB;}
	.st2{fill:#FFFFFF;}
	.st3{fill:#F0ECEC;}
	.st4{fill:none;stroke:#052333;stroke-miterlimit:10;}
	.st5{fill:#FFC69B;}
	.st6{fill:#FFF4EB;}
	.st7{fill:#5B5B5B;}
	.st8{fill:#8F98B2;}
	.st9{opacity:0.41;}
	.st10{opacity:0.23;}
	.st11{fill:#052333;}
	.st12{opacity:0.45;}
	.st13{fill:#F5C5CE;}
	.st14{fill:#E2AAB7;}
	.st15{opacity:0.31;}
	.st16{fill:#111844;}
	.st17{fill:#F27131;}
	.st18{fill:none;stroke:#052333;stroke-width:1.0576;stroke-miterlimit:10;}
	.st19{fill:#F5F5F5;}
	.st20{opacity:0.95;fill:#FFFFFF;enable-background:new    ;}
	.st21{fill:#BCC1D1;}
	.st22{opacity:0.5;fill:#FFFFFF;enable-background:new    ;}
	.st23{fill:#FFC3BD;}
	.st24{fill:#263238;}
	.st25{opacity:0.2;enable-background:new    ;}
	.st26{opacity:0.6;enable-background:new    ;}
	.st27{fill:none;stroke:#8F98B2;stroke-width:1.26;stroke-miterlimit:10;}
</style>
<g>
	<g>
		<path class="st17" d="M68.25,27.56h-2.62v-3.94h2.62V27.56L68.25,27.56z M76.12,31.5v15.75c0,0.72-0.59,1.31-1.31,1.31H3.94
			c-0.72,0-1.31-0.59-1.31-1.31V31.5c0-0.72,0.59-1.31,1.31-1.31h70.87C75.53,30.19,76.12,30.77,76.12,31.5L76.12,31.5z
			 M68.25,55.12h-2.62v-3.94h2.62V55.12L68.25,55.12z M76.12,59.06v15.75c0,0.72-0.59,1.31-1.31,1.31H3.94
			c-0.72,0-1.31-0.59-1.31-1.31V59.06c0-0.72,0.59-1.31,1.31-1.31h70.87C75.53,57.75,76.12,58.33,76.12,59.06L76.12,59.06z
			 M63,51.18v3.94H15.75v-3.94H63L63,51.18z M10.5,51.18h2.62v3.94H10.5V51.18L10.5,51.18z M10.5,23.62h2.62v3.94H10.5V23.62
			L10.5,23.62z M15.75,27.56v-3.94H63v3.94H15.75L15.75,27.56z M2.62,19.69V3.94c0-0.72,0.59-1.31,1.31-1.31h70.87
			c0.72,0,1.31,0.59,1.31,1.31v15.75c0,0.72-0.59,1.31-1.31,1.31H3.94C3.21,21,2.62,20.41,2.62,19.69L2.62,19.69z M74.81,23.62
			c2.17,0,3.94-1.76,3.94-3.94V3.94c0-2.17-1.76-3.94-3.94-3.94H3.94C1.76,0,0,1.76,0,3.94v15.75c0,2.17,1.76,3.94,3.94,3.94h3.94
			v3.94H3.94C1.76,27.56,0,29.32,0,31.5v15.75c0,2.17,1.76,3.94,3.94,3.94h3.94v3.94H3.94C1.76,55.12,0,56.88,0,59.06v15.75
			c0,2.17,1.76,3.94,3.94,3.94h70.87c2.17,0,3.94-1.76,3.94-3.94V59.06c0-2.17-1.76-3.94-3.94-3.94h-3.94v-3.94h3.94
			c2.17,0,3.94-1.76,3.94-3.94V31.5c0-2.17-1.76-3.94-3.94-3.94h-3.94v-3.94H74.81L74.81,23.62z"/>
		<path class="st17" d="M10.5,11.81c0-0.72,0.59-1.31,1.31-1.31c0.72,0,1.31,0.59,1.31,1.31c0,0.72-0.59,1.31-1.31,1.31
			C11.09,13.12,10.5,12.54,10.5,11.81L10.5,11.81z M15.51,13.12H42c0.72,0,1.31-0.59,1.31-1.31c0-0.72-0.59-1.31-1.31-1.31H15.51
			c-0.72-2.05-2.97-3.12-5.02-2.4c-2.05,0.72-3.12,2.97-2.4,5.02c0.72,2.05,2.97,3.12,5.02,2.4C14.23,15.13,15.11,14.25,15.51,13.12
			L15.51,13.12z"/>
		<polygon class="st17" points="57.75,5.25 60.37,5.25 60.37,7.87 57.75,7.87 57.75,5.25 		"/>
		<polygon class="st17" points="63,5.25 65.62,5.25 65.62,7.87 63,7.87 63,5.25 		"/>
		<polygon class="st17" points="68.25,5.25 70.87,5.25 70.87,7.87 68.25,7.87 68.25,5.25 		"/>
		<polygon class="st17" points="52.5,5.25 55.12,5.25 55.12,7.87 52.5,7.87 52.5,5.25 		"/>
		<polygon class="st17" points="47.25,5.25 49.87,5.25 49.87,7.87 47.25,7.87 47.25,5.25 		"/>
		<polygon class="st17" points="57.75,10.5 60.37,10.5 60.37,13.12 57.75,13.12 57.75,10.5 		"/>
		<polygon class="st17" points="63,10.5 65.62,10.5 65.62,13.12 63,13.12 63,10.5 		"/>
		<polygon class="st17" points="68.25,10.5 70.87,10.5 70.87,13.12 68.25,13.12 68.25,10.5 		"/>
		<polygon class="st17" points="52.5,10.5 55.12,10.5 55.12,13.12 52.5,13.12 52.5,10.5 		"/>
		<polygon class="st17" points="47.25,10.5 49.87,10.5 49.87,13.12 47.25,13.12 47.25,10.5 		"/>
		<polygon class="st17" points="57.75,15.75 60.37,15.75 60.37,18.37 57.75,18.37 57.75,15.75 		"/>
		<polygon class="st17" points="63,15.75 65.62,15.75 65.62,18.37 63,18.37 63,15.75 		"/>
		<polygon class="st17" points="68.25,15.75 70.87,15.75 70.87,18.37 68.25,18.37 68.25,15.75 		"/>
		<polygon class="st17" points="52.5,15.75 55.12,15.75 55.12,18.37 52.5,18.37 52.5,15.75 		"/>
		<polygon class="st17" points="47.25,15.75 49.87,15.75 49.87,18.37 47.25,18.37 47.25,15.75 		"/>
		<path class="st17" d="M11.81,40.69c-0.72,0-1.31-0.59-1.31-1.31c0-0.72,0.59-1.31,1.31-1.31c0.72,0,1.31,0.59,1.31,1.31
			C13.12,40.1,12.54,40.69,11.81,40.69L11.81,40.69z M42,38.06H15.51c-0.72-2.05-2.97-3.12-5.02-2.4c-2.05,0.72-3.12,2.97-2.4,5.02
			c0.72,2.05,2.97,3.12,5.02,2.4c1.12-0.4,2-1.28,2.4-2.4H42c0.72,0,1.31-0.59,1.31-1.31C43.31,38.65,42.72,38.06,42,38.06L42,38.06
			z"/>
		<polygon class="st17" points="57.75,32.81 60.37,32.81 60.37,35.44 57.75,35.44 57.75,32.81 		"/>
		<polygon class="st17" points="63,32.81 65.62,32.81 65.62,35.44 63,35.44 63,32.81 		"/>
		<polygon class="st17" points="68.25,32.81 70.87,32.81 70.87,35.44 68.25,35.44 68.25,32.81 		"/>
		<polygon class="st17" points="52.5,32.81 55.12,32.81 55.12,35.44 52.5,35.44 52.5,32.81 		"/>
		<polygon class="st17" points="47.25,32.81 49.87,32.81 49.87,35.44 47.25,35.44 47.25,32.81 		"/>
		<polygon class="st17" points="57.75,38.06 60.37,38.06 60.37,40.69 57.75,40.69 57.75,38.06 		"/>
		<polygon class="st17" points="63,38.06 65.62,38.06 65.62,40.69 63,40.69 63,38.06 		"/>
		<polygon class="st17" points="68.25,38.06 70.87,38.06 70.87,40.69 68.25,40.69 68.25,38.06 		"/>
		<polygon class="st17" points="52.5,38.06 55.12,38.06 55.12,40.69 52.5,40.69 52.5,38.06 		"/>
		<polygon class="st17" points="47.25,38.06 49.87,38.06 49.87,40.69 47.25,40.69 47.25,38.06 		"/>
		<polygon class="st17" points="57.75,43.31 60.37,43.31 60.37,45.94 57.75,45.94 57.75,43.31 		"/>
		<polygon class="st17" points="63,43.31 65.62,43.31 65.62,45.94 63,45.94 63,43.31 		"/>
		<polygon class="st17" points="68.25,43.31 70.87,43.31 70.87,45.94 68.25,45.94 68.25,43.31 		"/>
		<polygon class="st17" points="52.5,43.31 55.12,43.31 55.12,45.94 52.5,45.94 52.5,43.31 		"/>
		<polygon class="st17" points="47.25,43.31 49.87,43.31 49.87,45.94 47.25,45.94 47.25,43.31 		"/>
		<path class="st17" d="M11.81,68.25c-0.72,0-1.31-0.59-1.31-1.31c0-0.72,0.59-1.31,1.31-1.31c0.72,0,1.31,0.59,1.31,1.31
			C13.12,67.66,12.54,68.25,11.81,68.25L11.81,68.25z M42,65.62H15.51c-0.72-2.05-2.97-3.12-5.02-2.4c-2.05,0.72-3.12,2.97-2.4,5.02
			c0.72,2.05,2.97,3.12,5.02,2.4c1.12-0.4,2-1.28,2.4-2.4H42c0.72,0,1.31-0.59,1.31-1.31C43.31,66.21,42.72,65.62,42,65.62L42,65.62
			z"/>
		<polygon class="st17" points="57.75,60.37 60.37,60.37 60.37,63 57.75,63 57.75,60.37 		"/>
		<polygon class="st17" points="63,60.37 65.62,60.37 65.62,63 63,63 63,60.37 		"/>
		<polygon class="st17" points="68.25,60.37 70.87,60.37 70.87,63 68.25,63 68.25,60.37 		"/>
		<polygon class="st17" points="52.5,60.37 55.12,60.37 55.12,63 52.5,63 52.5,60.37 		"/>
		<polygon class="st17" points="47.25,60.37 49.87,60.37 49.87,63 47.25,63 47.25,60.37 		"/>
		<polygon class="st17" points="57.75,65.62 60.37,65.62 60.37,68.25 57.75,68.25 57.75,65.62 		"/>
		<polygon class="st17" points="63,65.62 65.62,65.62 65.62,68.25 63,68.25 63,65.62 		"/>
		<polygon class="st17" points="68.25,65.62 70.87,65.62 70.87,68.25 68.25,68.25 68.25,65.62 		"/>
		<polygon class="st17" points="52.5,65.62 55.12,65.62 55.12,68.25 52.5,68.25 52.5,65.62 		"/>
		<polygon class="st17" points="47.25,65.62 49.87,65.62 49.87,68.25 47.25,68.25 47.25,65.62 		"/>
		<polygon class="st17" points="57.75,70.87 60.37,70.87 60.37,73.5 57.75,73.5 57.75,70.87 		"/>
		<polygon class="st17" points="63,70.87 65.62,70.87 65.62,73.5 63,73.5 63,70.87 		"/>
		<polygon class="st17" points="68.25,70.87 70.87,70.87 70.87,73.5 68.25,73.5 68.25,70.87 		"/>
		<polygon class="st17" points="52.5,70.87 55.12,70.87 55.12,73.5 52.5,73.5 52.5,70.87 		"/>
		<polygon class="st17" points="47.25,70.87 49.87,70.87 49.87,73.5 47.25,73.5 47.25,70.87 		"/>
	</g>
</g>
</svg>
