<?xml version="1.0" encoding="utf-8"?>
<!-- Generator: Adobe Illustrator 24.2.0, SVG Export Plug-In . SVG Version: 6.00 Build 0)  -->
<svg version="1.1" id="Capa_1" xmlns="http://www.w3.org/2000/svg" xmlns:xlink="http://www.w3.org/1999/xlink" x="0px" y="0px"
	 viewBox="0 0 58.86 60.89" style="enable-background:new 0 0 58.86 60.89;" xml:space="preserve">
<style type="text/css">
	.st0{fill:#F0ECEC;stroke:#052333;stroke-miterlimit:10;}
	.st1{fill:#FCFBFB;}
	.st2{fill:#FFFFFF;}
	.st3{fill:#F0ECEC;}
	.st4{fill:none;stroke:#052333;stroke-miterlimit:10;}
	.st5{fill:#FFC69B;}
	.st6{fill:#FFF4EB;}
	.st7{fill:#5B5B5B;}
	.st8{fill:#8F98B2;}
	.st9{opacity:0.41;}
	.st10{opacity:0.23;}
	.st11{fill:#052333;}
	.st12{opacity:0.45;}
	.st13{fill:#F5C5CE;}
	.st14{fill:#E2AAB7;}
	.st15{opacity:0.31;}
	.st16{fill:#111844;}
	.st17{fill:#F27131;}
	.st18{fill:none;stroke:#052333;stroke-width:1.0576;stroke-miterlimit:10;}
	.st19{fill:#F5F5F5;}
	.st20{opacity:0.95;fill:#FFFFFF;enable-background:new    ;}
	.st21{fill:#BCC1D1;}
	.st22{opacity:0.5;fill:#FFFFFF;enable-background:new    ;}
	.st23{fill:#FFC3BD;}
	.st24{fill:#263238;}
	.st25{opacity:0.2;enable-background:new    ;}
	.st26{opacity:0.6;enable-background:new    ;}
	.st27{fill:none;stroke:#8F98B2;stroke-width:1.26;stroke-miterlimit:10;}
</style>
<g>
	<path class="st8" d="M29.77,16.91c1.49,0,2.71-1.21,2.71-2.71c0-1.49-1.21-2.71-2.71-2.71c-1.49,0-2.71,1.21-2.71,2.71
		C27.06,15.7,28.28,16.91,29.77,16.91L29.77,16.91z M29.77,12.86c0.75,0,1.35,0.61,1.35,1.35c0,0.75-0.61,1.35-1.35,1.35
		c-0.75,0-1.35-0.61-1.35-1.35C28.42,13.46,29.02,12.86,29.77,12.86L29.77,12.86z M29.77,12.86"/>
	<path class="st8" d="M29.77,43.98c-1.49,0-2.71,1.21-2.71,2.71c0,1.49,1.21,2.71,2.71,2.71c1.49,0,2.71-1.21,2.71-2.71
		C32.48,45.19,31.26,43.98,29.77,43.98L29.77,43.98z M29.77,48.04c-0.75,0-1.35-0.61-1.35-1.35c0-0.75,0.61-1.35,1.35-1.35
		c0.75,0,1.35,0.61,1.35,1.35C31.12,47.43,30.52,48.04,29.77,48.04L29.77,48.04z M29.77,48.04"/>
	<path class="st8" d="M13.53,27.74c-1.49,0-2.71,1.21-2.71,2.71c0,1.49,1.21,2.71,2.71,2.71c1.49,0,2.71-1.21,2.71-2.71
		C16.24,28.95,15.02,27.74,13.53,27.74L13.53,27.74z M13.53,31.8c-0.75,0-1.35-0.61-1.35-1.35c0-0.75,0.61-1.35,1.35-1.35
		c0.75,0,1.35,0.61,1.35,1.35C14.88,31.19,14.28,31.8,13.53,31.8L13.53,31.8z M13.53,31.8"/>
	<path class="st8" d="M46.01,27.74c-1.49,0-2.71,1.21-2.71,2.71c0,1.49,1.21,2.71,2.71,2.71c1.49,0,2.71-1.21,2.71-2.71
		C48.71,28.95,47.5,27.74,46.01,27.74L46.01,27.74z M46.01,31.8c-0.75,0-1.35-0.61-1.35-1.35c0-0.75,0.61-1.35,1.35-1.35
		c0.75,0,1.35,0.61,1.35,1.35C47.36,31.19,46.75,31.8,46.01,31.8L46.01,31.8z M46.01,31.8"/>
	<path class="st8" d="M29.77,8.12c-12.31,0-22.33,10.02-22.33,22.33c0,12.31,10.02,22.33,22.33,22.33
		c12.31,0,22.33-10.02,22.33-22.33C52.1,18.13,42.08,8.12,29.77,8.12L29.77,8.12z M29.77,51.42C18.2,51.42,8.8,42.01,8.8,30.45
		c0-11.57,9.41-20.97,20.97-20.97c11.56,0,20.97,9.41,20.97,20.97C50.74,42.01,41.33,51.42,29.77,51.42L29.77,51.42z M29.77,51.42"
		/>
	<path class="st8" d="M57.51,30.45c0-15.3-12.44-27.74-27.74-27.74c-15.3,0-27.74,12.44-27.74,27.74
		c0,15.29,12.44,27.74,27.74,27.74C45.06,58.18,57.51,45.74,57.51,30.45L57.51,30.45z M29.77,56.83
		c-14.55,0-26.39-11.84-26.39-26.39c0-14.55,11.84-26.39,26.39-26.39c14.55,0,26.39,11.84,26.39,26.39
		C56.16,44.99,44.32,56.83,29.77,56.83L29.77,56.83z M29.77,56.83"/>
	<path class="st8" d="M55.48,8.8c1.87,0,3.38-1.52,3.38-3.38c0-1.87-1.52-3.38-3.38-3.38c-1.87,0-3.38,1.52-3.38,3.38
		C52.1,7.28,53.61,8.8,55.48,8.8L55.48,8.8z M55.48,3.38c1.12,0,2.03,0.91,2.03,2.03c0,1.12-0.91,2.03-2.03,2.03
		c-1.12,0-2.03-0.91-2.03-2.03C53.45,4.29,54.36,3.38,55.48,3.38L55.48,3.38z M55.48,3.38"/>
	<path class="st8" d="M4.74,51.42C2.12,51.42,0,53.54,0,56.15c0,2.61,2.12,4.74,4.74,4.74c2.61,0,4.74-2.12,4.74-4.74
		C9.47,53.54,7.35,51.42,4.74,51.42L4.74,51.42z M4.74,59.54c-1.87,0-3.38-1.52-3.38-3.38c0-1.87,1.52-3.38,3.38-3.38
		c1.87,0,3.38,1.52,3.38,3.38C8.12,58.02,6.6,59.54,4.74,59.54L4.74,59.54z M4.74,59.54"/>
	<path class="st8" d="M44.65,3.04c0,0.56-0.45,1.01-1.01,1.01c-0.56,0-1.01-0.45-1.01-1.01c0-0.56,0.45-1.01,1.01-1.01
		C44.2,2.03,44.65,2.48,44.65,3.04L44.65,3.04z M44.65,3.04"/>
	<path class="st8" d="M12.86,1.01c0,0.56-0.45,1.02-1.01,1.02c-0.56,0-1.01-0.45-1.01-1.02c0-0.56,0.45-1.01,1.01-1.01
		C12.4,0,12.86,0.45,12.86,1.01L12.86,1.01z M12.86,1.01"/>
	<path class="st8" d="M58.86,47.02c0,0.56-0.45,1.01-1.01,1.01c-0.56,0-1.01-0.45-1.01-1.01c0-0.56,0.45-1.01,1.01-1.01
		C58.41,46.01,58.86,46.46,58.86,47.02L58.86,47.02z M58.86,47.02"/>
	<path class="st8" d="M50.74,57.85c0,0.56-0.45,1.01-1.01,1.01c-0.56,0-1.02-0.45-1.02-1.01c0-0.56,0.45-1.01,1.02-1.01
		C50.29,56.83,50.74,57.29,50.74,57.85L50.74,57.85z M50.74,57.85"/>
	<path class="st8" d="M19.62,59.2c0,0.56-0.45,1.01-1.01,1.01c-0.56,0-1.01-0.45-1.01-1.01c0-0.56,0.45-1.02,1.01-1.02
		C19.17,58.18,19.62,58.64,19.62,59.2L19.62,59.2z M19.62,59.2"/>
	<path class="st8" d="M2.03,44.99c0,0.56-0.45,1.02-1.01,1.02C0.45,46.01,0,45.55,0,44.99c0-0.56,0.45-1.01,1.01-1.01
		C1.58,43.98,2.03,44.43,2.03,44.99L2.03,44.99z M2.03,44.99"/>
	<path class="st8" d="M2.71,13.87c0,0.56-0.45,1.01-1.01,1.01c-0.56,0-1.01-0.45-1.01-1.01c0-0.56,0.45-1.01,1.01-1.01
		C2.25,12.86,2.71,13.31,2.71,13.87L2.71,13.87z M2.71,13.87"/>
	<path class="st8" d="M37.52,21.85c-0.26-0.26-0.69-0.26-0.96,0l-9.09,9.09l-3.35-3.35c-0.26-0.26-0.69-0.26-0.96,0l-3.35,3.35
		c-0.26,0.26-0.26,0.69,0,0.96l7.18,7.18c0.26,0.26,0.69,0.26,0.96,0l12.92-12.92c0.26-0.26,0.26-0.69,0-0.96L37.52,21.85z
		 M27.47,37.64l-6.22-6.22l2.39-2.39l3.35,3.35c0.26,0.26,0.69,0.26,0.96,0l9.09-9.09l2.39,2.39L27.47,37.64z M27.47,37.64"/>
</g>
</svg>
