<?xml version="1.0" encoding="utf-8"?>
<!-- Generator: Adobe Illustrator 24.2.0, SVG Export Plug-In . SVG Version: 6.00 Build 0)  -->
<svg version="1.1" id="Capa_1" xmlns="http://www.w3.org/2000/svg" xmlns:xlink="http://www.w3.org/1999/xlink" x="0px" y="0px"
	 viewBox="0 0 114.82 89.32" style="enable-background:new 0 0 114.82 89.32;" xml:space="preserve">
<style type="text/css">
	.st0{fill:#F0ECEC;stroke:#052333;stroke-miterlimit:10;}
	.st1{fill:#FCFBFB;}
	.st2{fill:#FFFFFF;}
	.st3{fill:#F0ECEC;}
	.st4{fill:none;stroke:#052333;stroke-miterlimit:10;}
	.st5{fill:#FFC69B;}
	.st6{fill:#FFF4EB;}
	.st7{fill:#5B5B5B;}
	.st8{fill:#8F98B2;}
	.st9{opacity:0.41;}
	.st10{opacity:0.23;}
	.st11{fill:#052333;}
	.st12{opacity:0.45;}
	.st13{fill:#F5C5CE;}
	.st14{fill:#E2AAB7;}
	.st15{opacity:0.31;}
	.st16{fill:#111844;}
	.st17{fill:#F27131;}
	.st18{fill:none;stroke:#052333;stroke-width:1.0576;stroke-miterlimit:10;}
	.st19{fill:#F5F5F5;}
	.st20{opacity:0.95;fill:#FFFFFF;enable-background:new    ;}
	.st21{fill:#BCC1D1;}
	.st22{opacity:0.5;fill:#FFFFFF;enable-background:new    ;}
	.st23{fill:#FFC3BD;}
	.st24{fill:#263238;}
	.st25{opacity:0.2;enable-background:new    ;}
	.st26{opacity:0.6;enable-background:new    ;}
	.st27{fill:none;stroke:#8F98B2;stroke-width:1.26;stroke-miterlimit:10;}
</style>
<g>
	<g>
		<path class="st17" d="M112.02,73.59h-2.64v-56c0-3.4-2.77-6.17-6.17-6.17H83.99V4.87C83.99,2.18,81.8,0,79.12,0H35.7
			c-2.69,0-4.87,2.18-4.87,4.87v6.55H11.61c-3.4,0-6.17,2.77-6.17,6.17v16.53c0,0.93,0.75,1.68,1.68,1.68
			c0.93,0,1.68-0.75,1.68-1.68v-8.08h22.02v6.46c0,2.69,2.19,4.87,4.87,4.87h7.02v14.56c0,0.93,0.75,1.68,1.68,1.68
			c0.93,0,1.68-0.75,1.68-1.68V37.37h10.65c0.93,0,1.68-0.75,1.68-1.68c0-0.93-0.75-1.68-1.68-1.68H35.7
			c-0.83,0-1.51-0.68-1.51-1.51V4.87c0,0,0,0,0,0l21.37,14.6c0.56,0.38,1.2,0.57,1.85,0.57c0.64,0,1.29-0.19,1.85-0.57l21.36-14.6
			c0,0,0,0,0,0V32.5c0,0.83-0.68,1.51-1.51,1.51h-4.55v-5.19c0-0.93-0.75-1.68-1.68-1.68c-0.93,0-1.68,0.75-1.68,1.68v5.19h-6.84
			c-0.93,0-1.68,0.75-1.68,1.68c0,0.93,0.75,1.68,1.68,1.68h6.84v7.69c0,0.93,0.75,1.68,1.68,1.68c0.93,0,1.68-0.75,1.68-1.68v-7.69
			h4.56c2.69,0,4.87-2.18,4.87-4.87v-6.46h22.02v40.37H8.81V41.75c0-0.93-0.75-1.68-1.68-1.68c-0.93,0-1.68,0.75-1.68,1.68v31.84
			H2.8c-1.55,0-2.8,1.26-2.8,2.8v5.75c0,1.55,1.26,2.8,2.8,2.8h6.74l2.29,3.21c0.52,0.73,1.38,1.17,2.28,1.17h87.33
			c0.9,0,1.76-0.44,2.28-1.17l2.29-3.21h6c1.55,0,2.8-1.26,2.8-2.8v-5.75C114.82,74.85,113.56,73.59,112.02,73.59L112.02,73.59z
			 M8.81,22.68v-5.09c0-1.55,1.26-2.8,2.8-2.8h19.22v7.89H8.81z M57.41,16.65L37.96,3.36h38.9L57.41,16.65z M83.99,22.68v-7.89
			h19.22c1.55,0,2.8,1.26,2.8,2.8v5.09H83.99z M111.45,81.58h-6.3c-0.54,0-1.05,0.26-1.37,0.7l-2.63,3.67H14.4l-2.63-3.67
			c-0.32-0.44-0.83-0.7-1.37-0.7H3.36v-4.62h33.68L42.02,82c0.32,0.32,0.75,0.5,1.2,0.5H71.6c0.45,0,0.88-0.18,1.2-0.5l4.97-5.05
			h5.2c0.93,0,1.68-0.75,1.68-1.68c0-0.93-0.75-1.68-1.68-1.68H8.81v-3.81h97.2v3.81H90.6c-0.93,0-1.68,0.75-1.68,1.68
			c0,0.93,0.75,1.68,1.68,1.68h20.86V81.58z M41.77,76.95h31.29l-2.15,2.18H43.92L41.77,76.95z M41.77,76.95"/>
		<path class="st17" d="M55.28,57.16v-12.1c0-0.93-0.75-1.68-1.68-1.68c-0.93,0-1.68,0.75-1.68,1.68v12.1
			c0,0.93,0.75,1.68,1.68,1.68C54.53,58.85,55.28,58.09,55.28,57.16L55.28,57.16z M55.28,57.16"/>
		<path class="st17" d="M67.16,60.24V42.5c0-0.93-0.75-1.68-1.68-1.68s-1.68,0.75-1.68,1.68v17.73c0,0.93,0.75,1.68,1.68,1.68
			S67.16,61.17,67.16,60.24L67.16,60.24z M67.16,60.24"/>
		<path class="st17" d="M15.72,55.72h5.53c0.93,0,1.68-0.75,1.68-1.68c0-0.93-0.75-1.68-1.68-1.68h-5.53
			c-0.93,0-1.68,0.75-1.68,1.68C14.04,54.96,14.79,55.72,15.72,55.72L15.72,55.72z M15.72,55.72"/>
		<path class="st17" d="M15.72,49.88h18.31c0.93,0,1.68-0.75,1.68-1.68c0-0.93-0.75-1.68-1.68-1.68H15.72
			c-0.93,0-1.68,0.75-1.68,1.68C14.04,49.13,14.79,49.88,15.72,49.88L15.72,49.88z M15.72,49.88"/>
		<path class="st17" d="M15.72,61.55h18.31c0.93,0,1.68-0.75,1.68-1.68c0-0.93-0.75-1.68-1.68-1.68H15.72
			c-0.93,0-1.68,0.75-1.68,1.68C14.04,60.79,14.79,61.55,15.72,61.55L15.72,61.55z M15.72,61.55"/>
		<path class="st17" d="M79.11,46.3c0,0.93,0.75,1.68,1.68,1.68H99.1c0.93,0,1.68-0.75,1.68-1.68c0-0.93-0.75-1.68-1.68-1.68H80.79
			C79.86,44.61,79.11,45.37,79.11,46.3L79.11,46.3z M79.11,46.3"/>
		<path class="st17" d="M79.11,58.74c0,1.55,1.26,2.8,2.8,2.8h16.07c1.55,0,2.8-1.26,2.8-2.8v-5.5c0-1.55-1.26-2.8-2.8-2.8H81.91
			c-1.55,0-2.8,1.26-2.8,2.8V58.74z M82.47,53.81h14.95v4.37H82.47V53.81z M82.47,53.81"/>
		<path class="st17" d="M99.1,35.72c0.93,0,1.68-0.75,1.68-1.68v-0.02c0-0.93-0.75-1.68-1.68-1.68c-0.93,0-1.68,0.75-1.68,1.68v0.02
			C97.42,34.97,98.17,35.72,99.1,35.72L99.1,35.72z M99.1,35.72"/>
		<path class="st17" d="M97.42,39.87c0,0.93,0.75,1.68,1.68,1.68c0.93,0,1.68-0.75,1.68-1.68v-0.02c0-0.93-0.75-1.68-1.68-1.68
			c-0.93,0-1.68,0.75-1.68,1.68V39.87z M97.42,39.87"/>
	</g>
</g>
</svg>
