<?xml version="1.0" encoding="utf-8"?>
<!-- Generator: Adobe Illustrator 24.2.0, SVG Export Plug-In . SVG Version: 6.00 Build 0)  -->
<svg version="1.1" id="Capa_1" xmlns="http://www.w3.org/2000/svg" xmlns:xlink="http://www.w3.org/1999/xlink" x="0px" y="0px"
	 viewBox="0 0 91.39 76.16" style="enable-background:new 0 0 91.39 76.16;" xml:space="preserve">
<style type="text/css">
	.st0{fill:#F0ECEC;stroke:#052333;stroke-miterlimit:10;}
	.st1{fill:#FCFBFB;}
	.st2{fill:#FFFFFF;}
	.st3{fill:#F0ECEC;}
	.st4{fill:none;stroke:#052333;stroke-miterlimit:10;}
	.st5{fill:#FFC69B;}
	.st6{fill:#FFF4EB;}
	.st7{fill:#5B5B5B;}
	.st8{fill:#8F98B2;}
	.st9{opacity:0.41;}
	.st10{opacity:0.23;}
	.st11{fill:#052333;}
	.st12{opacity:0.45;}
	.st13{fill:#F5C5CE;}
	.st14{fill:#E2AAB7;}
	.st15{opacity:0.31;}
	.st16{fill:#111844;}
	.st17{fill:#F27131;}
	.st18{fill:none;stroke:#052333;stroke-width:1.0576;stroke-miterlimit:10;}
	.st19{fill:#F5F5F5;}
	.st20{opacity:0.95;fill:#FFFFFF;enable-background:new    ;}
	.st21{fill:#BCC1D1;}
	.st22{opacity:0.5;fill:#FFFFFF;enable-background:new    ;}
	.st23{fill:#FFC3BD;}
	.st24{fill:#263238;}
	.st25{opacity:0.2;enable-background:new    ;}
	.st26{opacity:0.6;enable-background:new    ;}
	.st27{fill:none;stroke:#8F98B2;stroke-width:1.26;stroke-miterlimit:10;}
</style>
<g>
	<g>
		<path class="st17" d="M24.76,73.11h-3.44v3.05h13.71v-3.05h-7.09l3.66-12.19h3.44v-3.05H6.09c-1.68,0-3.05-1.36-3.05-3.05v-3.05
			h31.99v-3.05H3.05V6.09c0-1.68,1.36-3.05,3.05-3.05h63.97c1.68,0,3.05,1.36,3.05,3.05v12.19h3.05V6.09c0-3.36-2.73-6.09-6.09-6.09
			H6.09C2.73,0,0,2.73,0,6.09v48.74c0,3.36,2.73,6.09,6.09,6.09h22.32L24.76,73.11z M24.76,73.11"/>
		<path class="st17" d="M67.02,15.23v3.05h3.05v-4.57c0-0.84-0.68-1.52-1.52-1.52H7.62c-0.84,0-1.52,0.68-1.52,1.52v18.28
			c0,0.84,0.68,1.52,1.52,1.52h27.42v-3.05H9.14V15.23H67.02z M67.02,15.23"/>
		<path class="st17" d="M25.89,45.7v-7.62c0-0.84-0.68-1.52-1.52-1.52H7.62c-0.84,0-1.52,0.68-1.52,1.52v7.62h3.05V39.6h13.71v6.09
			H25.89z M25.89,45.7"/>
		<path class="st17" d="M28.94,38.08v7.62h3.05V39.6h3.05v-3.05h-4.57C29.62,36.56,28.94,37.24,28.94,38.08L28.94,38.08z
			 M28.94,38.08"/>
		<rect x="6.09" y="6.09" class="st17" width="3.05" height="3.05"/>
		<rect x="12.19" y="6.09" class="st17" width="3.05" height="3.05"/>
		<rect x="18.28" y="6.09" class="st17" width="3.05" height="3.05"/>
		<path class="st17" d="M80.73,33.51v-7.62c0-2.52-2.05-4.57-4.57-4.57H42.65c-2.52,0-4.57,2.05-4.57,4.57v45.7
			c0,2.52,2.05,4.57,4.57,4.57h21.32v-3.05H42.65c-0.84,0-1.52-0.68-1.52-1.52v-1.52h22.85v-3.05H41.13V25.89
			c0-0.84,0.68-1.52,1.52-1.52h33.51c0.84,0,1.52,0.68,1.52,1.52v7.62H80.73z M80.73,33.51"/>
		<rect x="45.7" y="27.42" class="st17" width="4.57" height="3.05"/>
		<rect x="53.31" y="27.42" class="st17" width="4.57" height="3.05"/>
		<rect x="60.93" y="27.42" class="st17" width="4.57" height="3.05"/>
		<rect x="68.54" y="27.42" class="st17" width="4.57" height="3.05"/>
		<path class="st17" d="M47.22,36.56h19.8v-3.05H45.7c-0.84,0-1.52,0.68-1.52,1.52V45.7c0,0.84,0.68,1.52,1.52,1.52h18.28v-3.05
			H47.22V36.56z M47.22,36.56"/>
		<path class="st17" d="M63.97,53.31v-3.05H45.7c-0.84,0-1.52,0.68-1.52,1.52v10.66c0,0.84,0.68,1.52,1.52,1.52h18.28v-3.05H47.22
			v-7.62H63.97z M63.97,53.31"/>
		<path class="st17" d="M86.82,36.56H71.59c-2.52,0-4.57,2.05-4.57,4.57v30.46c0,2.52,2.05,4.57,4.57,4.57h15.23
			c2.52,0,4.57-2.05,4.57-4.57V41.13C91.39,38.6,89.35,36.56,86.82,36.56L86.82,36.56z M88.35,71.59c0,0.84-0.68,1.52-1.52,1.52
			H71.59c-0.84,0-1.52-0.68-1.52-1.52v-1.52h18.28V71.59z M88.35,67.02H70.07V41.13c0-0.84,0.68-1.52,1.52-1.52h15.23
			c0.84,0,1.52,0.68,1.52,1.52V67.02z M88.35,67.02"/>
		<path class="st17" d="M83.78,42.65h-9.14c-0.84,0-1.52,0.68-1.52,1.52v6.09c0,0.84,0.68,1.52,1.52,1.52h9.14
			c0.84,0,1.52-0.68,1.52-1.52v-6.09C85.3,43.33,84.62,42.65,83.78,42.65L83.78,42.65z M82.25,48.74h-6.09V45.7h6.09V48.74z
			 M82.25,48.74"/>
		<path class="st17" d="M83.78,54.84h-9.14c-0.84,0-1.52,0.68-1.52,1.52v6.09c0,0.84,0.68,1.52,1.52,1.52h9.14
			c0.84,0,1.52-0.68,1.52-1.52v-6.09C85.3,55.52,84.62,54.84,83.78,54.84L83.78,54.84z M82.25,60.93h-6.09v-3.05h6.09V60.93z
			 M82.25,60.93"/>
	</g>
</g>
</svg>
