<?xml version="1.0" encoding="utf-8"?>
<!-- Generator: Adobe Illustrator 24.2.0, SVG Export Plug-In . SVG Version: 6.00 Build 0)  -->
<svg version="1.1" id="Capa_1" xmlns="http://www.w3.org/2000/svg" xmlns:xlink="http://www.w3.org/1999/xlink" x="0px" y="0px"
	 viewBox="0 0 96.08 77.5" style="enable-background:new 0 0 96.08 77.5;" xml:space="preserve">
<style type="text/css">
	.st0{fill:#F0ECEC;stroke:#052333;stroke-miterlimit:10;}
	.st1{fill:#FCFBFB;}
	.st2{fill:#FFFFFF;}
	.st3{fill:#F0ECEC;}
	.st4{fill:none;stroke:#052333;stroke-miterlimit:10;}
	.st5{fill:#FFC69B;}
	.st6{fill:#FFF4EB;}
	.st7{fill:#5B5B5B;}
	.st8{fill:#8F98B2;}
	.st9{opacity:0.41;}
	.st10{opacity:0.23;}
	.st11{fill:#052333;}
	.st12{opacity:0.45;}
	.st13{fill:#F5C5CE;}
	.st14{fill:#E2AAB7;}
	.st15{opacity:0.31;}
	.st16{fill:#111844;}
	.st17{fill:#F27131;}
	.st18{fill:none;stroke:#052333;stroke-width:1.0576;stroke-miterlimit:10;}
	.st19{fill:#F5F5F5;}
	.st20{opacity:0.95;fill:#FFFFFF;enable-background:new    ;}
	.st21{fill:#BCC1D1;}
	.st22{opacity:0.5;fill:#FFFFFF;enable-background:new    ;}
	.st23{fill:#FFC3BD;}
	.st24{fill:#263238;}
	.st25{opacity:0.2;enable-background:new    ;}
	.st26{opacity:0.6;enable-background:new    ;}
	.st27{fill:none;stroke:#8F98B2;stroke-width:1.26;stroke-miterlimit:10;}
</style>
<g>
	<g>
		<path class="st17" d="M79.82,74.69H8.91c-3.36,0-6.1-2.74-6.1-6.1V19.7h62.12c0.78,0,1.41-0.63,1.41-1.41
			c0-0.78-0.63-1.41-1.41-1.41H2.81V8.91c0-3.36,2.74-6.1,6.1-6.1h6.25c0.78,0,1.41-0.63,1.41-1.41S15.94,0,15.16,0H8.91
			C4,0,0,4,0,8.91v59.68c0,4.92,4,8.91,8.91,8.91h70.91c0.78,0,1.41-0.63,1.41-1.41C81.23,75.32,80.6,74.69,79.82,74.69L79.82,74.69
			z M79.82,74.69"/>
		<path class="st17" d="M87.17,0H21.73c-0.78,0-1.41,0.63-1.41,1.41s0.63,1.41,1.41,1.41h65.44c3.36,0,6.1,2.74,6.1,6.1v7.98H71.5
			c-0.78,0-1.41,0.63-1.41,1.41c0,0.78,0.63,1.41,1.41,1.41h21.77v48.89c0,3.36-2.74,6.1-6.1,6.1h-0.88c-0.78,0-1.41,0.63-1.41,1.41
			c0,0.78,0.63,1.41,1.41,1.41h0.88c4.92,0,8.91-4,8.91-8.91V8.91C96.08,4,92.08,0,87.17,0L87.17,0z M87.17,0"/>
		<path class="st17" d="M5.77,9.81c0,2.33,1.89,4.22,4.22,4.22c2.33,0,4.22-1.89,4.22-4.22c0-2.33-1.89-4.22-4.22-4.22
			C7.66,5.58,5.77,7.48,5.77,9.81L5.77,9.81z M11.4,9.81c0,0.78-0.63,1.41-1.41,1.41c-0.78,0-1.41-0.63-1.41-1.41
			c0-0.78,0.63-1.41,1.41-1.41C10.77,8.4,11.4,9.03,11.4,9.81L11.4,9.81z M11.4,9.81"/>
		<path class="st17" d="M22.05,14.07c2.33,0,4.22-1.89,4.22-4.22s-1.89-4.22-4.22-4.22s-4.22,1.89-4.22,4.22
			S19.72,14.07,22.05,14.07L22.05,14.07z M22.05,8.44c0.78,0,1.41,0.63,1.41,1.41s-0.63,1.41-1.41,1.41c-0.78,0-1.41-0.63-1.41-1.41
			S21.27,8.44,22.05,8.44L22.05,8.44z M22.05,8.44"/>
		<path class="st17" d="M38.28,9.85c0-2.33-1.89-4.22-4.22-4.22c-2.33,0-4.22,1.89-4.22,4.22s1.89,4.22,4.22,4.22
			C36.39,14.07,38.28,12.18,38.28,9.85L38.28,9.85z M32.65,9.85c0-0.78,0.63-1.41,1.41-1.41c0.78,0,1.41,0.63,1.41,1.41
			s-0.63,1.41-1.41,1.41C33.28,11.26,32.65,10.63,32.65,9.85L32.65,9.85z M32.65,9.85"/>
		<path class="st17" d="M86.23,14.07c2.33,0,4.22-1.89,4.22-4.22s-1.89-4.22-4.22-4.22H46.26c-2.33,0-4.22,1.89-4.22,4.22
			s1.89,4.22,4.22,4.22H86.23z M44.85,9.85c0-0.78,0.63-1.41,1.41-1.41h39.97c0.78,0,1.41,0.63,1.41,1.41s-0.63,1.41-1.41,1.41
			H46.26C45.48,11.26,44.85,10.63,44.85,9.85L44.85,9.85z M44.85,9.85"/>
		<path class="st17" d="M85.44,29.54H58.61c-0.78,0-1.41,0.63-1.41,1.41c0,0.78,0.63,1.41,1.41,1.41h26.84
			c0.78,0,1.41-0.63,1.41-1.41C86.85,30.17,86.22,29.54,85.44,29.54L85.44,29.54z M85.44,29.54"/>
		<path class="st17" d="M85.44,37.05H58.61c-0.78,0-1.41,0.63-1.41,1.41c0,0.78,0.63,1.41,1.41,1.41h26.84
			c0.78,0,1.41-0.63,1.41-1.41C86.85,37.67,86.22,37.05,85.44,37.05L85.44,37.05z M85.44,37.05"/>
		<path class="st17" d="M86.85,45.96c0-0.78-0.63-1.41-1.41-1.41H58.61c-0.78,0-1.41,0.63-1.41,1.41c0,0.78,0.63,1.41,1.41,1.41
			h26.84C86.22,47.37,86.85,46.74,86.85,45.96L86.85,45.96z M86.85,45.96"/>
		<path class="st17" d="M33.4,69.23h29.28c3.67,0,6.66-2.99,6.66-6.66c0-3.67-2.99-6.66-6.66-6.66H33.4c-3.67,0-6.66,2.99-6.66,6.66
			C26.74,66.24,29.73,69.23,33.4,69.23L33.4,69.23z M33.4,58.72h29.28c2.12,0,3.85,1.72,3.85,3.85c0,2.12-1.73,3.85-3.85,3.85H33.4
			c-2.12,0-3.85-1.73-3.85-3.85C29.56,60.45,31.28,58.72,33.4,58.72L33.4,58.72z M33.4,58.72"/>
		<path class="st17" d="M36.84,26.44H16.2c-3.88,0-7.04,3.16-7.04,7.04v9.95c0,3.88,3.16,7.04,7.04,7.04h20.64
			c3.88,0,7.04-3.16,7.04-7.04v-0.39c0,0,0,0,0,0v-9.56C43.88,29.6,40.72,26.44,36.84,26.44L36.84,26.44z M16.17,47.65l2.48-3.82
			c0.42-0.65,0.24-1.52-0.41-1.95c-0.65-0.42-1.52-0.24-1.95,0.41l-2.83,4.35c-0.91-0.78-1.49-1.93-1.49-3.22v-9.95
			c0-2.33,1.89-4.22,4.22-4.22h20.64c2.33,0,4.22,1.89,4.22,4.22v5.7l-4.27-5.1c-0.26-0.31-0.65-0.5-1.06-0.5
			c-0.41-0.01-0.8,0.17-1.07,0.47l-4.78,5.38l-4.61-7.26c-0.26-0.4-0.7-0.65-1.18-0.65c0,0-0.01,0-0.01,0
			c-0.48,0-0.92,0.24-1.18,0.64l-3.01,4.63c-0.42,0.65-0.24,1.52,0.41,1.95c0.65,0.42,1.52,0.24,1.95-0.41l1.82-2.8l7.7,12.13H16.2
			C16.19,47.65,16.18,47.65,16.17,47.65L16.17,47.65z M36.84,47.65H35.1l-3.65-5.75l4.23-4.76l5.38,6.42
			C40.99,45.82,39.12,47.65,36.84,47.65L36.84,47.65z M36.84,47.65"/>
	</g>
</g>
</svg>
