<?xml version="1.0" encoding="utf-8"?>
<!-- Generator: Adobe Illustrator 24.2.0, SVG Export Plug-In . SVG Version: 6.00 Build 0)  -->
<svg version="1.1" id="Capa_1" xmlns="http://www.w3.org/2000/svg" xmlns:xlink="http://www.w3.org/1999/xlink" x="0px" y="0px"
	 viewBox="0 0 647.19 534" style="enable-background:new 0 0 647.19 534;" xml:space="preserve">
<style type="text/css">
	.st0{fill:#F0ECEC;stroke:#052333;stroke-miterlimit:10;}
	.st1{fill:#FCFBFB;}
	.st2{fill:#FFFFFF;}
	.st3{fill:#F0ECEC;}
	.st4{fill:none;stroke:#052333;stroke-miterlimit:10;}
	.st5{fill:#FFC69B;}
	.st6{fill:#FFF4EB;}
	.st7{fill:#5B5B5B;}
	.st8{fill:#8F98B2;}
	.st9{opacity:0.41;}
	.st10{opacity:0.23;}
	.st11{fill:#052333;}
	.st12{opacity:0.45;}
	.st13{fill:#F5C5CE;}
	.st14{fill:#E2AAB7;}
	.st15{opacity:0.31;}
	.st16{fill:#111844;}
	.st17{fill:#F27131;}
	.st18{fill:none;stroke:#052333;stroke-width:1.0576;stroke-miterlimit:10;}
	.st19{fill:#F5F5F5;}
	.st20{opacity:0.95;fill:#FFFFFF;enable-background:new    ;}
	.st21{fill:#BCC1D1;}
	.st22{opacity:0.5;fill:#FFFFFF;enable-background:new    ;}
	.st23{fill:#FFC3BD;}
	.st24{fill:#263238;}
	.st25{opacity:0.2;enable-background:new    ;}
	.st26{opacity:0.6;enable-background:new    ;}
	.st27{fill:none;stroke:#8F98B2;stroke-width:1.26;stroke-miterlimit:10;}
</style>
<g>
	<g id="freepik--background-simple--inject-2_1_">
		<path class="st6" d="M333.35,298.4c-68.26-73.36-162.39-22.56-234-46.9C11.73,221.71-28.42,122.59,22.26,72.29
			c43.48-43.12,105.47-5.74,165.73-5.3c82.28,0.58,134.3-41.1,227.44-8.94c179.93,62.16,147.04,288.99,64.11,369.97
			c-28.61,27.93-54.92,49.64-102.64,5.8C333.58,394.07,361.46,328.63,333.35,298.4z"/>
	</g>
	<g id="freepik--Shadow--inject-2_1_">
		<ellipse id="freepik--path--inject-2_1_" class="st19" cx="323.92" cy="515.13" rx="323.27" ry="18.87"/>
	</g>
	<g id="freepik--Smartphone--inject-2_1_">
		<rect x="433.54" y="34.68" class="st8" width="1.73" height="10.97"/>
		<path class="st8" d="M435.28,25.76h-1.67c-0.02-13.3-10.8-24.08-24.11-24.09V0C423.71,0.05,435.22,11.55,435.28,25.76z"/>
		<path class="st8" d="M179.31,6h230.12c10.92,0,19.77,8.85,19.77,19.77v469.34c0,10.92-8.85,19.77-19.77,19.77H179.31
			c-10.92,0-19.77-8.85-19.77-19.77V25.78C159.54,14.86,168.39,6,179.31,6z"/>
		<path class="st20" d="M420.24,25.76v469.36c0,6.71-5.44,12.15-12.15,12.15H177.96c-6.71,0-12.15-5.44-12.15-12.15V25.76
			c0-6.71,5.44-12.15,12.15-12.15h230.12C414.8,13.61,420.24,19.05,420.24,25.76z"/>
		<circle class="st8" cx="293.04" cy="474.68" r="13.76"/>
		<path class="st8" d="M282.52,12.22c0.01,6.27,5.09,11.35,11.36,11.34c6.26-0.01,11.34-5.08,11.34-11.34H282.52z"/>
		<path class="st5" d="M368.12,61.49H219.73c-12.6,0.04-22.81,10.24-22.84,22.84v15.24c0.04,12.6,10.24,22.81,22.84,22.84h148.39
			l22.84,13.54V84.26C390.88,71.69,380.69,61.54,368.12,61.49z"/>
		<rect x="223.78" y="83.31" class="st2" width="140.2" height="3.8"/>
		<rect x="250.76" y="96.79" class="st2" width="113.23" height="3.8"/>
		<path class="st21" d="M219.65,162.93h148.39c12.6,0.04,22.81,10.24,22.84,22.84v15.22c-0.04,12.6-10.24,22.81-22.84,22.84H219.65
			l-22.84,13.54v-51.69C196.88,173.11,207.08,162.95,219.65,162.93z"/>
		<rect x="223.78" y="184.74" class="st22" width="140.2" height="3.8"/>
		<rect x="223.78" y="198.22" class="st22" width="65.02" height="3.8"/>
		<rect x="298.96" y="198.22" class="st22" width="26.44" height="3.8"/>
		<path class="st5" d="M368.12,264.35H219.73c-12.6,0.04-22.81,10.24-22.84,22.84v15.22c0.03,12.6,10.24,22.81,22.84,22.84h148.39
			l22.84,13.54v-51.69C390.87,274.54,380.68,264.39,368.12,264.35z"/>
		<rect x="223.78" y="286.16" class="st2" width="140.2" height="3.8"/>
		<rect x="250.76" y="299.65" class="st2" width="113.23" height="3.8"/>
		<path class="st21" d="M219.65,365.77h57.74c12.6,0.05,22.8,10.25,22.84,22.84v15.24c-0.05,12.6-10.25,22.8-22.84,22.84h-57.74
			l-22.84,13.52v-51.6C196.84,376.01,207.05,365.81,219.65,365.77z"/>
		<path class="st22" d="M231.22,396.23c0,3.68-2.99,6.67-6.67,6.67s-6.67-2.99-6.67-6.67c0-3.68,2.99-6.67,6.67-6.67
			C228.21,389.61,231.17,392.57,231.22,396.23z"/>
		<circle class="st22" cx="244.71" cy="390.83" r="6.75"/>
		<path class="st22" d="M271.68,404.32c0,3.68-2.99,6.67-6.67,6.67c-3.68,0-6.67-2.99-6.67-6.67c0-3.68,2.99-6.67,6.67-6.67
			C268.7,397.65,271.68,400.63,271.68,404.32z"/>
	</g>
	<g id="freepik--character-2--inject-2_1_">
		<path class="st23" d="M481.19,380.01c1.83,3.65,3.47,7.32,5.19,10.99c1.72,3.67,3.33,7.4,4.87,11.14s3.13,7.49,4.6,11.3
			s2.95,7.64,4.3,11.67l-5.97-5.62c3.48,1.19,7.13,1.82,10.8,1.87c4.27,0.12,8.53-0.08,12.77-0.58c4.4-0.47,8.84-1.2,13.34-2.03
			s9-1.87,13.34-2.88l3.95,9.6c-4.34,2.38-8.83,4.48-13.44,6.29c-4.62,1.85-9.35,3.42-14.16,4.7c-5,1.35-10.11,2.24-15.27,2.67
			c-5.76,0.56-11.57,0.08-17.16-1.4l-3.92-1.08l-2.13-4.59c-3.2-7.02-6.67-14.22-10-21.41c-1.67-3.6-3.42-7.22-5.09-10.84
			c-1.67-3.62-3.33-7.25-5-10.89L481.19,380.01z"/>
		<path class="st23" d="M539,418.79l6.55-6.4l10.4,11.25c0,0-3.77,6.59-13.14,2.75L539,418.79z"/>
		<polygon class="st23" points="555.44,408.15 561.17,417.51 555.97,423.64 545.57,412.39 		"/>
		<path class="st24" d="M451.75,365.02c13.34-5.15,23.68,2.53,40.53,23.81l-19.74,20.29C472.54,409.12,425.74,374.99,451.75,365.02z
			"/>
		<path class="st25" d="M476.79,387.03c-6.3-4.08-11.79-2.93-16.42,0.87c1.75,6.49,6.24,13.92,10.55,20.01
			c1.02,0.8,1.67,1.23,1.67,1.23l11-11.32C483.01,393.4,480.53,389.46,476.79,387.03z"/>
		<polygon class="st23" points="553.34,506.46 569.31,504.61 567.98,471.86 552.02,473.69 		"/>
		<path class="st5" d="M569.44,497.72l-17.99,0.25c-0.6,0.03-1.09,0.5-1.15,1.1l-2.03,14.16c-0.23,1.29,0.63,2.52,1.91,2.75
			c0.11,0.02,0.23,0.03,0.34,0.04c5.59-0.18,8.15-0.6,15.21-0.72c4.35,0,17.46,0.25,23.46,0.17c6-0.08,6.4-6.67,3.92-7.25
			c-11.15-2.5-17.57-6.09-21.29-9.55C571.18,498.04,570.33,497.71,569.44,497.72z"/>
		<path class="st8" d="M573.26,493.55c0.51-0.19,1.08-0.13,1.53,0.18c0.36,0.18,0.6,0.52,0.65,0.92c0.2,1.67-3.33,4.67-3.82,5
			c-0.1,0.07-0.23,0.07-0.33,0c-0.12-0.06-0.18-0.19-0.17-0.32c0.12-1.8,0.53-5,1.95-5.72L573.26,493.55z M571.81,498.65
			c1.4-1.22,3.13-3.05,3.02-3.97c0-0.1,0-0.25-0.28-0.38c-0.34-0.24-0.78-0.28-1.15-0.1C572.63,494.62,572.05,496.27,571.81,498.65z
			"/>
		<path class="st8" d="M573.1,498.05c1.19-0.63,2.59-0.75,3.87-0.33c0.45,0.28,0.66,0.82,0.52,1.33c-0.07,0.48-0.36,0.89-0.78,1.12
			c-1.67,0.92-5.2-0.45-5.35-0.5c-0.1-0.05-0.18-0.14-0.22-0.25c-0.02-0.11,0.02-0.23,0.1-0.3
			C571.78,498.66,572.42,498.3,573.1,498.05z M576.2,499.72l0.18-0.08c0.26-0.15,0.45-0.42,0.5-0.72c0-0.4-0.08-0.55-0.22-0.62
			c-0.8-0.52-3.25,0.15-4.57,1C573.4,499.82,574.82,499.97,576.2,499.72z"/>
		<polygon class="st25" points="552.02,473.71 567.98,471.86 568.66,488.75 552.62,488.82 		"/>
		<path class="st8" d="M473.71,454.7c0,0,41.45-38.55,68.36-39.13c19.64-0.42,33.68,64.54,33.68,64.54l-23.34,0.45
			c0,0-4.1-22.98-19.36-29.31c-22.04,33.08-111.89,98.45-103.37,27.58C443.01,473.81,473.71,454.7,473.71,454.7z"/>
		<path class="st25" d="M473.71,454.7c0,0,41.45-38.55,68.36-39.13c19.64-0.42,33.68,64.54,33.68,64.54l-23.34,0.45
			c0,0-4.1-22.98-19.36-29.31c-22.04,33.08-111.89,98.45-103.37,27.58C443.01,473.81,473.71,454.7,473.71,454.7z"/>
		<polygon class="st24" points="575.66,483.33 548.22,485.97 548.3,475.96 577.33,472.51 		"/>
		<path class="st24" d="M419.29,481.28c0,0-17.82-34.81-20.01-90.88c-0.5-13.2,11.39-25.66,25.01-26.36
			c11.44-0.6,23.54-0.75,33.35-0.72c9.8,0.03,17.31,6.54,18.42,15.97c2.47,20.81,2.9,52.4,15.66,90.03L419.29,481.28z"/>
		<path class="st25" d="M407.63,390.68c9.82-11.09,13.2-7.55,14.67-6.22c13.61,12.32-6.37,50.69-10.37,56.34
			c-2.81-14.33-4.48-28.86-5-43.45C406.83,395.1,407.07,392.86,407.63,390.68z"/>
		<path class="st23" d="M437.56,330.71c-1.1,10.22-3.8,25.91-10.75,33.2c5.47,5.15,14.37,10.22,27.03,12.34
			c6.54-2.7,7.4-8.72,4.23-12.9c-11.17-1.95-11.04-5.12-6.82-12.24L437.56,330.71z"/>
		<path class="st25" d="M443.15,339.03l8.1,12.05c-1.07,1.66-1.91,3.46-2.48,5.35c-3.97-1.67-8.34-7.74-7.47-12.2
			C441.6,342.4,442.23,340.64,443.15,339.03z"/>
		<path class="st24" d="M466.84,311.87c6.55,6.95,20.32,6.99,14.41-1.25S461.74,306.45,466.84,311.87z"/>
		<path class="st23" d="M440.28,311.12c-3.65,13.34-6.45,20.81-2.3,30.01c3.79,9.03,14.19,13.28,23.23,9.48
			c3.39-1.43,6.26-3.87,8.2-7c6.67-10.54,11.57-30.46,0.88-40.58c-6.89-7.03-18.17-7.15-25.2-0.27
			C442.75,305.05,441.08,307.94,440.28,311.12z"/>
		<path class="st23" d="M437.29,323.49c1.67-0.3,9.9-2.8,13.92-6.67c4.52-4.35,4.55-8.57,3.33-10.49
			c-1.22-1.92-10.75-5.6-15.21-4.75c-7.04,1.35-5.3,13.81-5.2,17.17C434.25,320.79,435.46,322.6,437.29,323.49z"/>
		<path class="st24" d="M437.29,323.49c1.67-0.3,9.9-2.8,13.92-6.67c4.52-4.35,4.55-8.57,3.33-10.49
			c-1.22-1.92-10.75-5.6-15.21-4.75c-7.04,1.35-5.3,13.81-5.2,17.17C434.25,320.79,435.46,322.6,437.29,323.49z"/>
		<path class="st23" d="M430.31,324.4c1.3,2.87,3.62,5.14,6.52,6.37c3.83,1.55,6.02-1.67,5.19-5.59c-0.75-3.45-3.65-8.44-7.6-8.34
			S428.74,320.87,430.31,324.4z"/>
		<path class="st24" d="M442.85,305.56c17.01,3.63,29.09,13.2,37.13,7.45c5.69-4.07,1.95-11.49-4.57-16.86
			c-5.57-4.59-13.34-6-15.67-9.75c-0.56,2.55,0.48,5.19,2.63,6.67c0,0-15.36-2.37-19.61-6.37c-1.02,2.38,2.92,6.99,2.92,6.99
			s-4.33,4.12-16.67-0.53C429.74,297.14,433.18,303.5,442.85,305.56z"/>
		<path class="st24" d="M476.63,314.37h-0.67v-0.87c3.02,0.38,5.92-1.31,7.09-4.12c1.31-3.75,0.07-7.91-3.07-10.34
			c-1.47-1.15-3.08-2.11-4.79-2.87c-3.95-1.98-8.44-4.23-10.6-10.79l0.82-0.27c2.05,6.2,6.19,8.34,10.19,10.27
			c1.78,0.79,3.46,1.8,5,3c3.46,2.65,4.8,7.22,3.33,11.32C482.73,312.66,479.8,314.52,476.63,314.37z"/>
		<polygon class="st23" points="608.74,514.24 618.25,500.42 592.65,478.13 583.15,491.95 		"/>
		<path class="st5" d="M611.68,493.88l-11.15,13.89c-0.4,0.48-0.4,1.18,0,1.67l8.69,10.8c0.76,0.95,2.15,1.1,3.09,0.34
			c0.13-0.1,0.24-0.22,0.34-0.34c3.52-4.54,5.87-8.02,10.39-13.66c2.78-3.47,11.54-13.61,15.39-18.34c3.85-4.74-0.55-9.4-2.57-7.8
			c-9.05,7.15-17.11,11.54-21.97,12.2C613.02,492.77,612.23,493.21,611.68,493.88z"/>
		<path class="st8" d="M610.94,488.18c0.16-0.52,0.56-0.94,1.07-1.13c0.36-0.18,0.78-0.18,1.13,0c1.52,0.88,1.67,5.52,1.67,6.05
			c0,0.13-0.08,0.24-0.2,0.28c-0.11,0.07-0.24,0.07-0.35,0c-1.37-1.17-3.63-3.33-3.33-5C610.92,488.32,610.93,488.25,610.94,488.18z
			 M614.16,492.4c-0.13-1.87-0.55-4.33-1.35-4.8c-0.16-0.08-0.34-0.08-0.5,0c-0.39,0.14-0.68,0.46-0.77,0.87
			C611.43,489.33,612.36,490.78,614.16,492.4z"/>
		<path class="st8" d="M614.48,491.02c0.38-1.42,1.12-2.95,2.03-3.33c0.5-0.19,1.06-0.04,1.38,0.38c0.34,0.34,0.5,0.82,0.43,1.3
			c-0.23,1.83-3.47,3.9-3.62,3.98c-0.1,0.06-0.22,0.06-0.32,0c-0.11-0.04-0.18-0.14-0.18-0.25
			C614.18,492.4,614.27,491.69,614.48,491.02z M617.65,489.5c0,0,0-0.12,0-0.18c0.04-0.3-0.06-0.61-0.28-0.82
			c-0.27-0.3-0.47-0.28-0.62-0.22c-0.88,0.33-1.82,2.7-1.93,4.25C616.02,491.8,617,490.75,617.65,489.5L617.65,489.5z"/>
		<polygon class="st25" points="583.15,491.95 592.65,478.13 605.86,489.62 594.95,502.24 		"/>
		<path class="st8" d="M445.31,476.2c0,0,72.86-74.03,105.66-42.35c20.42,19.74,50.44,46.93,50.44,46.93l-17.39,16.92
			c0,0-44.05-23.43-55.52-36.36c-60.19,67.29-113.98,71.89-109.14,20.01C427.89,479.07,436.56,477.35,445.31,476.2z"/>
		<polygon class="st24" points="606.59,480.93 587.48,504.94 579.38,499.5 598.91,474.01 		"/>
		<path class="st23" d="M419.54,385.69l1.43,30.34c0.27,5,0.58,10,0.97,15.01c0.2,2.45,0.47,4.87,0.73,7.19
			c0.15,1.17,0.3,2.3,0.48,3.33s0.38,2,0.52,2.58c0.01,0.09,0.01,0.18,0,0.27c-0.27-0.5-0.66-0.92-1.13-1.23
			c-0.27-0.2-0.58-0.34-0.9-0.43c-0.18,0-0.28,0-0.2,0c1.36,0.21,2.76,0.12,4.08-0.27c4.41-1.1,8.7-2.62,12.82-4.55
			c4.45-1.95,8.89-4.2,13.34-6.54s8.9-4.82,13.22-7.24l6.24,8.34c-7.82,7.28-16.31,13.79-25.36,19.46
			c-2.32,1.42-4.72,2.78-7.25,4.07c-2.65,1.37-5.39,2.52-8.22,3.47c-1.61,0.53-3.25,0.94-4.92,1.23c-2.05,0.38-4.14,0.48-6.22,0.3
			c-1.34-0.13-2.66-0.42-3.93-0.87c-1.53-0.54-2.97-1.31-4.27-2.28c-1.35-1.05-2.52-2.32-3.45-3.75c-0.43-0.66-0.8-1.34-1.13-2.05
			l-0.63-1.53c-0.59-1.59-1.08-3.21-1.48-4.85c-0.37-1.48-0.67-2.87-0.93-4.25c-0.55-2.75-0.97-5.44-1.33-8.09
			c-0.77-5.3-1.32-10.54-1.78-15.76c-0.93-10.44-1.48-20.76-1.67-31.25L419.54,385.69z"/>
		<path class="st24" d="M414.42,366.14c-7.85,0.88-19.61,8.34-20.01,42.98l33.68-2.65C428.09,406.47,443.96,362.75,414.42,366.14z"
			/>
		<path class="st8" d="M493.23,406.6l-12.5,0.82c-1.51,0.21-2.74,1.32-3.1,2.8l-5.85,27.48c-0.33,0.99,0.21,2.05,1.19,2.38
			c0.25,0.08,0.52,0.11,0.79,0.09l12.5-0.82c1.51-0.2,2.75-1.31,3.1-2.8l5.85-27.48c0.33-0.99-0.21-2.05-1.19-2.38
			C493.77,406.6,493.5,406.57,493.23,406.6z"/>
		<path class="st23" d="M465.92,423.51l10.35-3.6l-2.55,16.22c0,0-11.54,2.53-12.49-3.67l1.67-5.52
			C463.33,425.4,464.44,424.13,465.92,423.51z"/>
		<polygon class="st23" points="488.11,421.27 483.63,435.71 473.73,436.13 476.28,419.91 		"/>
	</g>
	<g id="freepik--character-1--inject-2_1_">
		<path class="st24" d="M129.48,81.23c-8.14-18.89,36.23-38.66,48.77-9.25c21.29,9.25-5.92,48.6,0.23,55.27
			c6.15,6.67,10.79-1.42,10.79-1.42s6.22,16.57-9.64,29.84c-14.21,11.92-56.94,15.16-57.04-8.34
			C122.46,116.79,140.15,105.99,129.48,81.23z"/>
		<polygon class="st13" points="170.28,477.81 158.34,484.76 129.68,452 144.55,438.58 		"/>
		<path class="st24" d="M156.97,481.76l12.32-9.45c0.4-0.36,1-0.36,1.4,0l8.17,8.07c0.78,0.88,0.7,2.23-0.19,3.01
			c-0.06,0.06-0.13,0.11-0.2,0.16c-4.33,3.22-6.59,4.57-12,8.74c-3.33,2.55-10,8.15-14.57,11.67c-4.57,3.52-8.04-0.53-6.42-2.38
			c7.3-8.34,8.89-13.34,10-17.79C155.74,482.96,156.26,482.25,156.97,481.76z"/>
		<path class="st8" d="M154.21,486.7c-0.86,0.8-1.95,1.3-3.12,1.42c-0.56-0.02-1.08-0.33-1.37-0.82c-0.17-0.31-0.17-0.68,0-0.98
			c0.83-1.67,6.77-2.98,7.44-3.13c0.13-0.02,0.26,0.04,0.33,0.15c0.07,0.11,0.07,0.25,0,0.37
			C156.49,484.8,155.39,485.8,154.21,486.7z M150.67,486.08c-0.17,0.12-0.32,0.28-0.42,0.47c-0.08,0.12-0.08,0.27,0,0.38
			c0.18,0.33,0.51,0.54,0.88,0.55c1.08,0,2.97-1.23,5.1-3.47C154.28,484.39,152.4,485.09,150.67,486.08L150.67,486.08z"/>
		<path class="st8" d="M157.34,483.73h-0.13c-1.67,0.45-5.95,0.22-6.67-1.1c-0.15-0.3-0.2-0.82,0.47-1.43
			c0.48-0.44,1.1-0.69,1.75-0.68c2.18,0,4.52,2.58,4.6,2.7c0.06,0.09,0.06,0.21,0,0.3C157.37,483.59,157.37,483.66,157.34,483.73z
			 M151.6,481.58l-0.15,0.13c-0.43,0.4-0.33,0.6-0.3,0.67c0.4,0.8,3.45,1.18,5.35,0.92c-0.99-1.09-2.32-1.82-3.77-2.08
			C152.33,481.2,151.93,481.33,151.6,481.58z"/>
		<path class="st13" d="M126.88,149.72c-0.78,3.58-1.67,6.82-2.67,10.17c-1,3.35-2.03,6.67-3.23,9.87
			c-2.31,6.58-5.01,13.01-8.1,19.26l-2.45,4.67c-0.88,1.53-1.67,3.07-2.67,4.59l-1.43,2.25c-0.5,0.77-0.88,1.45-1.57,2.35
			c-0.33,0.43-0.67,0.87-1.12,1.38c-0.57,0.67-1.2,1.27-1.9,1.8c-0.84,0.65-1.82,1.1-2.85,1.33c-0.48,0.11-0.97,0.16-1.47,0.17
			c-0.6,0.01-1.21-0.08-1.78-0.25c-1.08-0.29-2.07-0.87-2.85-1.67c-0.79-0.79-1.36-1.76-1.67-2.83c-0.15-0.49-0.26-1-0.32-1.52
			c-0.13-1.2-0.13-2.42,0-3.62c0.12-1,0.28-1.93,0.45-2.83c0.33-1.82,0.77-3.52,1.22-5.22c0.94-3.35,2.05-6.64,3.33-9.87l6.67,1.47
			l-0.45,10c0,1.67-0.1,3.23-0.12,4.77c0,0.77,0,1.52,0,2.18c0,0.48,0.06,0.96,0.2,1.42c0,0,0,0,0-0.3
			c-0.21-0.63-0.56-1.2-1.03-1.67c-0.65-0.66-1.45-1.14-2.33-1.4c-0.48-0.13-0.97-0.2-1.47-0.22c-0.39,0.01-0.78,0.05-1.17,0.13
			c-0.6,0.15-1.16,0.4-1.67,0.75c-0.35,0.25-0.22,0.12-0.15,0l0.38-0.65l2.23-4c0.75-1.4,1.43-2.83,2.17-4.25l2.05-4.33
			c2.6-5.89,5-11.94,7-18.11c1.03-3.08,1.98-6.2,2.93-9.32s1.8-6.34,2.55-9.29L126.88,149.72z"/>
		<path class="st13" d="M121.18,132.37c-4.84,0.78-12.5,31.51-12.5,31.51l11.15,8.59c0,0,11.19-22.21,11.67-32.2
			C131.83,133.03,124.83,131.78,121.18,132.37z"/>
		<path class="st13" d="M103.69,182.7l-1.88-15.27l-8.75,12.84c0.76,3.16,3.32,5.58,6.52,6.15L103.69,182.7z"/>
		<polygon class="st13" points="164.86,503.74 151.52,504.19 148.97,457.64 167.48,457.9 		"/>
		<path class="st24" d="M150.62,499.94l15.01-0.1c0.52-0.02,0.96,0.38,1,0.9l0.9,11.82c0.02,1.29-1.01,2.36-2.3,2.38
			c-5.2,0-7.7-0.35-14.27-0.3c-4.05,0-10,0.48-15.57,0.53c-5.57,0.05-5.52-5.49-3.15-6c10.59-2.32,12.44-5.42,16.16-8.34
			C149.01,500.3,149.8,499.99,150.62,499.94z"/>
		<path class="st8" d="M120.36,132.27c0,0-6.67,1.67-6.67,80.58l53.5,4.74c2.68-21.99,4.85-35.51,22.58-79.56
			c-7.27-2.23-14.7-3.9-22.23-5c-8.03-1.31-16.14-2.02-24.28-2.15C132.6,130.88,120.36,132.27,120.36,132.27z"/>
		<path class="st25" d="M179.15,148.09l2.85,9.72c-2.23,6.02-4.08,11.34-5.64,16.12C175.18,165.22,176.14,156.35,179.15,148.09z"/>
		<polygon class="st13" points="101.8,167.43 93.05,180.27 103.69,179.65 109.36,167.91 		"/>
		<path class="st24" d="M107.35,196.96l10-0.15c1.29-0.02,2.31-1.09,2.29-2.38c0-0.09-0.01-0.18-0.02-0.27l-3.12-22.43
			c-0.15-1.17-1.16-2.03-2.33-2l-10,0.15c-1.27,0-2.3,1.04-2.29,2.31c0,0.11,0.01,0.22,0.02,0.32l3.12,22.43
			C105.17,196.11,106.18,196.98,107.35,196.96z"/>
		<path class="st13" d="M169.54,105.26c-2.82,7.74-6.67,22.01-2.08,27.74c-7.98,6.67-16.91,12.09-26.51,16.09
			c-5.59-13.04,2.23-18.24,2.23-18.24c9.05-1.32,9.89-7.85,9.35-14.11L169.54,105.26z"/>
		<path class="st24" d="M132.9,96.39c-1.4,23.16-15.32,29.79-12.05,41.68c4.62,16.67,23.46,3.62,23.46,3.62s-10.25,3.33-10.9-4.77
			c-0.53-6.67,23.14-5.64,16.57-21.32C145.75,105.49,132.9,96.39,132.9,96.39z"/>
		<path class="st25" d="M164.69,111.11l-12.14,5.64c0.13,1.46,0.13,2.94,0,4.4c2.53,0.23,9.1-1.67,11.59-5.77
			C164.83,114.07,165.03,112.55,164.69,111.11z"/>
		<path class="st13" d="M171.65,83.48c1.22,13.14,2.02,18.69-3.53,26.39c-8.34,11.59-24.76,10.22-29.88-2.32
			c-4.62-11.27-5.84-30.88,6.12-38.03c8.5-5.16,19.58-2.45,24.74,6.05C170.55,77.97,171.42,80.68,171.65,83.48z"/>
		<path class="st24" d="M168.74,70.29c-10.37-7.12-18.99,6.55-0.58,19.84S180.53,78.38,168.74,70.29z"/>
		<path class="st24" d="M163.23,66.47c4.28,3.85-21.22,18.06-35.1,13.34c-13.87-4.72-2.73-15.31,2.32-16.67
			c-4.33,4.18,3.25,10.54,6.92,6.57C141.03,65.74,154.62,58.76,163.23,66.47z"/>
		<path class="st8" d="M113.62,212.85c0,0-28.23,119.53-25.74,149.71c2.88,35.28,41.47,92.15,41.47,92.15l17.72-16.09
			c0,0-17.59-46.58-30.61-76.93c4.17-30.34,41.02-116.08,41.02-144.95L113.62,212.85z"/>
		<path class="st26" d="M113.62,212.85c0,0-28.23,119.53-25.74,149.71c2.88,35.28,41.47,92.15,41.47,92.15l17.72-16.09
			c0,0-17.59-46.58-30.61-76.93c4.17-30.34,41.02-116.08,41.02-144.95L113.62,212.85z"/>
		<polygon class="st8" points="150.34,441.02 129.4,456.62 124.03,452.54 147,434.41 		"/>
		<path class="st25" d="M134.51,265.42c-15.56,21.54-16.31,61.16-15.34,83.36c5.34-20.44,16.52-50.97,25.44-78.48
			C144.4,259.76,141.78,255.33,134.51,265.42z"/>
		<path class="st8" d="M123.66,212.95c0,0,10.34,103.22,13.79,138.07c4.1,41.37,10.12,107.71,10.12,107.71l19.91-0.83
			c0,0,4.37-56.24,1.13-93.37c0.58-49.19,7.84-116.06-1.5-147.01L123.66,212.95z"/>
		<path class="st26" d="M123.66,212.95c0,0,10.34,103.22,13.79,138.07c4.1,41.37,10.12,107.71,10.12,107.71l19.91-0.83
			c0,0,4.37-56.24,1.13-93.37c0.58-49.19,7.84-116.06-1.5-147.01L123.66,212.95z"/>
		<polygon class="st8" points="168.99,461.54 146.15,460.89 144.55,453.7 170.39,452.99 		"/>
		<path class="st13" d="M175.3,92.45c-0.18,2.58-1.38,4.98-3.33,6.67c-2.57,2.2-5.29,0.27-5.77-2.92c-0.45-2.85,0.37-7.44,3.52-8.34
			c2.29-0.7,4.71,0.58,5.42,2.87C175.3,91.29,175.36,91.87,175.3,92.45z"/>
		<path class="st13" d="M193.29,154.02c0.25,2.42,0.38,4.54,0.45,6.79s0.12,4.42,0.1,6.67c-0.07,4.45-0.35,8.89-0.85,13.34
			c-0.51,4.5-1.35,8.96-2.5,13.34c-0.6,2.26-1.32,4.49-2.17,6.67c-0.42,1.1-0.88,2.2-1.37,3.33c0,0-0.25,0.53-0.42,0.83
			c-0.18,0.35-0.38,0.67-0.62,0.98c-0.41,0.61-0.89,1.17-1.43,1.67c-0.88,0.75-1.86,1.37-2.92,1.83c-1.51,0.63-3.11,1.04-4.74,1.2
			c-1.3,0.14-2.61,0.2-3.92,0.17c-2.36-0.06-4.71-0.27-7.04-0.62c-4.37-0.69-8.69-1.63-12.95-2.8c-4.18-1.15-8.34-2.42-12.39-3.77
			c-4.05-1.35-8.09-2.85-12.1-4.54l2.08-6.4c4.05,0.88,8.17,1.82,12.27,2.6s8.19,1.67,12.25,2.27c4.07,0.6,8.14,1.22,12.07,1.47
			c1.88,0.15,3.77,0.18,5.65,0.1c0.81-0.04,1.61-0.13,2.4-0.27c0.48-0.08,0.95-0.22,1.38-0.43c0,0,0,0-0.25,0.13
			c-0.15,0.12-0.29,0.26-0.4,0.42l-0.2,0.3c0,0-0.15,0.33,0,0.12c0.32-0.87,0.63-1.67,0.9-2.63c0.57-1.8,1.03-3.65,1.45-5.54
			c0.78-3.85,1.34-7.75,1.67-11.67c0.37-3.97,0.48-8,0.48-12.04c0-2.02,0-4.03,0-6.05c0-2.02-0.18-4.1-0.3-5.9L193.29,154.02z"/>
		<path class="st13" d="M189.64,138.02c5.75,3.75,3.8,36.45,3.8,36.45l-13.54,2.72c0,0-0.12-16.67-1.57-27.49
			C177.35,142.34,185.53,135.33,189.64,138.02z"/>
		<path class="st8" d="M143.28,501.49c-0.33-0.44-0.43-1.01-0.28-1.53c0.06-0.39,0.32-0.72,0.68-0.88c1.67-0.72,5.47,1.87,5.9,2.15
			c0.1,0.07,0.15,0.2,0.12,0.32c-0.03,0.13-0.13,0.23-0.25,0.27c-1.75,0.42-4.87,0.95-6.04-0.18L143.28,501.49z M148.59,501.35
			c-1.67-0.98-3.83-2.1-4.69-1.67c-0.16,0.07-0.27,0.23-0.28,0.4c-0.12,0.39-0.03,0.82,0.25,1.12c0.63,0.57,2.37,0.63,4.72,0.18
			V501.35z"/>
		<path class="st8" d="M147.65,500.3c-0.95-0.96-1.49-2.25-1.48-3.6c0.15-0.51,0.61-0.86,1.13-0.88c0.47-0.07,0.95,0.07,1.3,0.4
			c1.35,1.27,1.12,5.1,1.1,5.27c0,0.12-0.07,0.22-0.17,0.28c-0.1,0.05-0.22,0.05-0.32,0C148.62,501.37,148.1,500.87,147.65,500.3z
			 M148.29,496.84c-0.04-0.05-0.08-0.09-0.13-0.13c-0.22-0.21-0.52-0.31-0.82-0.27c-0.42,0-0.5,0.23-0.55,0.38
			c-0.25,0.92,1.12,3.07,2.32,4.07C149.21,499.49,148.93,498.08,148.29,496.84L148.29,496.84z"/>
		<path class="st2" d="M168.43,214.48l0.58,5c0.13,0.38-0.37,0.73-0.98,0.67l-55.02-4.87c-0.48,0-0.85-0.32-0.83-0.62l0.32-4.87
			c0-0.33,0.48-0.58,1-0.53l54.17,4.8C167.97,214.06,168.26,214.22,168.43,214.48z"/>
		<path class="st8" d="M160.16,219.95l1.45,0.12c0.3,0,0.53-0.1,0.55-0.28l0.33-6.32c0-0.18-0.22-0.37-0.5-0.38l-1.47-0.13
			c-0.28,0-0.53,0.1-0.55,0.28l-0.33,6.34C159.64,219.75,159.87,219.92,160.16,219.95z"/>
		<path class="st26" d="M160.16,219.95l1.45,0.12c0.3,0,0.53-0.1,0.55-0.28l0.33-6.32c0-0.18-0.22-0.37-0.5-0.38l-1.47-0.13
			c-0.28,0-0.53,0.1-0.55,0.28l-0.33,6.34C159.64,219.75,159.87,219.92,160.16,219.95z"/>
		<path class="st8" d="M116.96,216.11l1.45,0.13c0.3,0,0.53-0.1,0.55-0.28l0.33-6.34c0-0.18-0.22-0.35-0.5-0.38l-1.45-0.12
			c-0.3,0-0.53,0.1-0.55,0.28l-0.33,6.32C116.44,215.91,116.67,216.1,116.96,216.11z"/>
		<path class="st26" d="M116.96,216.11l1.45,0.13c0.3,0,0.53-0.1,0.55-0.28l0.33-6.34c0-0.18-0.22-0.35-0.5-0.38l-1.45-0.12
			c-0.3,0-0.53,0.1-0.55,0.28l-0.33,6.32C116.44,215.91,116.67,216.1,116.96,216.11z"/>
		<path class="st8" d="M138.57,218.03l1.45,0.13c0.28,0,0.53-0.12,0.53-0.3l0.35-6.32c0-0.18-0.22-0.35-0.52-0.38l-1.45-0.13
			c-0.28,0-0.53,0.12-0.53,0.3l-0.35,6.32C138.05,217.83,138.28,217.95,138.57,218.03z"/>
		<path class="st26" d="M138.57,218.03l1.45,0.13c0.28,0,0.53-0.12,0.53-0.3l0.35-6.32c0-0.18-0.22-0.35-0.52-0.38l-1.45-0.13
			c-0.28,0-0.53,0.12-0.53,0.3l-0.35,6.32C138.05,217.83,138.28,217.95,138.57,218.03z"/>
		<path class="st13" d="M132.6,193.12L124.26,182l-3.47,13.34c0,0,6.2,5.42,11.47,3.33L132.6,193.12z"/>
		<polygon class="st13" points="113.59,179.55 111.27,190.8 122.53,196.56 124.31,182 		"/>
	</g>
</g>
</svg>
