<?xml version="1.0" encoding="utf-8"?>
<!-- Generator: Adobe Illustrator 24.2.0, SVG Export Plug-In . SVG Version: 6.00 Build 0)  -->
<svg version="1.1" id="Capa_1" xmlns="http://www.w3.org/2000/svg" xmlns:xlink="http://www.w3.org/1999/xlink" x="0px" y="0px"
	 viewBox="0 0 2005 935" style="enable-background:new 0 0 2005 935;" xml:space="preserve">
<style type="text/css">
	.st0{fill:#FFF4EB;}
	.st1{fill:#F6F4F4;}
	.st2{fill:#F0ECEC;stroke:#052333;stroke-miterlimit:10;}
	.st3{fill:#FCFBFB;}
	.st4{fill:#FFFFFF;}
	.st5{fill:#F0ECEC;}
	.st6{fill:none;stroke:#052333;stroke-miterlimit:10;}
	.st7{fill:#FFC69B;}
	.st8{fill:#5B5B5B;}
	.st9{fill:#8F98B2;}
	.st10{opacity:0.41;}
	.st11{opacity:0.23;}
	.st12{fill:#052333;}
	.st13{opacity:0.45;}
	.st14{fill:#F5C5CE;}
	.st15{fill:#E2AAB7;}
	.st16{opacity:0.31;}
	.st17{fill:#111844;}
	.st18{fill:#F27131;}
	.st19{fill:none;stroke:#052333;stroke-width:1.0576;stroke-miterlimit:10;}
	.st20{fill:#F5F5F5;}
	.st21{opacity:0.95;fill:#FFFFFF;enable-background:new    ;}
	.st22{fill:#BCC1D1;}
	.st23{opacity:0.5;fill:#FFFFFF;enable-background:new    ;}
	.st24{fill:#FFC3BD;}
	.st25{fill:#263238;}
	.st26{opacity:0.2;enable-background:new    ;}
	.st27{opacity:0.6;enable-background:new    ;}
	.st28{fill:none;stroke:#8F98B2;stroke-width:1.26;stroke-miterlimit:10;}
	.st29{display:none;}
	.st30{display:inline;fill:#8F98B2;}
	.st31{font-family:'Rubik-Light';}
	.st32{font-size:87px;}
	.st33{fill:#EBEBEB;}
	.st34{fill:#E6E6E6;}
	.st35{fill:#F0F0F0;}
	.st36{opacity:0.2;}
	.st37{opacity:0.3;}
	.st38{opacity:0.7;fill:#FFFFFF;enable-background:new    ;}
	.st39{fill:#BF9574;}
	.st40{fill:#FAFAFA;}
	.st41{opacity:0.1;enable-background:new    ;}
	.st42{opacity:0.1;}
	.st43{fill:#455A64;}
	.st44{fill:#A36957;}
</style>
<g>
	<path class="st0" d="M845.74,936l649.34,2.47c0,0,14.81-176.53-85.18-171.59c-99.99,4.94-138.26-176.53-230.85-207.39
		c-92.59-30.86-38.27,72.83-154.31,137.03s-169.12,35.8-160.48,117.28S845.74,936,845.74,936z"/>
</g>
<path class="st1" d="M851.41,1c0,0,58.59,243.36,291.8,315.46s172.38,209.56,77.74,304.2S1151.41,935,1151.41,935h920.18V1H851.41z"
	/>
<text transform="matrix(1 0 0 1 129.8721 403.2393)" class="st29"><tspan x="0" y="0" class="st30 st31 st32">¡Opa! pasó algo, </tspan><tspan x="0" y="94" class="st30 st31 st32">volvamos a empezar.</tspan></text>
<g id="freepik--background-complete--inject-33">
	<rect x="932.66" y="794.96" class="st33" width="858.15" height="0.43"/>
	<path class="st33" d="M1339.43,718.41h-331.4c-5.41-0.01-9.78-4.39-9.78-9.8V242.75c0.05-5.37,4.41-9.71,9.78-9.71h331.4
		c5.41,0,9.8,4.39,9.8,9.8c0,0,0,0,0,0v465.77C1349.23,714.02,1344.84,718.41,1339.43,718.41z M1008.02,233.38
		c-5.17,0.01-9.35,4.2-9.35,9.37v465.86c0,5.17,4.19,9.36,9.35,9.37h331.4c5.17-0.01,9.36-4.2,9.37-9.37V242.75
		c-0.01-5.17-4.2-9.36-9.37-9.37H1008.02z"/>
	<path class="st33" d="M1710.68,718.41h-331.42c-5.41-0.01-9.79-4.39-9.8-9.8V242.75c0.06-5.37,4.42-9.71,9.8-9.71h331.42
		c5.37,0.02,9.72,4.35,9.77,9.71v465.86C1720.45,714.01,1716.08,718.39,1710.68,718.41z M1379.26,233.38
		c-5.17,0.01-9.36,4.2-9.37,9.37v465.86c0.01,5.17,4.2,9.36,9.37,9.37h331.42c5.17-0.01,9.36-4.2,9.37-9.37V242.75
		c-0.01-5.17-4.2-9.36-9.37-9.37H1379.26z"/>
	<rect x="1650.64" y="811.3" class="st33" width="54.18" height="0.43"/>
	<rect x="1450.87" y="806.65" class="st33" width="57.34" height="0.43"/>
	<rect x="1613.33" y="827.24" class="st33" width="107.15" height="0.43"/>
	<rect x="1022.7" y="824.36" class="st33" width="33" height="0.43"/>
	<rect x="1071" y="824.36" class="st33" width="51.99" height="0.43"/>
	<rect x="1258.04" y="817.12" class="st33" width="93.64" height="0.43"/>
	<polygon class="st4" points="1399.94,341.39 1302.15,439.2 1302.15,764.94 1645.39,764.94 1645.39,341.39 	"/>
	<path class="st22" d="M1645.39,765.87h-343.26c-0.51,0-0.93-0.41-0.93-0.93l0,0V439.2c0-0.25,0.1-0.48,0.27-0.65l97.83-97.83
		c0.18-0.17,0.41-0.27,0.65-0.27h245.43c0.51,0,0.93,0.41,0.93,0.93l0,0v423.57C1646.32,765.45,1645.9,765.87,1645.39,765.87
		C1645.39,765.87,1645.39,765.87,1645.39,765.87z M1303.07,764.03h341.39V342.32h-244.13l-97.26,97.26V764.03z"/>
	<polygon class="st34" points="1302.15,439.2 1404.77,452.44 1399.94,341.39 	"/>
	<polygon class="st4" points="1302.15,439.2 1399.94,439.2 1399.94,341.39 	"/>
	<path class="st22" d="M1399.94,440.11h-97.83c-0.37,0-0.71-0.22-0.86-0.57c-0.15-0.34-0.06-0.74,0.21-1l97.83-97.83
		c0.27-0.26,0.66-0.34,1.01-0.21c0.34,0.15,0.56,0.49,0.57,0.86v97.83C1400.86,439.71,1400.45,440.11,1399.94,440.11z
		 M1304.38,438.28h94.65v-94.65L1304.38,438.28z"/>
	<path class="st35" d="M1493.62,580.06l58.35-58.35c5.48-5.48,5.48-14.37,0-19.86c-5.48-5.48-14.37-5.48-19.86,0l0,0l-58.35,58.35
		l-58.35-58.35c-5.48-5.48-14.37-5.48-19.86,0c-5.48,5.48-5.48,14.37,0,19.86l0,0l58.35,58.35l-58.35,58.35
		c-5.48,5.48-5.48,14.37,0,19.86s14.37,5.48,19.86,0l58.35-58.35l58.35,58.35c5.48,5.48,14.37,5.48,19.86,0s5.48-14.37,0-19.86
		L1493.62,580.06z"/>
	<path class="st35" d="M1315.4,531.68L1315.4,531.68c-6.86,6.85-17.96,6.85-24.82,0l-56.31-56.33l24.82-24.82l56.31,56.4
		C1322.2,513.78,1322.2,524.83,1315.4,531.68z"/>
	<path class="st22" d="M1234.26,475.46l24.82-24.82l0,0l2.29,2.29c4.95,4.95,4.95,12.98,0,17.94l-6.88,6.88
		c-4.95,4.95-12.98,4.95-17.94,0L1234.26,475.46L1234.26,475.46z"/>
	<path class="st22" d="M1078.05,294.33c-47.56,47.61-47.53,124.77,0.09,172.33c47.61,47.56,124.77,47.53,172.33-0.09
		c47.53-47.58,47.53-124.67,0-172.25c-47.56-47.61-124.72-47.65-172.33-0.09C1078.11,294.27,1078.08,294.3,1078.05,294.33z
		 M1243.43,459.71c-43.72,43.72-114.61,43.72-158.33,0s-43.72-114.61,0-158.33c43.72-43.72,114.61-43.72,158.33,0
		C1287.15,345.1,1287.15,415.99,1243.43,459.71C1243.43,459.71,1243.43,459.71,1243.43,459.71z"/>
	<path class="st22" d="M1228.31,448.69c-2.26-0.01-4.08-1.84-4.07-4.09c0-1.08,0.43-2.11,1.19-2.87
		c33.72-33.82,33.72-88.54,0-122.36c-1.69-1.5-1.84-4.08-0.34-5.77c1.5-1.69,4.08-1.84,5.77-0.34c0.12,0.11,0.23,0.22,0.34,0.34
		c36.91,36.99,36.91,96.88,0,133.87C1230.43,448.25,1229.4,448.69,1228.31,448.69z"/>
	<path class="st22" d="M1076.11,405.58c-1.89,0-3.53-1.3-3.96-3.14c-6-25.41-1.28-52.17,13.04-73.99c1.24-1.9,3.79-2.43,5.68-1.18
		s2.43,3.79,1.18,5.68l0,0c-13.12,19.94-17.46,44.39-12.01,67.62c0.53,2.17-0.8,4.37-2.97,4.9c-0.02,0-0.03,0.01-0.05,0.01
		C1076.72,405.54,1076.42,405.58,1076.11,405.58z"/>
	<path class="st22" d="M1100.21,448.69c-1.08,0-2.12-0.43-2.88-1.2c-7.35-7.32-13.44-15.81-18.02-25.13c-1-2.02-0.17-4.46,1.85-5.46
		c2.02-1,4.46-0.17,5.46,1.85l0,0c4.2,8.5,9.77,16.26,16.48,22.96c1.59,1.59,1.59,4.17,0,5.77
		C1102.32,448.25,1101.29,448.69,1100.21,448.69z"/>
	<path class="st35" d="M1294.86,688.56l16.04,16.04l0,0l-37.26,37.26c-3.97,3.97-10.4,3.97-14.37,0c0,0,0,0,0,0l-1.69-1.69
		c-3.97-3.97-3.97-10.4,0-14.37l0,0l37.26-37.26l0,0L1294.86,688.56z"/>
	<path class="st22" d="M1294.88,688.59l16.02,16.02l0,0l-0.76,0.76c-3.6,3.6-9.43,3.6-13.03,0l-3.01-3.01c-3.6-3.6-3.6-9.43,0-13.03
		l0.76-0.76L1294.88,688.59z"/>
	<path class="st35" d="M1420.69,601.53l-37.59,37.57c-8.88,9.52-8.37,24.45,1.15,33.33c9.07,8.46,23.14,8.45,32.19-0.02l15.21-15.19
		C1434.86,637.94,1430.97,618.16,1420.69,601.53z"/>
	<path class="st22" d="M1434.85,637.78c-3.01-43.44-40.66-76.22-84.1-73.22c-43.44,3.01-76.22,40.66-73.22,84.1
		c3.01,43.44,40.66,76.22,84.1,73.22c0.01,0,0.02,0,0.03,0C1405.1,718.85,1437.86,681.21,1434.85,637.78z M1283.97,648.28
		c-2.78-39.89,27.31-74.47,67.19-77.25c39.89-2.78,74.47,27.31,77.25,67.19c2.78,39.89-27.31,74.47-67.19,77.25c0,0-0.01,0-0.01,0
		C1321.32,718.25,1286.75,688.16,1283.97,648.28z"/>
	<path class="st22" d="M1316.05,689.42c-12.27-10.63-19.8-25.72-20.92-41.91c-0.16-1.45,0.88-2.76,2.33-2.92
		c1.45-0.16,2.76,0.88,2.92,2.33c0.01,0.07,0.01,0.15,0.02,0.23c2.19,30.77,28.84,53.98,59.62,51.92c1.45-0.1,2.71,1,2.81,2.45
		c0.1,1.45-1,2.71-2.45,2.81C1344.21,705.44,1328.26,700.08,1316.05,689.42z"/>
	<path class="st22" d="M1410.89,629.51c-0.39-0.34-0.67-0.79-0.81-1.29c-4.18-14.85-14.27-27.32-27.92-34.5
		c-1.27-0.73-1.7-2.34-0.97-3.61c0.68-1.19,2.17-1.66,3.41-1.08c14.94,7.86,25.99,21.51,30.57,37.76c0.39,1.4-0.42,2.85-1.82,3.24
		c-0.01,0-0.01,0-0.02,0.01C1412.48,630.27,1411.57,630.07,1410.89,629.51z"/>
	<path class="st22" d="M1350.39,586.82c-0.52-0.47-0.84-1.12-0.89-1.82c-0.1-1.45,0.99-2.7,2.44-2.81
		c6.69-0.47,13.42,0.17,19.91,1.87c1.42,0.37,2.27,1.83,1.9,3.25c-0.37,1.42-1.83,2.27-3.25,1.9c-5.92-1.57-12.06-2.15-18.18-1.72
		C1351.61,587.53,1350.92,587.29,1350.39,586.82z"/>
</g>
<g id="freepik--character-1--inject-33">
	<path class="st25" d="M1169.2,389.02c-13.83,13.92,9.68,35.53-5.85,45.45c12.68,6.37,57.14,14.45,68.65-10.59
		c-8.39-6.52-2.56-22.55-10.3-37.95C1210.12,363.1,1155.37,373.21,1169.2,389.02z"/>
	<path class="st25" d="M1170.46,388.66c-4.31-0.72-18.88,6.52-8.03,25.97c8.74,15.72,1.46,16.84,1.46,16.84s8.58,0.24,3.43-11.45
		C1161.86,407.54,1159.3,394.6,1170.46,388.66z"/>
	<path class="st24" d="M1272.49,512.13c-1.1-2.02-3.62-2.78-5.66-1.72l-1.01,0.53c-0.33,0.17-0.94,0.58-1.44,0.88
		c-0.5,0.29-1.08,0.62-1.63,0.89c-1.08,0.54-2.2,1.01-3.35,1.41c-2.12,0.77-4.35,1.19-6.61,1.25c-2.07,0.02-4.13-0.31-6.09-0.98
		c-1.25-0.46-2.45-1.04-3.59-1.72c-1.48-3.26-2.88-6.56-4.08-9.95c-1.46-3.96-2.75-8.02-3.88-12.12c-1.13-4.1-2.13-8.26-2.95-12.43
		c-0.43-2.08-0.81-4.17-1.15-6.25l-0.46-3.11c-0.15-1-0.29-2.13-0.38-2.92v-0.34c-0.47-4.74-4.7-8.2-9.44-7.72
		c-4.74,0.47-8.2,4.7-7.72,9.44c0.12,1.46,0.22,2.57,0.38,3.79c0.15,1.22,0.33,2.39,0.5,3.57c0.38,2.37,0.81,4.7,1.29,7.04
		c0.95,4.64,2.16,9.22,3.6,13.73c0.67,2.27,1.49,4.5,2.27,6.75c0.77,2.25,1.72,4.45,2.69,6.62c1.87,4.4,4,8.7,6.37,12.86l0.21,0.38
		c0.62,1.12,1.54,2.03,2.66,2.64c3.24,1.77,6.75,3.01,10.38,3.67c3.73,0.66,7.56,0.58,11.26-0.24c5.22-1.21,10.02-3.82,13.88-7.53
		c0.64-0.58,1.24-1.18,1.72-1.82c0.48-0.64,1.06-1.24,1.72-2.13C1272.98,515.34,1273.19,513.6,1272.49,512.13z"/>
	<path class="st24" d="M1283.9,496.06h-0.5c-3.33-0.07-6.5,1.41-8.58,4.02l-8.29,10.4v7.11c6.66,2.64,15.1-4.48,15.1-4.48l4.27-1.08
		c2.98-0.74,4.91-3.62,4.48-6.66l-0.62-4.17C1289.36,498.27,1286.86,496.09,1283.9,496.06z"/>
	<path class="st12" d="M1229.98,455.95c5.54,5.7,5.89,22.71,5.89,22.71l-22.17,17.85c0,0-9.11-25.23-4.07-34.14
		C1213.9,454.82,1222.91,448.69,1229.98,455.95z"/>
	<g class="st36">
		<path class="st4" d="M1229.98,455.95c5.54,5.7,5.89,22.71,5.89,22.71l-22.17,17.85c0,0-9.11-25.23-4.07-34.14
			C1213.9,454.82,1222.91,448.69,1229.98,455.95z"/>
	</g>
	<polygon class="st24" points="1193.28,838.33 1205.54,839.67 1207.22,806.37 1194.96,805.02 	"/>
	<path class="st25" d="M1207.54,831.67h-14.4c-0.6-0.02-1.11,0.44-1.15,1.05l-0.96,13.61c0,1.48,1.18,2.69,2.66,2.73
		c6.08,0,6.14,0,13.73,0h20.44c6.28,0,6.3-6.37,3.59-6.95c-12.2-2.57-16.96-6.14-21.27-9.54
		C1209.43,831.98,1208.5,831.66,1207.54,831.67z"/>
	<polygon class="st26" points="1207.22,806.39 1206.34,823.55 1194.02,823.55 1194.96,805.03 	"/>
	<path class="st25" d="M1213.83,540.72c0,0,10.61,88.78,10.61,128.26c-8.36,54.92-15.45,151.31-15.45,151.31l-16.96-0.45
		c0,0-7.71-104.97-0.57-150.3c-9.15-40.61-20.44-134.32-20.44-134.32L1213.83,540.72z"/>
	<path class="st26" d="M1181.13,565.44c-2.02,0.89-3.98,1.91-5.87,3.05c2.33,17.52,5.41,39.58,8.67,59.93
		C1189.49,611.67,1186.49,574.84,1181.13,565.44z"/>
	<polygon class="st24" points="1060.58,807.42 1070.69,814.47 1088.12,786.05 1078.02,779 	"/>
	<path class="st25" d="M1073.24,810.75l-8.58-11.55c-0.34-0.49-1.01-0.62-1.51-0.29l-11.5,7.38c-1.19,0.88-1.46,2.55-0.6,3.76
		c3.59,4.89,3.66,4.93,8.17,11c2.8,3.72,8.38,11.22,12.22,16.39c3.84,5.17,8.87,1.25,7.71-1.29c-5.15-11.31-5.15-17.16-5.05-22.72
		C1074.12,812.46,1073.82,811.52,1073.24,810.75z"/>
	<polygon class="st26" points="1088.11,786.05 1079.13,800.71 1068.3,794.8 1078.02,779 	"/>
	<path class="st12" d="M1122.59,819.33c-8.77,0-27.03,0-27.34-12.91c-0.24-10.13,12.29-14.33,23.1-14.85
		c5.04-0.24,9.32,3.64,9.56,8.68c0,0,0,0,0,0v0.69c12.25-0.58,20.18-3.26,23.08-7.83c6.54-10.3-5.99-36.88-18.09-62.58
		c-14.25-30.22-30.38-64.46-30.69-97.26c-0.05-5.04,4-9.17,9.04-9.22c0,0,0,0,0,0l0,0c5.01,0.01,9.07,4.04,9.13,9.04
		c0.27,28.8,15.45,61.12,28.94,89.64c15.45,32.92,28.92,61.36,16.99,80.15C1159.4,813.96,1145.07,819.33,1122.59,819.33z"/>
	<path class="st25" d="M1200.25,538.97c0,0-29.28,101.47-43.58,138.27c-27.7,48.16-73.66,121.86-73.66,121.86l-14.67-8.58
		c0,0,34.33-85.13,57.41-124.78c6.2-41.19,29.62-132.6,29.62-132.6L1200.25,538.97z"/>
	<path class="st12" d="M1075.89,819.04c0.58,0.96,1.48,1.7,2.54,2.08c0.63,0.15,1.3-0.07,1.72-0.57c0.29-0.27,0.43-0.66,0.38-1.05
		c-0.21-2.06-5.53-4.74-6.59-5.25c-0.13-0.05-0.28,0-0.34,0.12c-0.08,0.13-0.08,0.3,0,0.43
		C1074.22,816.28,1074.99,817.7,1075.89,819.04z M1079.54,819.04c0.15,0.19,0.25,0.41,0.29,0.65c0.02,0.14-0.03,0.27-0.14,0.36
		c-0.28,0.32-0.71,0.47-1.13,0.38c-1.13-0.22-2.63-2.06-4.07-4.96c1.87,0.87,3.58,2.06,5.05,3.5V819.04z"/>
	<path class="st12" d="M1073.5,814.87l0.1,0.09c1.72,0.94,6.18,1.72,7.16,0.29c0.34-0.53,0.3-1.22-0.09-1.72
		c-1.72-3.04-6.87,0.53-7.09,0.69c-0.1,0.08-0.16,0.21-0.15,0.34C1073.43,814.67,1073.45,814.77,1073.5,814.87z M1080.02,813.87
		c0.05,0.06,0.1,0.12,0.14,0.19c0.19,0.33,0.22,0.57,0.12,0.7c-0.57,0.82-3.86,0.53-5.78-0.22
		C1075.78,813.77,1078.79,812.21,1080.02,813.87z"/>
	<path class="st12" d="M1215.85,834.5c1.12,0.1,2.25-0.18,3.19-0.81c0.49-0.43,0.69-1.09,0.53-1.72c-0.05-0.39-0.28-0.74-0.62-0.94
		c-1.72-1.05-7.09,1.61-8.14,2.16c-0.12,0.07-0.18,0.21-0.14,0.34c0.05,0.15,0.18,0.26,0.33,0.29
		C1212.6,834.22,1214.22,834.44,1215.85,834.5z M1217.98,831.53c0.24-0.02,0.49,0.04,0.7,0.15c0.09,0,0.17,0.12,0.21,0.33
		c0.09,0.42-0.05,0.85-0.38,1.13c-0.84,0.77-3.21,0.88-6.4,0.31c1.8-0.97,3.76-1.62,5.78-1.92H1217.98z"/>
	<path class="st12" d="M1211.01,833.92h0.12c1.72-0.79,5.06-3.93,4.51-5.56c-0.23-0.55-0.77-0.91-1.37-0.91
		c-3.43-0.39-3.67,5.82-3.69,6.08c0,0.14,0.07,0.27,0.19,0.34C1210.84,833.91,1210.93,833.93,1211.01,833.92z M1214.1,828.08h0.24
		c0.36,0,0.58,0.15,0.64,0.33c0.33,0.94-1.87,3.43-3.64,4.51c0.15-1.49,0.7-4.84,2.8-4.84H1214.1z"/>
	<path class="st12" d="M1155.37,533.22l58.46,7.48c13.18-44.38,17.52-65.82,18.69-76.14c0.64-5.35-2.62-10.39-7.76-12.01
		c-3.43-1.1-7.86-2.4-12.25-3.43c-1.49-0.39-3.02-0.76-4.51-1.1c-8.75-1.78-17.62-2.92-26.53-3.43c-1.32-0.12-2.63-0.19-3.95-0.26
		c-2.59-0.14-5.15-0.17-7.48-0.17c-6.97-0.01-12.62,5.63-12.63,12.6c0,0.38,0.02,0.75,0.05,1.13c0.46,5.15,0.82,9.94,1.1,14.33
		c0.65,10.3,0.86,18.54,0.7,25.74C1158.9,509.8,1157.6,521.59,1155.37,533.22z"/>
	<g class="st37">
		<path class="st4" d="M1155.37,533.22l58.46,7.48c13.18-44.38,17.52-65.82,18.69-76.14c0.64-5.35-2.62-10.39-7.76-12.01
			c-3.43-1.1-7.86-2.4-12.25-3.43c-1.49-0.39-3.02-0.76-4.51-1.1c-8.75-1.78-17.62-2.92-26.53-3.43c-1.32-0.12-2.63-0.19-3.95-0.26
			c-2.59-0.14-5.15-0.17-7.48-0.17c-6.97-0.01-12.62,5.63-12.63,12.6c0,0.38,0.02,0.75,0.05,1.13c0.46,5.15,0.82,9.94,1.1,14.33
			c0.65,10.3,0.86,18.54,0.7,25.74C1158.9,509.8,1157.6,521.59,1155.37,533.22z"/>
	</g>
	<path class="st12" d="M1159.21,497.9c7.72-9.99,10.52-21.42,8.02-27.72l-8.72,1.96C1159.21,482.4,1159.4,490.67,1159.21,497.9z"/>
	<path class="st4" d="M1212.51,449.02c-1.51-0.39-3.02-0.76-4.51-1.1c-8.76-1.77-17.63-2.91-26.55-3.43
		c-1.32-0.1-2.63-0.17-3.93-0.24l-2.28-0.1l1.72,3c0.24,0.41,6.08,9.95,20.6,20.22l3.11,2.16l2.99-2.28
		c5.83-4.18,9.33-10.89,9.41-18.07L1212.51,449.02z"/>
	<path class="st24" d="M1187.89,426.85c-0.55,7.23-2.25,14.59-6.45,17.68c0,0,5.35,8.91,19.22,18.64
		c8.68-6.64,7.33-15.24,7.33-15.24c-9.23-3.43-8.58-9.83-4.69-20.05l-7.21-3.88c-1.75-1.93-4.74-2.08-6.67-0.32
		C1188.53,424.49,1187.98,425.63,1187.89,426.85z"/>
	<path class="st26" d="M1196.1,424c-1.75-1.93-4.73-2.08-6.67-0.33c-0.74,0.67-1.25,1.55-1.45,2.53
		c2.74,5.52,7.15,10.03,12.61,12.89c0.2-3.87,1.11-7.67,2.69-11.21L1196.1,424z"/>
	<path class="st24" d="M1176.67,404.19c3.59,13.95,4.81,19.93,13.34,25.74c12.82,8.82,29.18,1.37,29.81-13.35
		c0.6-13.27-5.35-33.86-20.25-36.81c-10.63-2.17-21.02,4.68-23.19,15.32C1175.76,398.1,1175.86,401.22,1176.67,404.19z"/>
	<path class="st25" d="M1212.18,382.65c-8.4,7.47-18.37,12.97-29.18,16.08c0,0,10.66,22.67-9.29,16.96
		c-5.78-19.31,0-29.33,5.15-34.05C1194.72,376.49,1205.88,374.77,1212.18,382.65z"/>
	<path class="st24" d="M1176,417.94c1.17,2.53,3.29,4.49,5.9,5.46c3.43,1.24,5.47-1.72,4.74-5.15c-0.67-3.07-3.28-7.43-6.87-7.21
		c-2.6,0.22-4.52,2.51-4.3,5.1C1175.53,416.77,1175.71,417.38,1176,417.94z"/>
	<path class="st12" d="M1154.94,529.69l-3.31,4.89c-0.26,0.38,0.17,0.86,0.84,0.94l61.31,7.86c0.53,0,1-0.14,1.08-0.46l1.2-5.15
		c0-0.36-0.34-0.72-0.91-0.81l-59.21-7.59C1155.57,529.29,1155.19,529.41,1154.94,529.69z"/>
	<path class="st25" d="M1162.03,537.32l-1.58-0.21c-0.31,0-0.53-0.24-0.48-0.43l1.61-6.71c0.13-0.23,0.4-0.35,0.65-0.27l1.6,0.21
		c0.31,0,0.53,0.22,0.48,0.43l-1.61,6.69C1162.65,537.24,1162.35,537.36,1162.03,537.32z"/>
	<path class="st25" d="M1209.24,543.36l-1.58-0.19c-0.31,0-0.53-0.24-0.48-0.45l1.61-6.69c0-0.19,0.34-0.33,0.65-0.29l1.6,0.21
		c0.31,0,0.53,0.24,0.48,0.43l-1.61,6.71C1209.86,543.28,1209.57,543.42,1209.24,543.36z"/>
	<path class="st25" d="M1185.64,540.34l-1.58-0.21c-0.33,0-0.55-0.22-0.5-0.43l1.61-6.69c0-0.21,0.34-0.33,0.67-0.29l1.58,0.21
		c0.31,0,0.53,0.24,0.5,0.43l-1.63,6.71C1186.26,540.26,1185.95,540.38,1185.64,540.34z"/>
	<path class="st25" d="M1217.41,391.35l0.09-0.09c0.22-0.31,0.14-0.74-0.17-0.96c0,0,0,0-0.01,0c-1.8-1.29-4.11-1.64-6.21-0.93
		c-0.34,0.15-0.51,0.54-0.38,0.89c0.14,0.35,0.54,0.52,0.89,0.38c1.67-0.55,3.5-0.25,4.91,0.79
		C1216.81,391.63,1217.18,391.6,1217.41,391.35z"/>
	<path class="st12" d="M1111.35,642.33c-5.01,0-9.08-4.04-9.13-9.04c-0.24-24.37,7.88-44.95,23.48-59.5
		c19.21-17.92,49.15-26.24,84.37-23.46c24.7,1.96,40.54-4.05,58.87-11.04c3.02-1.13,6.06-2.3,9.18-3.43
		c4.74-1.73,9.98,0.72,11.71,5.46s-0.72,9.98-5.46,11.71l0,0c-3.04,1.1-5.99,2.23-8.92,3.35c-18.69,7.11-38,14.43-66.82,12.17
		c-30.04-2.39-55.06,4.22-70.47,18.6c-12.01,11.12-17.87,26.59-17.68,45.98c0.05,5.04-4,9.17-9.04,9.22c0,0,0,0,0,0L1111.35,642.33z
		"/>
	<path class="st12" d="M1322.51,565.9l-36.73,13.45c-6.38,2.34-13.45-0.94-15.79-7.32l-15.17-41.4c-2.34-6.38,0.94-13.45,7.32-15.79
		l36.73-13.45l0,0l23.62,64.46L1322.51,565.9z"/>
	<path class="st38" d="M1322.51,565.9l-36.73,13.45c-6.38,2.34-13.45-0.94-15.79-7.32l-15.17-41.4c-2.34-6.38,0.94-13.45,7.32-15.79
		l36.73-13.45l0,0l23.62,64.46L1322.51,565.9z"/>
	<path class="st12" d="M1282.51,507.37l16.39-5.99l23.62,64.5l-16.39,6.01c-1.09-1.06-1.92-2.35-2.44-3.78l-20.6-56.28
		C1282.56,510.41,1282.36,508.89,1282.51,507.37z"/>
	
		<rect x="1336.01" y="517.4" transform="matrix(0.939 -0.344 0.344 0.939 -98.3602 491.7905)" class="st12" width="1.72" height="11.43"/>
	<path class="st12" d="M1331.62,511.36l-5.78-15.82c-2.03-5.5-7.27-9.15-13.13-9.15c-1.63,0-3.24,0.28-4.77,0.84l-10.44,3.83
		l-0.6-1.61l10.45-3.83c1.72-0.63,3.53-0.95,5.35-0.94c6.58,0.02,12.46,4.12,14.74,10.3l5.78,15.82L1331.62,511.36z"/>
	<path class="st12" d="M1338.12,564.98l-15.33,5.54c-5.01,1.81-10.54-0.78-12.35-5.79l-20.8-57.52c-1.81-5.01,0.78-10.54,5.79-12.35
		l15.33-5.54c5.01-1.81,10.54,0.78,12.35,5.79l20.8,57.52C1345.72,557.64,1343.13,563.17,1338.12,564.98z"/>
	<path class="st4" d="M1314.02,512.57c0.98,2.67-0.4,5.63-3.07,6.6c-2.67,0.98-5.63-0.4-6.6-3.07s0.4-5.63,3.07-6.6
		c0,0,0.01,0,0.01,0C1310.1,508.53,1313.05,509.91,1314.02,512.57z"/>
	<path class="st4" d="M1326.85,547.57c0.97,2.67-0.4,5.63-3.07,6.6c-2.67,0.97-5.63-0.4-6.6-3.07c-0.97-2.67,0.4-5.62,3.07-6.6
		C1322.91,543.52,1325.87,544.89,1326.85,547.57C1326.84,547.57,1326.84,547.57,1326.85,547.57z"/>
	<path class="st24" d="M1176.38,543.43l-0.14-0.15c-2.68-2.68-5.51-5.6-8.07-8.58s-5.06-5.97-7.35-9.06
		c-2.24-3.01-4.27-6.17-6.09-9.46c-1.3-2.35-2.41-4.8-3.31-7.33c1.03-3.43,2.13-6.87,3.43-10.16c1.49-3.96,3.18-7.86,5.01-11.71
		c1.84-3.84,3.79-7.62,5.9-11.31c1.03-1.85,2.11-3.69,3.23-5.49l1.72-2.64c0.53-0.86,1.17-1.72,1.61-2.45l0.19-0.27
		c2.6-3.96,1.49-9.28-2.47-11.88c-3.77-2.47-8.81-1.61-11.54,1.98c-0.86,1.17-1.51,2.09-2.2,3.11c-0.69,1.01-1.3,2.03-1.96,3.04
		c-1.25,2.03-2.47,4.07-3.64,6.14c-2.32,4.14-4.42,8.41-6.3,12.77c-0.96,2.16-1.72,4.38-2.69,6.59s-1.63,4.46-2.32,6.76
		c-1.46,4.56-2.65,9.19-3.59,13.88v0.39c-0.27,1.25-0.18,2.55,0.26,3.76c1.66,4.4,3.87,8.58,6.57,12.43
		c2.54,3.66,5.38,7.1,8.48,10.3c3.02,3.08,6.22,5.98,9.59,8.67c3.37,2.69,6.91,5.16,10.59,7.4c2.03,1.19,4.64,0.5,5.82-1.53
		c0.98-1.67,0.7-3.8-0.67-5.17L1176.38,543.43z"/>
	<path class="st24" d="M1196.32,551.96l-0.22-0.45c-1.44-3.02-4.22-5.18-7.5-5.84l-13.03-2.64l-6.37,3.18
		c0.69,7.14,10.88,11.41,10.88,11.41l2.9,3.31c2.03,2.3,5.46,2.71,7.96,0.94l3.43-2.45
		C1196.76,557.75,1197.58,554.59,1196.32,551.96z"/>
	<path class="st12" d="M1164.69,445.26c-7.23,3.31-14.91,14.78-14.91,14.78l15.45,28.92c0,0,17.56-20.24,16.08-30.36
		C1180.1,450,1173.89,441.04,1164.69,445.26z"/>
	<g class="st37">
		<path class="st4" d="M1164.69,445.26c-7.23,3.31-14.91,14.78-14.91,14.78l15.45,28.92c0,0,17.56-20.24,16.08-30.36
			C1180.1,450,1173.89,441.04,1164.69,445.26z"/>
	</g>
</g>
<g id="freepik--character-2--inject-33">
	<path class="st12" d="M1659.16,824.19c-15.12,0-29.98-3.11-37.19-12.51c-34.12-44.62-33.81-134.39-33.52-221.25
		c0.17-46.77,3.86-90.96-1.34-125.29c-3.06-20.24-13.73-34.12-24.51-41.29c-16-10.57-37.96-4.89-47.35-2.47
		c-4.86,1.36-9.89-1.48-11.25-6.34c-1.36-4.86,1.48-9.89,6.34-11.25c0.12-0.03,0.23-0.06,0.35-0.09
		c11.72-3.04,39.22-10.13,61.98,4.91c15.36,10.14,28.65,28.25,32.51,53.81c5.41,35.7,1.72,80.55,1.54,128.02
		c-0.29,83.81-0.58,170.46,29.76,210.09c2.45,3.19,12.01,6.06,27.89,5.23c1.41,0,2.78-0.15,4.14-0.27c-0.61-1.24-0.93-2.61-0.93-4
		c0-5.04,4.09-9.13,9.13-9.13l0,0c19.96,0,30.46,1.72,32.49,10.85c0.58,2.63,0.89,9.22-8.75,13.73
		C1693.22,820.31,1676.03,824.19,1659.16,824.19z"/>
	<polygon class="st24" points="1459.34,832.06 1440.72,824.74 1450.54,792.45 1469.18,799.76 	"/>
	<path class="st25" d="M1440.28,822.76l21.01,8.24c0.55,0.22,0.87,0.79,0.79,1.37l-2.06,13.08c-0.2,1.17-1.31,1.95-2.47,1.76
		c-0.15-0.03-0.3-0.07-0.44-0.13c-5.27-2.18-13.52-5.78-20.2-8.41c-4.1-1.61-11.91-4.19-17.59-6.42c-5.68-2.23-4.2-8.14-1.72-7.72
		c11.31,1.82,15.64-0.12,20.15-1.8C1438.56,822.41,1439.46,822.43,1440.28,822.76z"/>
	<polygon class="st26" points="1469.18,799.78 1450.54,792.45 1445.48,809.1 1464.12,816.43 	"/>
	<path class="st8" d="M1492.47,549.89c0,0-16.85,83.31-23.29,124.4c-7.24,46.05-26.38,130.16-26.38,130.16l24.77,9.73
		c0,0,35.37-86.12,40.3-127.83c14.85-33.9,44.37-133.65,44.37-133.65L1492.47,549.89z"/>
	<polygon class="st25" points="1441.6,804.59 1468.78,815.28 1473.43,807.04 1443.04,794.44 	"/>
	<path class="st12" d="M1434.94,823.12c-0.95-0.3-1.77-0.9-2.33-1.72c-0.32-0.61-0.32-1.34,0-1.96c0.14-0.38,0.49-0.65,0.89-0.69
		c1.8-0.19,5.15,4.2,5.47,4.72c0.08,0.11,0.08,0.26,0,0.38c-0.07,0.12-0.21,0.18-0.34,0.15
		C1437.37,823.85,1436.13,823.55,1434.94,823.12z M1434.03,819.54c-0.14-0.07-0.29-0.1-0.45-0.09c-0.1,0-0.22,0-0.34,0.29
		c-0.23,0.42-0.23,0.92,0,1.34c0.5,0.91,2.21,1.72,4.7,2.13C1436.9,821.73,1435.57,820.49,1434.03,819.54z"/>
	<path class="st12" d="M1438.59,824c-0.06-0.02-0.1-0.05-0.14-0.1c-1.1-1.3-2.64-5.34-1.72-6.73c0.29-0.44,0.86-0.62,1.36-0.43
		c0.52,0.13,0.95,0.47,1.2,0.94c1.06,1.91-0.14,5.92-0.19,6.09c-0.04,0.12-0.15,0.22-0.27,0.24
		C1438.76,824.05,1438.67,824.05,1438.59,824z M1438.01,817.44h-0.14c-0.45-0.1-0.55,0-0.6,0.15c-0.51,0.82,0.33,3.74,1.3,5.34
		c0.49-1.59,0.49-3.29,0-4.87C1438.47,817.79,1438.27,817.57,1438.01,817.44z"/>
	<path class="st26" d="M1528.8,600.33c-9.34,11.57-13.03,41.05-12.99,65.63c6.3-17.35,13.52-39.39,19.87-59.4L1528.8,600.33z"/>
	<polygon class="st24" points="1571.42,835.17 1551.41,835.17 1548.75,801.53 1568.76,801.53 	"/>
	<path class="st25" d="M1550.27,833.49h22.57c0.6,0,1.11,0.41,1.24,1l2.87,12.91c0.25,1.16-0.49,2.3-1.65,2.54
		c-0.16,0.03-0.32,0.05-0.48,0.05c-5.7-0.1-14.67-0.45-21.85-0.45c-4.43,0-12.63,0.46-18.72,0.46c-6.09,0-6.87-6.02-4.41-6.57
		c11.21-2.45,14.54-5.82,18.11-9.04C1548.58,833.81,1549.41,833.49,1550.27,833.49z"/>
	<polygon class="st26" points="1568.76,801.53 1548.73,801.53 1550.12,818.88 1570.15,818.88 	"/>
	<path class="st8" d="M1516.7,550.93c0,0,11.09,92.83,13.42,126.25c3.24,46.51,15.79,138.33,15.79,138.33h26.6
		c0,0,2.85-93.78-1.96-135.5c6.62-36.4,4.53-126.29,4.53-126.29L1516.7,550.93z"/>
	<polygon class="st25" points="1544.85,816.09 1574.06,816.09 1575.38,806.73 1542.48,806.11 	"/>
	<path class="st12" d="M1545.38,835.77c-0.99,0.07-1.97-0.19-2.8-0.74c-0.52-0.46-0.79-1.13-0.72-1.82c0-0.41,0.23-0.79,0.6-0.98
		c1.61-0.82,6.3,2.06,6.87,2.39c0.12,0.07,0.19,0.2,0.17,0.34c-0.03,0.14-0.14,0.25-0.27,0.29
		C1547.97,835.57,1546.68,835.75,1545.38,835.77z M1543.22,832.77c-0.15-0.01-0.31,0.02-0.45,0.09c-0.09,0-0.19,0.14-0.21,0.39
		c-0.07,0.47,0.1,0.94,0.46,1.25c0.79,0.67,2.69,0.76,5.15,0.26c-1.49-0.97-3.16-1.65-4.91-1.99H1543.22z"/>
	<path class="st12" d="M1549.16,835.26h-0.17c-1.49-0.82-4.41-4-4.1-5.63c0.11-0.52,0.57-0.9,1.1-0.89
		c0.53-0.07,1.06,0.08,1.46,0.43c1.72,1.39,2.04,5.58,2.06,5.75c0.01,0.13-0.05,0.25-0.15,0.33
		C1549.29,835.26,1549.22,835.27,1549.16,835.26z M1546.22,829.37h-0.15c-0.45,0-0.48,0.27-0.5,0.36c-0.19,0.94,1.72,3.43,3.16,4.5
		c-0.1-1.66-0.7-3.25-1.72-4.57C1546.79,829.48,1546.51,829.38,1546.22,829.37L1546.22,829.37z"/>
	<path class="st24" d="M1525.89,422.91L1525.89,422.91l-16.03-0.21c-5.39,0-10.74-0.17-16.05-0.26c-1.61,0-3.19-0.1-4.79-0.17
		c0.1,0,0.17-0.19,0.26-0.27c1.13-1.2,2.27-2.44,3.43-3.62c0.58-0.62,1.16-1.22,1.72-1.8c0.53-0.58,1.22-1.24,1.58-1.72l1.46-1.85
		c3.02-3.86,2.35-9.43-1.51-12.46c-2.2-1.73-5.09-2.31-7.79-1.58l-3.18,0.86c-0.98,0.29-1.96,0.62-2.93,0.94
		c-1.92,0.67-3.81,1.41-5.68,2.21c-3.77,1.66-7.41,3.6-10.9,5.8c-3.61,2.31-7.03,4.91-10.21,7.77c-3.37,3.07-6.43,6.46-9.11,10.14
		c-0.68,0.92-1.25,1.91-1.72,2.95c-3.32,7.61,0.15,16.46,7.76,19.79l1.56,0.69c3.53,1.52,7.18,2.72,10.92,3.6
		c3.26,0.84,6.35,1.39,9.39,1.91s6.01,0.93,8.96,1.29s5.87,0.64,8.79,0.88c5.82,0.51,11.59,0.77,17.33,0.94s11.38,0.17,17.35-0.1
		c9.87-0.42,17.53-8.76,17.11-18.63c-0.41-9.5-8.18-17.03-17.69-17.12L1525.89,422.91z"/>
	<path class="st25" d="M1535.22,454.24c-13.85,15.79-47.18,9.89-47.18,9.89l1.84-39.34c11.43-2.51,23.08-3.87,34.77-4.03
		C1544.22,420.72,1546.31,441.57,1535.22,454.24z"/>
	<path class="st39" d="M1498.25,442.14c-0.82,6.35-1.72,14.9-2.25,26.4c-7.23,36.56-9.92,62.46-3.54,81.35
		c5.05,6.23,70.8,5.03,82.62,3.83c6.87-16.99,7.59-65.77,8.39-106.77c0.21-11.68-8.14-21.75-19.65-23.72
		c-14.8-2.62-29.89-3.13-44.83-1.51C1508.21,422.94,1499.65,431.37,1498.25,442.14z"/>
	<path class="st26" d="M1562.05,467.09c0.22,12.49,9.29,32.46,19.48,42.58c0.62-10.56,1.01-22,1.32-33.55L1562.05,467.09z"/>
	<path class="st24" d="M1619.34,491.38l-0.58-1.37c-2.4-5.72-5.2-11.27-8.39-16.6c-3.06-5.15-6.35-10.01-9.77-14.69
		c-3.42-4.69-7.04-9.17-10.74-13.52c-1.89-2.16-3.76-4.33-5.73-6.42l-2.97-3.12l-3.16-3.19c-7.03-6.94-18.35-6.87-25.29,0.16
		c-6.64,6.73-6.9,17.46-0.59,24.5l0.51,0.57l10.07,11.21c3.43,3.81,6.71,7.69,9.97,11.55c1.58,1.94,3.21,3.88,4.69,5.85
		c1.48,1.97,3.04,3.88,4.51,5.84c2.13,2.97,4.19,5.92,6.02,8.82c-0.28,1.46-0.64,2.91-1.06,4.34c-1.23,4.16-2.68,8.25-4.34,12.25
		c-1.72,4.24-3.54,8.58-5.42,12.86c-1.89,4.27-3.91,8.74-5.72,13.03l-0.17,0.38c-1.92,4.6,0.26,9.89,4.86,11.81
		c3.24,1.35,6.97,0.7,9.56-1.66c3.79-3.51,7.38-7.22,10.76-11.12c3.43-3.86,6.65-7.92,9.66-12.19c1.53-2.15,2.99-4.38,4.43-6.69
		c1.5-2.36,2.87-4.79,4.1-7.29c1.39-2.73,2.59-5.55,3.6-8.44c1.32-3.7,2.06-7.59,2.2-11.52
		C1620.39,494.87,1620.05,493.06,1619.34,491.38z"/>
	<path class="st39" d="M1565,423.45c23.15,3.96,38.24,35.3,38.24,35.3l-27.91,30.02c0,0-16.08-16.37-25.74-31.55
		C1539.17,440.71,1548.42,420.63,1565,423.45z"/>
	<path class="st25" d="M1522.71,374.03c-3.88-6.5-5.15-15.45,1.96-24.56c-2.83,0.35-5.6-0.99-7.07-3.43
		c7.78-6.37,17.56-9.77,27.62-9.61c20.77,0,22.31,8.02,21.61,13.49c14.21,0.91,24.58,37.86-11.45,44.4
		C1534.76,372.61,1522.71,374.03,1522.71,374.03z"/>
	<path class="st25" d="M1565.51,350.59c0,0,5.78-5.9-1.41-13.04c3.28,0.9,5.85,3.45,6.76,6.73
		C1571.88,348.43,1569.08,351.76,1565.51,350.59z"/>
	<path class="st24" d="M1557.55,389.81c-0.55,11.38-1.58,24.32,0.33,33.4c-2.95,4.65-10.5,10.01-24.03,11.21
		c-4.81-2.73-11.16-9.41-8.94-12.84c5.75-3.69,8.19-14.86,6.54-23.22L1557.55,389.81z"/>
	<path class="st26" d="M1550.96,391.95l-19.55,6.4c0.66,3.56,0.69,7.21,0.09,10.78c5.84-0.19,13.92-4.58,16.96-8.7
		C1550.46,398.09,1551.37,395.01,1550.96,391.95z"/>
	<path class="st24" d="M1563.25,371.79c-3.62,13.95-5.03,22.31-13.58,28.16c-12.86,8.8-29.02-1.06-29.66-15.81
		c-0.55-13.28,5.46-33.88,20.39-36.81c10.65-2.14,21.02,4.77,23.15,15.42C1564.16,365.74,1564.05,368.84,1563.25,371.79z"/>
	<path class="st25" d="M1560.37,351.81c-6.13,4.36-13.73,22.83,1.72,30.24C1575.95,369.86,1572.36,351.81,1560.37,351.81z"/>
	<path class="st25" d="M1563.9,354.02c2.63-12.15-28.04-18.43-37.76-4.24C1522.85,358.33,1562.05,365.88,1563.9,354.02z"/>
	<path class="st24" d="M1566.6,387.04c-2.49,2.64-5.92,4.19-9.54,4.31c-4.81,0.1-6.02-4.48-3.71-8.39
		c2.09-3.43,7.11-7.83,11.46-6.08S1569.62,383.77,1566.6,387.04z"/>
	<path class="st24" d="M1579.45,542.94l-14.74-0.1l7.62,16.92c0,0,12.58-2.69,11.89-9.53L1579.45,542.94z"/>
	<path class="st24" d="M1557.21,554.45l2.42,4.77c1.35,2.63,4.48,3.81,7.23,2.71l5.47-2.18l-7.62-16.92l-5.85,4.46
		C1556.64,548.97,1555.95,551.98,1557.21,554.45z"/>
	<path class="st12" d="M1467.22,530.48c-5.05-0.05-9.11-4.19-9.05-9.24c0.02-2.31,0.92-4.53,2.51-6.21
		c6.56-6.76,12.48-12.01,17.7-16.6c12.6-11.1,16.94-15.45,16.53-23.77c-0.62-5.14-1.71-10.2-3.26-15.14
		c-3.76-13.82-8.02-29.45-0.72-42c3.91-6.75,10.56-11.36,19.75-13.73c4.91-1.16,9.83,1.87,10.99,6.78c1.13,4.77-1.71,9.58-6.43,10.9
		c-6.47,1.72-8.03,4.34-8.58,5.23c-3.43,5.92-0.12,18.18,2.56,28.01c1.94,6.2,3.24,12.59,3.88,19.05
		c0.86,17.59-9.53,26.76-22.69,38.36c-4.96,4.39-10.61,9.37-16.68,15.62C1472.01,529.5,1469.67,530.48,1467.22,530.48z"/>
	<path class="st24" d="M1487.25,399.35l14.28-3.66l-3.33,18.26c0,0-12.86,0.39-13.82-6.38L1487.25,399.35z"/>
	<path class="st24" d="M1511.55,405.37l-1.1,4.77c-0.7,3.02-3.59,5.01-6.66,4.58l-5.6-0.77l3.33-18.26l6.56,2.83
		C1510.75,399.67,1512.2,402.55,1511.55,405.37z"/>
	<path class="st25" d="M1461.73,500.06l0.39,0.39c1.74,1.74,1.74,4.55,0,6.29l-50.61,50.63c-1.74,1.74-4.55,1.74-6.29,0l-0.39-0.39
		c-1.74-1.74-1.74-4.55,0-6.29l50.61-50.63C1457.18,498.32,1459.99,498.32,1461.73,500.06z"/>
	<path class="st25" d="M1488.11,526.4l0.39,0.39c1.74,1.74,1.74,4.55,0,6.29l-50.62,50.62c-1.74,1.74-4.55,1.74-6.29,0l-0.39-0.39
		c-1.74-1.74-1.74-4.55,0-6.29l50.62-50.62C1483.56,524.66,1486.37,524.66,1488.11,526.4z"/>
	<path class="st12" d="M1420.8,519.29l35.67-35.67c4.81-4.81,12.6-4.81,17.4,0c0,0,0,0,0,0l31.18,31.18c4.81,4.81,4.81,12.6,0,17.4
		l0,0l-35.67,35.67l0,0L1420.8,519.29L1420.8,519.29z"/>
	<path class="st38" d="M1420.8,519.29l35.67-35.67c4.81-4.81,12.6-4.81,17.4,0c0,0,0,0,0,0l31.18,31.18c4.81,4.81,4.81,12.6,0,17.4
		l0,0l-35.67,35.67l0,0L1420.8,519.29L1420.8,519.29z"/>
	<path class="st12" d="M1433.1,506.89l-12.36,12.34l48.59,48.59l12.34-12.36c-0.49-1.44-1.31-2.74-2.39-3.81l-42.38-42.29
		C1435.85,508.26,1434.55,507.41,1433.1,506.89z"/>
	<path class="st12" d="M1417.78,513.9l0.89-0.89c3.77-3.77,9.87-3.77,13.64,0l43.27,43.27c3.77,3.77,3.77,9.87,0,13.64l-0.89,0.89
		c-3.77,3.77-9.87,3.77-13.64,0l-43.27-43.27C1414.01,523.77,1414.01,517.66,1417.78,513.9z"/>
</g>
</svg>
