<?xml version="1.0" encoding="utf-8"?>
<!-- Generator: Adobe Illustrator 24.2.0, SVG Export Plug-In . SVG Version: 6.00 Build 0)  -->
<svg version="1.1" id="Capa_1" xmlns="http://www.w3.org/2000/svg" xmlns:xlink="http://www.w3.org/1999/xlink" x="0px" y="0px"
	 viewBox="0 0 2005 935" style="enable-background:new 0 0 2005 935;" xml:space="preserve">
<style type="text/css">
	.st0{fill:#FFF4EB;}
	.st1{fill:#F6F4F4;}
	.st2{fill:#F0ECEC;stroke:#052333;stroke-miterlimit:10;}
	.st3{fill:#FCFBFB;}
	.st4{fill:#FFFFFF;}
	.st5{fill:#F0ECEC;}
	.st6{fill:none;stroke:#052333;stroke-miterlimit:10;}
	.st7{fill:#FFC69B;}
	.st8{fill:#5B5B5B;}
	.st9{fill:#8F98B2;}
	.st10{opacity:0.41;}
	.st11{opacity:0.23;}
	.st12{fill:#052333;}
	.st13{opacity:0.45;}
	.st14{fill:#F5C5CE;}
	.st15{fill:#E2AAB7;}
	.st16{opacity:0.31;}
	.st17{fill:#111844;}
	.st18{fill:#F27131;}
	.st19{fill:none;stroke:#052333;stroke-width:1.0576;stroke-miterlimit:10;}
	.st20{fill:#F5F5F5;}
	.st21{opacity:0.95;fill:#FFFFFF;enable-background:new    ;}
	.st22{fill:#BCC1D1;}
	.st23{opacity:0.5;fill:#FFFFFF;enable-background:new    ;}
	.st24{fill:#FFC3BD;}
	.st25{fill:#263238;}
	.st26{opacity:0.2;enable-background:new    ;}
	.st27{opacity:0.6;enable-background:new    ;}
	.st28{fill:none;stroke:#8F98B2;stroke-width:1.26;stroke-miterlimit:10;}
	.st29{fill:#EBEBEB;}
	.st30{fill:#E6E6E6;}
	.st31{fill:#F0F0F0;}
	.st32{opacity:0.2;}
	.st33{opacity:0.3;}
	.st34{opacity:0.7;fill:#FFFFFF;enable-background:new    ;}
	.st35{fill:#BF9574;}
	.st36{display:none;}
	.st37{display:inline;fill:#8F98B2;}
	.st38{font-family:'Rubik-Light';}
	.st39{font-size:87px;}
	.st40{fill:#FAFAFA;}
	.st41{opacity:0.1;enable-background:new    ;}
	.st42{opacity:0.1;}
	.st43{fill:#455A64;}
	.st44{fill:#A36957;}
</style>
<text transform="matrix(1 0 0 1 129.8721 403.2393)" class="st36"><tspan x="0" y="0" class="st37 st38 st39">Recibimos tu mensaje, </tspan><tspan x="0" y="94" class="st37 st38 st39">esperá nuestra respuesta</tspan><tspan x="0" y="188" class="st37 st38 st39">a la brevedad.</tspan></text>
<path class="st1" d="M851.41,1c0,0,58.59,243.36,291.8,315.46s172.38,209.56,77.74,304.2S1151.41,935,1151.41,935h920.18V1H851.41z"
	/>
<g id="freepik--background-complete--inject-108">
	<path class="st29" d="M1553.49,202.26l-216.85,98.24l389.32,96.78L1581.2,209.21C1574.71,200.73,1563.22,197.85,1553.49,202.26z"/>
	<path class="st22" d="M1334.17,300.81l218.99-99.2c10.05-4.63,21.97-1.66,28.68,7.13l146.18,189.88L1334.17,300.81z M1563.01,201
		c-3.17-0.01-6.31,0.66-9.2,1.96l-214.73,97.33l384.84,95.67l-143.36-186.31l0,0c-4.16-5.49-10.66-8.72-17.55-8.73V201z"/>
	<path class="st31" d="M1725.97,397.29l-52.64,211.74c-2.17,8.73-11.01,14.05-19.74,11.88l-359.07-89.26
		c-8.73-2.17-14.05-11.01-11.88-19.74l52.64-211.74l0,0L1725.97,397.29L1725.97,397.29z"/>
	<path class="st4" d="M1384.16,211.72c0-0.01,0.01-0.03,0.01-0.04c2.92-11.72,14.79-18.85,26.51-15.93l295.94,73.56
		c11.6,2.89,18.74,14.54,16.04,26.19L1699.26,404l-204.57,46.05l-135.35-138.28L1384.16,211.72z"/>
	<path class="st22" d="M1493.41,434.44l-210.17,74.14l-0.33,1.34c-2.38,9.6,3.46,19.31,13.06,21.7l356.31,88.58c0,0,0.01,0,0.01,0
		c9.6,2.39,19.32-3.46,21.71-13.07l0,0l-160.73-167.95C1508.16,433.83,1500.38,431.97,1493.41,434.44z"/>
	
		<rect x="1614.95" y="245.99" transform="matrix(0.2414 -0.9704 0.9704 0.2414 933.0946 1804.9449)" class="st22" width="12.18" height="119.3"/>
	
		<rect x="1535.96" y="186.48" transform="matrix(0.2414 -0.9704 0.9704 0.2414 860.9811 1739.0676)" class="st22" width="13.76" height="264.7"/>
	
		<rect x="1527.84" y="219.11" transform="matrix(0.2414 -0.9704 0.9704 0.2414 823.153 1755.9352)" class="st22" width="13.76" height="264.7"/>
	<polygon class="st22" points="1398.31,351.58 1399.42,347.16 1655.47,410.85 1654.41,413.9 1626.23,420.49 1410.59,364.12 
		1402.54,356.07 	"/>
	<polygon class="st22" points="1439.36,393.51 1584.55,429.63 1554.85,436.41 1457.7,412.26 	"/>
	<path class="st40" d="M1519.62,445.7l1.22,1.2l4.56,4.68l16.73,17.35c14.07,14.8,33.56,34.99,55.13,57.38
		c21.56,22.39,41.23,42.51,55.54,57l16.99,17.14l4.56,4.67l1.19,1.23c0.14,0.13,0.27,0.28,0.38,0.44c-0.16-0.11-0.31-0.24-0.44-0.38
		l-1.25-1.17l-4.7-4.56c-4.08-3.97-9.95-9.78-17.15-16.97c-14.42-14.39-34.19-34.46-55.71-56.83
		c-21.52-22.37-40.95-42.78-54.98-57.55l-16.56-17.53l-4.47-4.79l-1.16-1.26c-0.26-0.29-0.36-0.46-0.36-0.46
		S1519.29,445.42,1519.62,445.7z"/>
	<path class="st40" d="M1383.06,473c55.2-19.4,100.02-34.95,100.1-34.73s-44.62,16.12-99.82,35.53
		c-55.2,19.4-100.02,34.96-100.1,34.75C1283.16,508.31,1327.86,492.41,1383.06,473z"/>
	<path class="st40" d="M1353.25,305.49l0.99,1l3.73,3.89l13.61,14.4c11.5,12.17,27.4,28.86,45.17,47.2
		c17.76,18.34,33.99,34.8,45.79,46.67l13.96,14.05l3.79,3.83l0.96,1.02c0.12,0.11,0.22,0.24,0.32,0.36
		c-0.02,0.02-0.14-0.09-0.38-0.3l-1.02-0.96l-3.89-3.73l-14.16-13.87c-11.89-11.77-28.29-28.15-46.05-46.5
		c-17.76-18.36-33.61-35.18-44.98-47.45l-13.43-14.58l-3.6-4l-0.85-1.05c-0.11-0.12-0.2-0.24-0.29-0.38
		C1353.04,305.22,1353.15,305.35,1353.25,305.49z"/>
	<path class="st40" d="M1519.66,445.11l1.52-0.44l5.96-1.63c5.19-1.41,12.73-3.32,22.07-5.6c18.66-4.58,44.56-10.37,73.22-16.58
		s54.58-11.91,73.27-16.33c9.35-2.21,16.91-4.03,22.13-5.34l6.08-1.52l1.52-0.35l0.53-0.11c-0.16,0.08-0.34,0.14-0.52,0.18
		l-1.52,0.44l-5.98,1.63c-5.19,1.4-12.73,3.32-22.07,5.6c-18.66,4.58-44.57,10.37-73.22,16.58c-28.65,6.2-54.58,11.91-73.27,16.33
		c-9.35,2.19-16.91,4.03-22.11,5.34l-6.08,1.52l-1.52,0.36c-0.17,0.05-0.35,0.08-0.53,0.09L1519.66,445.11z"/>
	<path class="st22" d="M1359.5,310.28c0.23-0.99,0.58-2.43,1.03-4.33c0.93-3.82,2.3-9.41,4.05-16.62l15.06-61.12
		c0.81-3.22,1.61-6.52,2.45-9.9c0.43-1.69,0.84-3.41,1.26-5.12c0.21-0.87,0.43-1.73,0.7-2.6c0.25-0.88,0.56-1.74,0.94-2.57
		c1.52-3.46,3.89-6.47,6.9-8.74c4.78-3.61,10.81-5.14,16.73-4.26c2.01,0.35,3.92,0.87,5.89,1.35l11.94,2.95l24.93,6.17l111.02,27.56
		l111.02,27.62l24.97,6.17l6.08,1.52c2.01,0.42,3.98,1.02,5.89,1.79c1.87,0.79,3.62,1.86,5.19,3.16c1.56,1.26,2.94,2.73,4.09,4.36
		c1.13,1.61,2.06,3.36,2.75,5.2c0.65,1.82,1.07,3.72,1.25,5.64c0.46,3.85-0.61,7.56-1.34,11.06c-1.54,7.1-3.03,13.9-4.43,20.39
		c-5.66,25.94-10.23,46.96-13.41,61.5c-1.6,7.25-2.83,12.88-3.68,16.73c-0.43,1.89-0.75,3.32-0.97,4.33
		c-0.23,1.02-0.36,1.52-0.36,1.52s0.06-0.52,0.27-1.52c0.21-1,0.52-2.46,0.9-4.36c0.82-3.83,2.02-9.46,3.54-16.73
		c3.1-14.55,7.59-35.57,13.14-61.56c1.39-6.5,2.84-13.3,4.36-20.39c0.73-3.54,1.76-7.13,1.32-10.86c-0.19-1.86-0.6-3.7-1.23-5.46
		c-0.67-1.79-1.57-3.48-2.68-5.03c-2.28-3.2-5.4-5.72-9-7.28c-1.87-0.75-3.8-1.34-5.78-1.75l-6.08-1.52l-24.93-6.17l-111.02-27.56
		l-110.88-27.68l-24.96-6.16l-11.94-3.04c-1.96-0.47-3.91-1-5.82-1.34c-1.92-0.27-3.87-0.27-5.79,0
		c-7.54,0.89-14.04,5.7-17.11,12.64c-0.37,0.81-0.67,1.64-0.91,2.49c-0.27,0.84-0.49,1.7-0.7,2.57c-0.44,1.72-0.87,3.44-1.28,5.11
		c-0.84,3.38-1.67,6.68-2.48,9.9l-15.31,61.01c-1.82,7.19-3.24,12.77-4.21,16.59l-1.11,4.3c-0.26,1.02-0.41,1.52-0.41,1.52
		S1359.28,311.27,1359.5,310.28z"/>
</g>
<g id="freepik--Floor--inject-108">
	<path class="st25" d="M1513.72,788.2c169.67,0,307.19,0.18,307.19,0.43c0,0.24-137.54,0.41-307.19,0.41s-307.19-0.18-307.19-0.41
		C1206.53,788.41,1344.05,788.2,1513.72,788.2z"/>
</g>
<g id="freepik--mail-sent--inject-108">
	<polygon class="st7" points="1593.94,224.72 1565.05,260.4 1557.45,253.89 1543.68,264.82 1544.41,242.96 1529.37,231.5 	"/>
	<path class="st7" d="M1557.45,253.89l-13.76,10.93c0,0,6.39-16.55,6.39-17.22L1557.45,253.89z"/>
	<g class="st33">
		<path d="M1557.45,253.89l-13.76,10.93c0,0,6.39-16.55,6.39-17.22L1557.45,253.89z"/>
	</g>
	<polygon class="st7" points="1544.41,242.96 1543.68,264.82 1550.07,247.61 1593.94,224.72 	"/>
	<polygon class="st41" points="1544.41,242.96 1543.68,264.82 1550.07,247.61 1593.94,224.72 	"/>
	<path class="st25" d="M1480.09,517.88c-2.44,1.16-5.1,1.81-7.8,1.9C1474.73,518.62,1477.38,517.97,1480.09,517.88z"/>
	<path class="st25" d="M1462.06,521.85c1.29-0.32,2.39-0.4,2.43-0.17c0.05,0.23-0.96,0.68-2.24,0.99c-1.28,0.3-2.42,0.38-2.42,0.15
		C1459.78,522.59,1460.77,522.17,1462.06,521.85z"/>
	<path class="st25" d="M1514.96,260.54c1.3-0.44,2.67-0.57,4.03-0.4c-1.19,0.63-2.49,1.04-3.83,1.2c-1.28,0.43-2.62,0.64-3.97,0.62
		C1512.31,261.19,1513.6,260.7,1514.96,260.54z"/>
	<path class="st25" d="M1499.81,266c1.15-0.73,2.46-1.18,3.82-1.31c-2.2,1.54-4.61,2.75-7.16,3.59
		C1496.34,268.08,1497.82,267,1499.81,266z"/>
	<path class="st25" d="M1486.35,274.91c0.95-0.99,2.12-1.75,3.42-2.21c0.2,0.2-1.14,1.41-2.84,2.84c-1.7,1.43-3.06,2.57-3.22,2.4
		C1483.54,277.8,1484.69,276.37,1486.35,274.91z"/>
	<path class="st25" d="M1475.71,287c1.23-1.87,2.51-3.18,2.68-3.04c-0.46,1.27-1.13,2.45-1.98,3.5c-1.22,1.82-2.22,3.3-2.43,3.19
		C1474.25,289.31,1474.85,288.06,1475.71,287z"/>
	<path class="st25" d="M1469,301.64c0.25-1.35,0.81-2.62,1.63-3.71c-0.04,1.35-0.33,2.69-0.84,3.94c-0.23,1.33-0.69,2.61-1.34,3.79
		C1468.3,304.29,1468.49,302.91,1469,301.64z"/>
	<path class="st25" d="M1466.96,317.63c-0.15-1.36,0.01-2.73,0.47-4.01c0.36,1.3,0.48,2.66,0.36,4c0.16,1.34,0.1,2.69-0.17,4.01
		C1467.09,320.36,1466.87,318.99,1466.96,317.63z"/>
	<path class="st25" d="M1469.94,333.47c-0.6-1.23-0.88-2.6-0.81-3.97c0.7,1.14,1.21,2.39,1.52,3.7c0.58,1.21,0.96,2.51,1.13,3.85
		C1470.88,336.02,1470.25,334.8,1469.94,333.47z"/>
	<path class="st25" d="M1477.97,347.42c-1-0.94-1.74-2.12-2.17-3.42c0.2-0.17,1.35,1.23,2.8,2.87c1.44,1.64,2.63,2.98,2.48,3.16
		C1480.92,350.2,1479.45,349.12,1477.97,347.42z"/>
	<path class="st25" d="M1490.67,357.35c-1.27-0.52-2.4-1.34-3.28-2.39c1.3,0.34,2.54,0.9,3.67,1.64c1.25,0.5,2.41,1.2,3.44,2.07
		C1493.12,358.55,1491.81,358.1,1490.67,357.35z"/>
	<path class="st25" d="M1506.01,362.11c-1.37-0.03-2.71-0.4-3.91-1.08c1.34-0.13,2.7-0.04,4.01,0.26c1.36,0.03,2.7,0.28,3.97,0.75
		C1508.76,362.4,1507.36,362.43,1506.01,362.11z"/>
	<path class="st25" d="M1522.16,360.85c-1.27,0.53-2.65,0.72-4.01,0.55c2.46-1.01,5-1.79,7.6-2.33
		C1524.73,359.96,1523.5,360.58,1522.16,360.85z"/>
	<path class="st25" d="M1535.36,351.86c-1.31,1.87-2.8,3.01-2.97,2.78c-0.17-0.23,1.03-1.48,2.28-3.27s1.95-3.39,2.17-3.32
		C1536.81,349.46,1536.28,350.8,1535.36,351.86z"/>
	<path class="st25" d="M1533.98,336.94c1.93,1.37,2.6,3.19,2.39,3.32c-0.21,0.12-1.14-1.41-2.87-2.65
		c-1.73-1.23-3.39-1.76-3.39-2.01C1531.52,335.54,1532.91,336.02,1533.98,336.94z"/>
	<path class="st25" d="M1518.48,337.87c0.95-1.05,2.27-1.7,3.68-1.81c0.15,0.23-1.46,0.96-3.04,2.42c-1.58,1.46-2.55,2.95-2.77,2.83
		C1516.64,339.94,1517.39,338.73,1518.48,337.87z"/>
	<path class="st25" d="M1514.35,353.07c-0.41-1.33-0.41-2.75,0-4.08c0.38,1.28,0.63,2.59,0.75,3.92c0.38,1.27,0.63,2.58,0.75,3.91
		C1514.97,355.76,1514.45,354.45,1514.35,353.07z"/>
	<path class="st25" d="M1522.8,366.58c-1.72-1.4-2.71-2.89-2.6-3.04s1.49,1.06,3.15,2.48s3.04,2.55,2.9,2.75
		C1526.13,368.97,1524.52,367.98,1522.8,366.58z"/>
	<path class="st25" d="M1540.47,376.16c-2.63-0.6-5.12-1.74-7.28-3.35c1.35,0.16,2.65,0.6,3.82,1.29
		C1538.29,374.55,1539.47,375.25,1540.47,376.16L1540.47,376.16z"/>
	<path class="st25" d="M1551.14,381.73c-1.9-1.09-3.45-2.02-3.33-2.25c1.34,0.22,2.62,0.74,3.74,1.52c1.92,1.16,3.36,2.24,3.24,2.43
		C1553.46,383.12,1552.22,382.54,1551.14,381.73z"/>
	<path class="st25" d="M1563.88,391.31c-1.57-1.52-2.8-2.86-2.65-3.04c1.25,0.55,2.36,1.37,3.24,2.42c1.6,1.57,2.65,3.06,2.48,3.21
		C1566.71,394.04,1565.45,392.83,1563.88,391.31z"/>
	<path class="st25" d="M1573.72,403.75c-0.82-1.07-1.45-2.28-1.84-3.57c0.18-0.14,1.38,1.23,2.55,3.13c0.83,1.09,1.39,2.35,1.64,3.7
		C1575.86,407.11,1574.87,405.62,1573.72,403.75z"/>
	<path class="st25" d="M1581.92,421.89c-1.2-2.4-2.03-4.96-2.48-7.6c0.86,1.06,1.46,2.31,1.75,3.65c0.56,1.25,0.81,2.61,0.73,3.97
		V421.89z"/>
	<path class="st25" d="M1583.47,433.8c-0.23-1.33-0.23-2.69,0-4.01c0.91,2.57,1.1,5.33,0.55,8
		C1583.6,436.5,1583.41,435.15,1583.47,433.8z"/>
	<path class="st25" d="M1582.36,449.64c0.18-1.34,0.57-2.65,1.16-3.86c0.23,1.35,0.11,2.74-0.33,4.03
		c-0.15,1.35-0.58,2.66-1.26,3.83C1581.78,452.29,1581.94,450.93,1582.36,449.64z"/>
	<path class="st25" d="M1577.25,464.68c0.47-1.27,1.16-2.44,2.04-3.47c-0.12,1.36-0.56,2.68-1.29,3.83
		c-0.99,2.01-2.07,3.47-2.27,3.35C1576.01,467.08,1576.53,465.82,1577.25,464.68z"/>
	<path class="st25" d="M1568.52,477.96c1.43-1.67,2.63-3.01,2.83-2.86c-0.46,1.29-1.21,2.45-2.19,3.41
		c-1.52,1.7-2.89,2.86-3.04,2.71C1565.95,481.05,1567.09,479.63,1568.52,477.96z"/>
	<path class="st25" d="M1556.82,488.8c1.01-0.9,2.17-1.62,3.42-2.13c0.12,0.18-1.13,1.49-2.92,2.8c-1.02,0.91-2.24,1.58-3.56,1.93
		C1553.64,491.21,1555.06,490.1,1556.82,488.8z"/>
	<path class="st25" d="M1542.94,496.54c1.2-0.62,2.49-1.04,3.82-1.23c-0.99,0.95-2.19,1.64-3.51,2.01
		c-1.21,0.64-2.56,0.98-3.92,0.99C1540.42,497.53,1541.65,496.94,1542.94,496.54z"/>
	<path class="st25" d="M1531.27,499.92c0.08-0.02,0.11,0.15,0.21,0.38c0.11,0.23,0.08,0.43,0,0.44c-0.08,0.02-0.21-0.17-0.21-0.38
		C1531.23,500.13,1531.2,499.93,1531.27,499.92z"/>
	
		<rect x="1544.16" y="457.53" transform="matrix(0.9501 -0.312 0.312 0.9501 -66.9303 507.626)" class="st7" width="17.5" height="10.89"/>
	<g class="st33">
		<rect x="1544.16" y="457.53" transform="matrix(0.9501 -0.312 0.312 0.9501 -66.9303 507.626)" width="17.5" height="10.89"/>
	</g>
	<path class="st7" d="M1552.87,463.74l-0.47,0.14l0.27-0.36c2.08-2.98,4.38-5.8,6.89-8.43c-1.83,3.14-3.91,6.12-6.22,8.93
		l-0.29,0.36l-0.18,0.24l-0.29-0.11c-3.31-1.07-6.53-2.39-9.64-3.95C1546.33,461.35,1549.65,462.42,1552.87,463.74z"/>
	<g class="st42">
		<path d="M1552.87,463.74l-0.47,0.14l0.27-0.36c2.08-2.98,4.38-5.8,6.89-8.43c-1.83,3.14-3.91,6.12-6.22,8.93l-0.29,0.36
			l-0.18,0.24l-0.29-0.11c-3.31-1.07-6.53-2.39-9.64-3.95C1546.33,461.35,1549.65,462.42,1552.87,463.74z"/>
	</g>
	<path class="st7" d="M1559.06,463.06c1.44,0.56,2.77,1.36,3.92,2.39c-1.51-0.29-2.96-0.84-4.29-1.63
		c-1.44-0.55-2.76-1.36-3.91-2.39C1556.29,461.72,1557.74,462.27,1559.06,463.06z"/>
	<g class="st42">
		<path d="M1559.06,463.06c1.44,0.56,2.77,1.36,3.92,2.39c-1.51-0.29-2.96-0.84-4.29-1.63c-1.44-0.55-2.76-1.36-3.91-2.39
			C1556.29,461.72,1557.74,462.27,1559.06,463.06z"/>
	</g>
	<path class="st7" d="M1547.39,466.81c0.49-1.4,1.21-2.7,2.14-3.85c0.3-0.03-0.36,1.92-1.37,4.18c-0.48,1.4-1.2,2.7-2.13,3.85
		C1546.23,469.53,1546.69,468.11,1547.39,466.81z"/>
	<g class="st42">
		<path d="M1547.39,466.81c0.49-1.4,1.21-2.7,2.14-3.85c0.3-0.03-0.36,1.92-1.37,4.18c-0.48,1.4-1.2,2.7-2.13,3.85
			C1546.23,469.53,1546.69,468.11,1547.39,466.81z"/>
	</g>
	
		<rect x="1478.33" y="493.34" transform="matrix(0.9501 -0.312 0.312 0.9501 -83.3727 493.5937)" class="st7" width="45.01" height="28.01"/>
	<path class="st7" d="M1477.15,501.65l5.41,1.84c4.56,1.58,10.87,3.83,17.87,6.39l-0.47,0.14l0.71-0.93
		c4.67-6.16,8.93-11.71,12.04-15.69l3.73-4.7c0.45-0.6,0.96-1.15,1.52-1.66c-0.34,0.65-0.75,1.27-1.2,1.86l-3.57,4.85
		c-3,4.09-7.19,9.76-11.85,15.85l-0.71,0.94l-0.18,0.24l-0.29-0.11c-7.01-2.57-13.23-4.91-17.79-6.63l-5.32-2.08
		c-0.67-0.23-1.31-0.52-1.92-0.87C1475.82,501.21,1476.49,501.4,1477.15,501.65z"/>
	<g class="st32">
		<path d="M1477.15,501.65l5.41,1.84c4.56,1.58,10.87,3.83,17.87,6.39l-0.47,0.14l0.71-0.93c4.67-6.16,8.93-11.71,12.04-15.69
			l3.73-4.7c0.45-0.6,0.96-1.15,1.52-1.66c-0.34,0.65-0.75,1.27-1.2,1.86l-3.57,4.85c-3,4.09-7.19,9.76-11.85,15.85l-0.71,0.94
			l-0.18,0.24l-0.29-0.11c-7.01-2.57-13.23-4.91-17.79-6.63l-5.32-2.08c-0.67-0.23-1.31-0.52-1.92-0.87
			C1475.82,501.21,1476.49,501.4,1477.15,501.65z"/>
	</g>
	<path class="st7" d="M1516.28,508.12c3.58,1.59,7.04,3.44,10.36,5.54c-3.68-1.34-7.26-2.94-10.72-4.78
		c-3.58-1.6-7.05-3.44-10.37-5.52C1509.23,504.68,1512.82,506.27,1516.28,508.12z"/>
	<g class="st32">
		<path d="M1516.28,508.12c3.58,1.59,7.04,3.44,10.36,5.54c-3.68-1.34-7.26-2.94-10.72-4.78c-3.58-1.6-7.05-3.44-10.37-5.52
			C1509.23,504.68,1512.82,506.27,1516.28,508.12z"/>
	</g>
	<path class="st7" d="M1487.2,517.45c1.38-3.51,3.01-6.91,4.88-10.17c-1.11,3.6-2.48,7.11-4.11,10.51c-1.38,3.5-3.01,6.9-4.88,10.16
		C1484.2,524.35,1485.58,520.85,1487.2,517.45z"/>
	<g class="st32">
		<path d="M1487.2,517.45c1.38-3.51,3.01-6.91,4.88-10.17c-1.11,3.6-2.48,7.11-4.11,10.51c-1.38,3.5-3.01,6.9-4.88,10.16
			C1484.2,524.35,1485.58,520.85,1487.2,517.45z"/>
	</g>
	<path class="st25" d="M1515.54,493.59c-2.97-2.18-3.61-6.36-1.42-9.33c2.18-2.97,6.36-3.61,9.33-1.43
		c2.97,2.18,3.61,6.36,1.43,9.33S1518.52,495.77,1515.54,493.59C1515.55,493.59,1515.55,493.59,1515.54,493.59z"/>
	<path class="st4" d="M1519.94,489.35l1.06,0.61l-0.29,0.09c0.62-1.2,1.36-2.34,2.21-3.39c-0.49,1.26-1.11,2.46-1.82,3.6l-0.11,0.18
		l-0.2-0.11l-1.06-0.59c-1.57-0.79-3.07-1.72-4.49-2.77C1516.88,487.63,1518.45,488.42,1519.94,489.35z"/>
	
		<rect x="1504.26" y="461.15" transform="matrix(0.9501 -0.312 0.312 0.9501 -70.4913 496.4004)" class="st7" width="23.59" height="14.68"/>
	<g class="st32">
		<rect x="1504.26" y="461.15" transform="matrix(0.9501 -0.312 0.312 0.9501 -70.4913 496.4004)" width="23.59" height="14.68"/>
	</g>
	<path class="st7" d="M1503.64,465.6l2.83,0.96c2.4,0.82,5.7,2.01,9.37,3.35h-0.24l0.38-0.5c2.43-3.22,4.67-6.13,6.3-8.21l1.96-2.46
		c0.22-0.31,0.48-0.6,0.76-0.87c-0.18,0.34-0.39,0.67-0.62,0.97l-1.82,2.48c-1.66,2.14-3.77,5.08-6.22,8.3l-0.36,0.49l-0.09,0.14
		h-0.15c-3.68-1.34-6.97-2.57-9.32-3.47l-2.8-1.09c-0.34-0.12-0.68-0.27-0.99-0.46C1502.97,465.3,1503.31,465.43,1503.64,465.6z"/>
	<g class="st32">
		<path class="st7" d="M1503.64,465.6l2.83,0.96c2.4,0.82,5.7,2.01,9.37,3.35h-0.24l0.38-0.5c2.43-3.22,4.67-6.13,6.3-8.21
			l1.96-2.46c0.22-0.31,0.48-0.6,0.76-0.87c-0.18,0.34-0.39,0.67-0.62,0.97l-1.82,2.48c-1.66,2.14-3.77,5.08-6.22,8.3l-0.36,0.49
			l-0.09,0.14h-0.15c-3.68-1.34-6.97-2.57-9.32-3.47l-2.8-1.09c-0.34-0.12-0.68-0.27-0.99-0.46
			C1502.97,465.3,1503.31,465.43,1503.64,465.6z"/>
	</g>
	<path class="st7" d="M1524.16,468.9c1.88,0.83,3.69,1.8,5.43,2.9c-1.93-0.71-3.81-1.55-5.63-2.51c-1.87-0.84-3.69-1.81-5.43-2.89
		C1520.46,467.1,1522.34,467.93,1524.16,468.9z"/>
	<g class="st32">
		<path class="st7" d="M1524.16,468.9c1.88,0.83,3.69,1.8,5.43,2.9c-1.93-0.71-3.81-1.55-5.63-2.51c-1.87-0.84-3.69-1.81-5.43-2.89
			C1520.46,467.1,1522.34,467.93,1524.16,468.9z"/>
	</g>
	<path class="st7" d="M1506.77,479.28c1.29-3.72,2.87-7.34,4.71-10.83c-0.59,1.88-1.31,3.72-2.16,5.51
		C1508.61,475.79,1507.76,477.57,1506.77,479.28L1506.77,479.28z"/>
	<g class="st32">
		<path class="st7" d="M1506.77,479.28c1.29-3.72,2.87-7.34,4.71-10.83c-0.59,1.88-1.31,3.72-2.16,5.51
			C1508.61,475.79,1507.76,477.57,1506.77,479.28L1506.77,479.28z"/>
	</g>
	<path class="st25" d="M1744.08,290.68c-4.32,17-21.6,27.27-38.6,22.96c-17-4.32-27.27-21.6-22.96-38.6
		c4.32-16.99,21.59-27.27,38.59-22.96C1738.12,256.4,1748.39,273.68,1744.08,290.68z"/>
	<path class="st4" d="M1725.03,265.65c0.56,0.23-3.04,10.86-8.06,23.75c-0.75,1.87-1.52,3.67-2.14,5.43l-0.38,0.96l-0.96-0.36
		c-10.3-3.97-17.82-7.24-17.64-7.71c0.18-0.47,8,1.99,18.37,5.75l-1.34,0.61c0.67-1.76,1.37-3.57,2.08-5.44
		C1719.96,275.71,1724.48,265.48,1725.03,265.65z"/>
</g>
<g id="freepik--Plant--inject-108">
	<path class="st7" d="M1298.51,748.69c0.76,2.62,0.48,5.43-0.78,7.85c-1.35,2.42-4.14,3.66-6.84,3.04c-2.63-0.82-4.09-3.57-6.3-5.23
		c-3.86-2.9-9.22-1.99-14.05-1.99c-2.01,0.19-4.01-0.32-5.69-1.44c-2.59-2.14-2.17-6.52,0.09-9.02s5.72-3.47,9.03-4.01
		c6.16-1.23,12.56-0.45,18.25,2.22C1295.55,741.82,1297.87,745,1298.51,748.69z"/>
	<g class="st32">
		<path class="st4" d="M1298.51,748.69c0.76,2.62,0.48,5.43-0.78,7.85c-1.35,2.42-4.14,3.66-6.84,3.04
			c-2.63-0.82-4.09-3.57-6.3-5.23c-3.86-2.9-9.22-1.99-14.05-1.99c-2.01,0.19-4.01-0.32-5.69-1.44c-2.59-2.14-2.17-6.52,0.09-9.02
			s5.72-3.47,9.03-4.01c6.16-1.23,12.56-0.45,18.25,2.22C1295.55,741.82,1297.87,745,1298.51,748.69z"/>
	</g>
	<path class="st7" d="M1304.95,715.53c2.66-3.91,3.21-8.87,3.21-13.6c-0.05-10.16-2.36-20.19-6.77-29.35
		c-1.49-3.1-3.56-6.37-6.89-7.25c-2.91-0.59-5.92,0.41-7.89,2.63c-1.91,2.22-3.17,4.92-3.67,7.8c-1.99,9.52,0.71,19.33,3.41,28.68
		c1.17,4.09,2.48,8.38,5.54,11.34c3.06,2.97,9.66,4.58,13.06-0.27"/>
	<path class="st7" d="M1313.79,721.91c2.74,3.59,8.11,3.8,13.28,1.84c5.17-1.96,9.06-6.28,12.46-10.65
		c4.22-5.44,8-11.21,11.31-17.25c1.89-3.47,3.62-7.62,1.81-11.07c-1.39-2.31-3.82-3.78-6.51-3.94c-2.65-0.12-5.3,0.33-7.76,1.32
		c-6.34,2.22-12.19,5.65-17.23,10.1c-4.42,3.68-7.75,8.51-9.61,13.96c-1.64,5.49-0.94,11.88,2.74,16.26"/>
	<g class="st42">
		<path d="M1313.79,721.91c2.74,3.59,8.11,3.8,13.28,1.84c5.17-1.96,9.06-6.28,12.46-10.65c4.22-5.44,8-11.21,11.31-17.25
			c1.89-3.47,3.62-7.62,1.81-11.07c-1.39-2.31-3.82-3.78-6.51-3.94c-2.65-0.12-5.3,0.33-7.76,1.32c-6.34,2.22-12.19,5.65-17.23,10.1
			c-4.42,3.68-7.75,8.51-9.61,13.96c-1.64,5.49-0.94,11.88,2.74,16.26"/>
	</g>
	<path class="st25" d="M1305.23,786.52c-0.03-1.52-0.11-3.53-0.3-6.08c-0.21-3-0.6-5.98-1.17-8.93c-0.75-3.63-1.81-7.2-3.18-10.65
		c-1.36-3.46-3.22-6.7-5.52-9.61c-1.9-2.4-4.32-4.33-7.09-5.64c-1.87-0.85-3.87-1.37-5.92-1.52c-0.74-0.09-1.48-0.09-2.22,0
		c0.72,0.18,1.45,0.28,2.19,0.3c1.97,0.29,3.87,0.89,5.66,1.76c2.63,1.34,4.93,3.25,6.72,5.6c2.21,2.88,4,6.05,5.32,9.43
		c1.35,3.38,2.42,6.86,3.21,10.42c0.6,2.91,1.06,5.86,1.35,8.82c0.24,2.46,0.43,4.47,0.59,6.08c0.03,0.74,0.13,1.48,0.3,2.21
		C1305.27,787.99,1305.29,787.25,1305.23,786.52z"/>
	<path class="st25" d="M1304.89,783.01c0.05-0.76,0.11-1.73,0.18-2.92c0.15-2.54,0.15-6.2,0.15-10.77
		c-0.06-9.09-0.73-21.66-2.25-35.45c-1.24-11.77-3.1-23.47-5.58-35.04c-0.49-2.24-0.99-4.23-1.43-5.98
		c-0.44-1.75-0.82-3.25-1.2-4.47l-0.85-2.81c-0.08-0.33-0.2-0.65-0.35-0.96c0.02,0.35,0.08,0.69,0.18,1.02
		c0.18,0.75,0.37,1.57,0.68,2.84c0.32,1.28,0.64,2.81,1.05,4.56c0.41,1.75,0.85,3.76,1.28,5.98c1.84,8.82,3.85,21.21,5.37,34.98
		c1.52,13.76,2.3,26.25,2.52,35.37c0.12,4.53,0.12,8.21,0.12,10.75v2.92c-0.05,0.34-0.05,0.68,0,1.02
		C1304.85,783.71,1304.89,783.36,1304.89,783.01z"/>
	<path class="st25" d="M1305.08,756.82c0.23-1.95,0.55-4.76,1.22-8.2s1.55-7.51,2.87-11.94c1.38-4.82,3.07-9.54,5.06-14.14
		c3.47-8.43,8.36-16.21,14.45-22.99c2.66-2.68,5.48-5.19,8.44-7.53c-0.9,0.49-1.77,1.04-2.59,1.66l-1.34,0.93
		c-0.52,0.36-0.99,0.81-1.52,1.26c-1.23,1-2.39,2.08-3.48,3.24c-6.3,6.73-11.32,14.55-14.81,23.09c-3.62,8.44-6.21,17.28-7.73,26.34
		c-0.46,2.74-0.77,5.5-0.94,8.27c-0.08,1.01-0.08,2.03,0,3.04C1304.9,758.85,1305.03,757.84,1305.08,756.82z"/>
</g>
<g id="freepik--Device--inject-108">
	<polygon class="st43" points="1536,556.28 1475.64,555.93 1450.64,488.92 1447.11,488.92 1472.33,559.37 1536,559.37 	"/>
</g>
<g id="freepik--Desk--inject-108">
	<polygon class="st25" points="1557.93,566.64 1555.3,788.91 1561.78,788.91 1564.14,568.26 	"/>
	<path class="st25" d="M1420.87,566.12l-4.94,223.29h6.08c0,0,6.71-219.08,5.84-223.29H1420.87z"/>
	<polygon class="st25" points="1353.41,570.53 1369.81,570.53 1359.18,788.64 1365.56,788.64 1376.19,570.53 1595.44,570.53 
		1609.99,788.54 1616.35,788.2 1601.81,570.53 1624.15,570.53 1624.15,559.37 1353.41,559.37 	"/>
</g>
<g id="freepik--Character--inject-108">
	<path class="st7" d="M1486.09,788.77c5.79,1.69,41.14-0.02,49.77-0.59l1.95-0.14l-0.35-24.48l-31.34,0.32v16.73
		C1506.12,780.61,1479.64,786.89,1486.09,788.77z"/>
	<path class="st20" d="M1537.78,787.59l-0.09-8.76c-2.64-0.15-5.24,0.69-7.3,2.36c-2.09,1.68-3.49,4.07-3.92,6.72L1537.78,787.59z"
		/>
	<path class="st20" d="M1496.1,788.15l41.73-0.81v0.7c-15.77,1.55-51.54,1.93-52.72,0.41c-1.19-1.52,8.12-4.32,8.12-4.32
		C1495.05,784.2,1496.1,788.15,1496.1,788.15z"/>
	<path class="st25" d="M1537.72,787.31h-1.52l-5.7,0.18c-4.81,0.15-11.47,0.43-18.8,0.43s-13.99,0-18.8,0h-5.7h-1.52
		c-0.18-0.02-0.36-0.02-0.53,0h0.53l1.52,0.08l5.7,0.17c4.81,0.11,11.47,0.2,18.81,0.11c7.35-0.09,13.99-0.3,18.8-0.53l5.69-0.3
		L1537.72,787.31l0.53,0L1537.72,787.31z"/>
	<path class="st25" d="M1496.04,788.62c0.1-2.1-1.11-4.03-3.04-4.87c0.74,0.64,1.4,1.36,1.96,2.16c0.47,0.86,0.84,1.77,1.09,2.71
		H1496.04z"/>
	<path class="st25" d="M1504.57,782.45c-0.47-0.71-0.91-1.26-1-1.2s0.23,0.68,0.68,1.4c0.46,0.71,0.91,1.2,1,1.2
		C1505.13,783.34,1504.9,782.86,1504.57,782.45z"/>
	<path class="st25" d="M1506.91,781.52c-0.55-0.47-1.03-0.79-1.11-0.71s0.3,0.52,0.85,1c0.55,0.49,1.05,0.81,1.13,0.73
		C1507.84,782.4,1507.46,781.99,1506.91,781.52z"/>
	<path class="st25" d="M1507.7,779.34c-0.55-0.05-1.11,0.03-1.63,0.23c0.53,0.17,1.09,0.22,1.64,0.15c0.55,0.05,1.11-0.03,1.63-0.23
		C1508.81,779.33,1508.25,779.27,1507.7,779.34z"/>
	<path class="st25" d="M1506.17,777.73c1.23,0.41,2.57,0.3,3.71-0.32C1508.64,777.53,1507.4,777.64,1506.17,777.73z"/>
	<path class="st25" d="M1502.12,780.87c-0.71-0.12-1.4-0.29-2.08-0.52c-0.39-0.12-0.78-0.28-1.14-0.47
		c-0.35-0.21-0.49-0.58-0.17-0.82c0.74-0.38,1.61-0.45,2.4-0.2c0.67,0.19,1.28,0.58,1.73,1.11c0.41,0.51,0.73,1.08,0.93,1.7
		c0,0,0-0.2,0-0.55c-0.13-0.49-0.36-0.95-0.68-1.34c-1.08-1.38-2.99-1.81-4.56-1.03c-0.25,0.2-0.36,0.51-0.29,0.82
		c0.08,0.26,0.26,0.48,0.5,0.61c0.39,0.21,0.8,0.38,1.23,0.5c0.7,0.22,1.42,0.36,2.14,0.44c0.67,0.12,1.35,0.12,2.02,0
		C1504.16,781.02,1503.38,781.02,1502.12,780.87z"/>
	<path class="st25" d="M1503.7,779.82c0.09-0.47,0.28-0.91,0.55-1.31c0.3-0.41,0.87-0.94,1.32-0.87c0.46,0.08,0.27,0.85,0,1.28
		c-0.23,0.43-0.5,0.84-0.82,1.22c-0.55,0.64-0.94,1-0.94,1c0.44-0.17,0.84-0.45,1.14-0.82c0.36-0.38,0.67-0.79,0.94-1.23
		c0.17-0.27,0.28-0.58,0.32-0.9c0.08-0.43-0.2-0.84-0.62-0.93c-0.7,0.04-1.33,0.43-1.67,1.05c-0.29,0.46-0.48,0.98-0.53,1.52
		c-0.09,0.48,0,0.98,0.26,1.4C1503.61,780.76,1503.63,780.28,1503.7,779.82z"/>
	<path class="st25" d="M1536.99,778.64c-0.58-0.06-1.16-0.06-1.73,0c-3.92,0.33-7.24,3.04-8.36,6.81c-0.16,0.56-0.27,1.13-0.32,1.7
		c0,0.4-0.06,0.61,0,0.62s0.11-0.9,0.56-2.24c0.58-1.77,1.63-3.35,3.04-4.56c1.45-1.16,3.19-1.89,5.03-2.13
		c1.41-0.18,2.31-0.11,2.31-0.11C1537.36,778.68,1537.17,778.65,1536.99,778.64z"/>
	<path class="st25" d="M1534.1,772.24c-0.02,2.15,0.09,4.3,0.33,6.43c0.16-4.29,0.06-8.59-0.3-12.87
		C1534,767.95,1533.99,770.1,1534.1,772.24z"/>
	<path class="st25" d="M1517.92,785.08c-2.51,0-4.56-0.11-4.56,0c1.5,0.31,3.03,0.42,4.56,0.32c1.54,0.04,3.07-0.13,4.56-0.5
		C1522.47,784.79,1520.43,785.08,1517.92,785.08z"/>
	<path class="st25" d="M1527.91,785.58c-0.24,0.53-0.18,1.03-0.08,1.03s0.23-0.41,0.43-0.88c0.2-0.47,0.36-0.84,0.36-0.91
		C1528.55,784.74,1528.16,785.05,1527.91,785.58z"/>
	<path class="st25" d="M1530.19,782.39c-0.32,0.33-0.52,0.65-0.44,0.73c0.08,0.08,0.4-0.14,0.71-0.47c0.32-0.33,0.44-0.65,0.44-0.73
		C1530.83,781.84,1530.51,782.05,1530.19,782.39z"/>
	<path class="st25" d="M1533.19,780.48c-0.58,0.2-0.82,0.62-0.75,0.7c0.08,0.08,0.41-0.18,0.87-0.35c0.46-0.17,0.9-0.17,0.9-0.27
		C1534.24,780.47,1533.77,780.29,1533.19,780.48z"/>
	<path class="st25" d="M1536,779.92c-0.26,0.11-0.43,0.26-0.4,0.36c0.03,0.11,0.27,0.11,0.53,0c0.26-0.11,0.4-0.27,0.4-0.36
		C1536.54,779.82,1536.26,779.82,1536,779.92z"/>
	<path class="st7" d="M1422.87,762.89c4.56,3.92,37.5,16.9,45.62,19.94l1.82,0.67l9.75-22.45l-28.7-12.61l-6.87,15.28
		C1444.5,763.73,1417.72,758.51,1422.87,762.89z"/>
	<path class="st20" d="M1470.41,783.02l3.51-8.01c-2.34-1.22-5.05-1.53-7.6-0.87c-2.61,0.68-4.88,2.31-6.36,4.56L1470.41,783.02z"/>
	<path class="st20" d="M1432.2,766.39l38.35,16.44l-0.23,0.65c-15.01-5.05-47.72-19.4-48.22-21.29s9.12-0.59,9.12-0.59
		C1432.87,762.4,1432.2,766.39,1432.2,766.39z"/>
	<path class="st25" d="M1470.41,782.78l-1.43-0.59l-5.26-2.17c-4.44-1.84-10.58-4.43-17.31-7.36c-6.72-2.94-12.77-5.7-17.14-7.71
		l-5.17-2.4l-1.41-0.64l-0.5-0.2c0.15,0.1,0.3,0.19,0.47,0.26l1.38,0.71l5.12,2.49c4.33,2.1,10.39,4.88,17.09,7.83
		c6.71,2.95,12.88,5.47,17.35,7.25l5.32,2.07l1.52,0.53l0.52,0.17L1470.41,782.78z"/>
	<path class="st25" d="M1432.45,763.88c-0.08-1.03-0.53-2-1.28-2.72c0.4,0.89,0.7,1.83,0.9,2.78c0.08,0.97,0.04,1.96-0.12,2.92
		C1432.48,765.96,1432.66,764.9,1432.45,763.88z"/>
	<path class="st25" d="M1442.25,764.74c-0.14-0.87-0.27-1.52-0.43-1.52s-0.14,0.65,0,1.52c0.14,0.87,0.32,1.52,0.43,1.52
		C1442.37,765.77,1442.37,765.24,1442.25,764.74z"/>
	<path class="st25" d="M1444.8,764.79c-0.3-0.67-0.62-1.17-0.71-1.13c-0.09,0.05,0.06,0.62,0.36,1.28c0.3,0.65,0.62,1.13,0.71,1.13
		C1445.29,766.02,1445.11,765.46,1444.8,764.79z"/>
	<path class="st25" d="M1446.4,763.18c-0.78-0.35-1.43-0.55-1.52-0.46c-0.09,0.09,0.59,0.46,1.43,0.81
		c0.47,0.26,0.99,0.42,1.52,0.47C1447.88,763.89,1447.18,763.53,1446.4,763.18z"/>
	<path class="st25" d="M1447.42,761.7c-0.56-0.26-1.15-0.47-1.75-0.62c0.43,0.48,0.99,0.82,1.61,0.97c0.59,0.27,1.25,0.36,1.89,0.26
		C1448.61,762.05,1448.02,761.85,1447.42,761.7z"/>
	<path class="st25" d="M1440.74,762.3c-0.59-0.4-1.16-0.84-1.69-1.32c-0.31-0.27-0.59-0.57-0.84-0.9c-0.24-0.35-0.21-0.75,0.18-0.82
		c0.83-0.04,1.65,0.25,2.27,0.81c0.53,0.45,0.93,1.05,1.13,1.72c0.16,0.64,0.21,1.29,0.15,1.95c0.09-0.16,0.15-0.35,0.17-0.53
		c0.04-0.25,0.06-0.5,0.05-0.75c-0.09-2.05-1.81-3.64-3.86-3.55c-0.3,0.06-0.54,0.3-0.59,0.61c-0.03,0.27,0.04,0.55,0.2,0.78
		c0.27,0.35,0.58,0.67,0.93,0.96c0.55,0.48,1.14,0.92,1.76,1.29c0.56,0.37,1.19,0.65,1.84,0.82
		C1442.46,763.29,1441.76,762.98,1440.74,762.3z"/>
	<path class="st25" d="M1442.52,761.99c0.27-0.4,0.63-0.73,1.05-0.97c0.44-0.31,1-0.39,1.52-0.24c0.43,0.29-0.05,0.91-0.47,1.19
		c-0.39,0.3-0.81,0.56-1.26,0.76c-0.76,0.37-1.28,0.53-1.28,0.53c0.48,0.03,0.95-0.07,1.38-0.27c0.48-0.19,0.94-0.44,1.37-0.75
		c0.27-0.17,0.5-0.41,0.67-0.68c0.25-0.36,0.16-0.85-0.2-1.09c-0.65-0.25-1.38-0.16-1.95,0.26c-0.45,0.29-0.82,0.68-1.09,1.14
		c-0.27,0.4-0.4,0.89-0.35,1.37C1442.08,762.8,1442.29,762.39,1442.52,761.99z"/>
	<path class="st25" d="M1473.27,774.54c-0.48-0.3-0.99-0.55-1.52-0.75c-1.82-0.63-3.78-0.71-5.64-0.23
		c-1.86,0.51-3.52,1.57-4.78,3.04c-0.38,0.43-0.71,0.9-0.99,1.4c-0.11,0.18-0.2,0.37-0.26,0.58c0.06,0.05,0.47-0.76,1.44-1.81
		c2.58-2.78,6.53-3.83,10.14-2.69c1.37,0.41,2.14,0.85,2.14,0.85C1473.83,774.93,1473.67,774.75,1473.27,774.54z"/>
	<path class="st25" d="M1473.41,767.59c-0.9,1.95-1.68,3.96-2.34,6.01c1-1.9,1.9-3.86,2.69-5.85c0.9-1.98,1.68-4.01,2.33-6.08
		C1475.08,763.58,1474.19,765.56,1473.41,767.59z"/>
	<path class="st25" d="M1453.37,772.55c-2.33-0.99-4.2-1.92-4.2-1.82c1.24,0.91,2.6,1.64,4.05,2.17c1.39,0.66,2.87,1.14,4.38,1.43
		C1457.62,774.22,1455.69,773.54,1453.37,772.55z"/>
	<path class="st25" d="M1462.25,777.17c-0.49,0.4-0.58,0.85-0.49,0.91c0.09,0.06,0.36-0.27,0.75-0.62c0.38-0.35,0.71-0.58,0.71-0.68
		C1463.19,776.68,1462.73,776.77,1462.25,777.17z"/>
	<path class="st25" d="M1465.64,775.21c-0.43,0.17-0.75,0.4-0.7,0.49s0.43,0.03,0.85-0.14c0.43-0.17,0.7-0.38,0.7-0.49
		C1466.46,774.93,1466.06,775.04,1465.64,775.21z"/>
	<path class="st25" d="M1469.15,774.75c-0.59-0.06-1,0.33-0.96,0.33c0.05,0,0.44-0.03,0.93,0c0.49,0.03,0.93,0.2,0.93,0.11
		C1470.12,775.12,1469.74,774.81,1469.15,774.75z"/>
	<path class="st25" d="M1471.96,775.36c-0.27-0.02-0.52,0.06-0.52,0.17s0.23,0.2,0.5,0.21c0.27,0.02,0.52-0.06,0.52-0.17
		S1472.24,775.38,1471.96,775.36z"/>
	<path class="st7" d="M1666.67,648.88l13.29-160.09c0.41-5.03,4.39-9.02,9.41-9.44l54.55-4.56c0.49-0.04,0.99-0.02,1.48,0.04
		c3.9,0.52,6.64,4.11,6.12,8.02l-22.63,169.09L1666.67,648.88z"/>
	<g class="st32">
		<path d="M1666.67,648.88l13.29-160.09c0.41-5.03,4.39-9.02,9.41-9.44l54.55-4.56c0.49-0.04,0.99-0.02,1.48,0.04
			c3.9,0.52,6.64,4.11,6.12,8.02l-22.63,169.09L1666.67,648.88z"/>
	</g>
	<path class="st25" d="M1631.84,389.24c0.79-5.41,1.43-11.48-1.86-15.85c-0.81-1.05-1.81-1.95-2.59-3.04
		c-0.86-1.05-1.25-2.41-1.05-3.76c0,0,0,0,0,0c0.27-1.37,1.6-2.26,2.96-1.99c-1.06-0.69-2-1.57-2.75-2.59
		c-0.75-1.05-0.89-2.41-0.36-3.59c0.63-0.92,1.57-1.6,2.65-1.9c2.65-0.88,5.39-1.47,8.17-1.75c-0.06,0-0.11,0-0.17,0
		c-1.3-0.06-2.31-1.16-2.25-2.46c0.14-1.33,0.96-2.48,2.17-3.04c1.2-0.53,2.5-0.83,3.82-0.87c7.28-0.83,14.66,0.01,21.56,2.46
		c6.95,2.51,12.6,7.69,15.72,14.39c2.52,5.95,2.34,12.67,1.44,19.06s-2.59,12.67-3.04,19.12"/>
	<path class="st24" d="M1676.35,371.48l-1.98-1.34c-13.31-8.99-30.44-10.08-44.77-2.84l0,0c0,0-0.4,29.35,0.55,42.06
		c0.94,12.71,13.79,13.9,13.79,13.9s0.59,13.84,1,17.4l30.73,0.55L1676.35,371.48z"/>
	<path class="st44" d="M1644.08,426.38c12.76,0.36,16.12-9.03,16.12-9.03c-4.74,3.49-10.42,5.49-16.3,5.73L1644.08,426.38z"/>
	<path class="st25" d="M1679.78,373.59c0-5.06-1-10.8-17.73-16.56c-8.52-2.94-24.07-1.72-30.29,1.87c-6.22,3.59-3.18,6.86-3.18,6.86
		s-1.66,7.44,22.57,3.35c7.35-1.16,9.6-4.91,14.78-3.04c4.93,1.75,4.12,9.35,4.12,9.35s-0.49,20.04-0.11,20.21
		c0.38,0.17,6.17,1.93,6.17,1.93l0.65-16.5C1676.77,381.06,1679.78,380.81,1679.78,373.59z"/>
	<path class="st24" d="M1670.99,398.36c0,0.29,10.63,4.73,11.5-6.08c0.87-10.81-8.29-9.63-8.56-9.52
		C1673.92,382.76,1670.99,398.07,1670.99,398.36z"/>
	<path class="st44" d="M1675,395.31c0.47,0.39,1.1,0.55,1.7,0.43c1.52-0.33,2.8-2.28,3.04-4.46c0.11-1.03-0.03-2.08-0.41-3.04
		c-0.25-0.89-0.95-1.58-1.84-1.82c-0.37-0.07-0.74-0.01-1.06,0.18c-0.23,0.16-0.4,0.39-0.47,0.65c-0.12,0.43,0.03,0.65,0.09,0.64
		s0-0.24,0.17-0.53c0.23-0.4,0.72-0.58,1.16-0.43c0.66,0.27,1.14,0.83,1.31,1.52c0.31,0.88,0.41,1.82,0.3,2.75
		c-0.02,1.69-0.98,3.23-2.48,4c-0.47,0.14-0.98,0.09-1.41-0.14c-0.3-0.17-0.49-0.32-0.49-0.32
		C1674.58,394.82,1674.61,395.08,1675,395.31z"/>
	<path class="st24" d="M1552.08,548.29l-5.73-1.44l-24.33,9.23c0,0-4.88,0-7.25,0c-0.79,0,14.87-24.56,20.13-26.86
		c3.04-1.38,18.25-0.65,18.25-0.65L1552.08,548.29z"/>
	<path class="st25" d="M1510.52,661.61l-27.59,113.97c0,0-40.89-20.44-40.79-19.66c0.11,0.78,45.61-156.82,45.61-156.82
		L1510.52,661.61z"/>
	<polygon class="st43" points="1486.03,770.8 1442.6,749.74 1440.73,755.5 1483.83,776.53 	"/>
	<path class="st43" d="M1489.76,716.13c0.38-1.28,0.85-2.25,1.08-2.19c0.23,0.06,0.11,1.17-0.27,2.43
		c-0.38,1.26-0.85,2.19-1.08,2.19C1489.27,718.48,1489.38,717.4,1489.76,716.13z"/>
	<path class="st43" d="M1486.99,725.36c0.4-1.26,0.9-2.25,1.11-2.17c0.21,0.08,0.06,1.17-0.32,2.43c-0.38,1.26-0.88,2.17-1.11,2.17
		C1486.46,727.68,1486.59,726.62,1486.99,725.36z"/>
	<path class="st43" d="M1484.08,734.5c0.41-1.26,0.93-2.24,1.14-2.16c0.21,0.08,0.06,1.16-0.35,2.42c-0.41,1.26-0.91,2.24-1.14,2.16
		C1483.52,736.92,1483.67,735.76,1484.08,734.5z"/>
	<path class="st43" d="M1481.04,743.62c0.43-1.26,0.94-2.22,1.17-2.14c0.23,0.08,0.05,1.16-0.38,2.42
		c-0.43,1.26-0.94,2.22-1.17,2.14C1480.45,746.04,1480.62,744.88,1481.04,743.62z"/>
	<path class="st43" d="M1477.88,752.76c0.46-1.26,0.97-2.21,1.2-2.13c0.23,0.08,0.03,1.16-0.41,2.4c-0.44,1.25-0.99,2.13-1.2,2.13
		C1477.23,755.04,1477.42,754.02,1477.88,752.76z"/>
	<path class="st43" d="M1474.64,761.75c0.46-1.25,1.02-2.19,1.23-2.11c0.21,0.08,0,1.16-0.46,2.4c-0.46,1.25-1,2.11-1.23,2.11
		C1473.93,764.08,1474.18,763,1474.64,761.75z"/>
	<path class="st43" d="M1477.26,766.16l1.86-4.76c1.55-4.03,3.54-9.66,5.63-15.91l5.34-16.01c0.7-2.05,1.28-3.7,1.7-4.84
		c0.19-0.6,0.43-1.18,0.73-1.73c-0.06,0.63-0.21,1.25-0.43,1.84c-0.46,1.32-0.94,2.97-1.52,4.91c-1.25,4.14-3.01,9.85-5.11,16.1
		c-2.1,6.25-4.18,11.86-5.87,15.85c-0.84,1.99-1.57,3.59-2.1,4.68c-0.23,0.59-0.54,1.14-0.91,1.64
		C1476.74,767.32,1476.97,766.73,1477.26,766.16z"/>
	<path class="st25" d="M1640.13,575.21c0,0-112.73,1.08-130.86,4.47c-28.97,5.4-23.65,47.74-23.65,47.74l10.43,146.15h49.96
		l-9.96-137.37c0,0,85.07,0.62,126.71-0.81c41.64-1.43,36.89-55.6,37.27-47.25L1640.13,575.21z"/>
	<polygon class="st43" points="1547.15,765.75 1494.55,765.67 1494.55,773.85 1547.15,773.85 	"/>
	<path class="st43" d="M1628.85,629.02h-1.52l-6.08-0.12l-22.58-0.62l-76.19-2.33l0.43-0.47c0.7,5.63,1.28,11.48,1.76,17.56
		c0.65,8.58,1.2,16.97,1.92,25.05c0.71,8.08,1.51,15.86,2.24,23.28c1.49,14.84,2.87,28.24,3.95,39.43
		c1.08,11.19,1.99,20.27,2.6,26.58c0.29,3.1,0.52,5.54,0.67,7.24c0.06,0.79,0.15,1.41,0.15,1.89c0.02,0.21,0.02,0.43,0,0.64
		c-0.05-0.21-0.09-0.42-0.11-0.64c-0.06-0.46-0.14-1.08-0.23-1.87c-0.2-1.69-0.47-4.18-0.82-7.22c-0.68-6.31-1.67-15.31-2.86-26.55
		c-1.19-11.24-2.62-24.59-4.14-39.4c-0.78-7.42-1.67-15.21-2.3-23.3s-1.26-16.47-1.93-25.06c-0.49-6.01-1.06-11.92-1.75-17.52v-0.49
		h0.49l76.18,2.62l22.58,0.87l6.08,0.27l1.52,0.09c0.18-0.02,0.36-0.02,0.53,0C1629.25,629,1629.05,629.02,1628.85,629.02z"/>
	<path class="st43" d="M1627.05,622.63c1.32,0.03,2.39,0.26,2.39,0.49s-1.06,0.38-2.4,0.35s-2.4-0.24-2.4-0.47
		S1625.73,622.6,1627.05,622.63z"/>
	<path class="st43" d="M1617.43,622.4c1.32,0.05,2.42,0.26,2.4,0.49c-0.02,0.23-1.08,0.38-2.42,0.35c-1.34-0.03-2.4-0.24-2.4-0.47
		C1615.01,622.54,1616.1,622.36,1617.43,622.4z"/>
	<path class="st43" d="M1607.8,622.19c1.32,0.03,2.42,0.24,2.4,0.47c-0.02,0.23-1.08,0.41-2.42,0.36c-1.34-0.05-2.4-0.24-2.4-0.49
		C1605.38,622.31,1606.48,622.16,1607.8,622.19z"/>
	<path class="st43" d="M1598.17,621.96c1.32,0.03,2.42,0.24,2.4,0.47c-0.02,0.23-1.08,0.4-2.42,0.36c-1.34-0.03-2.4-0.24-2.4-0.49
		C1595.75,622.08,1596.85,621.93,1598.17,621.96z"/>
	<path class="st43" d="M1588.55,621.73c1.32,0.03,2.42,0.24,2.4,0.47c-0.02,0.23-1.08,0.4-2.42,0.36s-2.4-0.24-2.4-0.47
		C1586.13,621.85,1587.22,621.7,1588.55,621.73z"/>
	<path class="st43" d="M1578.92,621.5c1.32,0.03,2.42,0.24,2.4,0.47c-0.02,0.23-1.08,0.4-2.42,0.36s-2.4-0.24-2.4-0.47
		C1576.52,621.64,1577.6,621.47,1578.92,621.5z"/>
	<path class="st43" d="M1569.29,621.28c1.34,0.03,2.42,0.24,2.4,0.47c-0.02,0.23-1.08,0.4-2.42,0.36c-1.34-0.03-2.4-0.24-2.4-0.47
		C1566.95,621.41,1567.95,621.25,1569.29,621.28z"/>
	<path class="st43" d="M1559.67,621.05c1.34,0.03,2.42,0.23,2.4,0.47s-1.08,0.4-2.42,0.36s-2.4-0.24-2.4-0.47
		C1557.26,621.18,1558.33,621.02,1559.67,621.05z"/>
	<path class="st43" d="M1550.04,620.82c1.34,0.03,2.42,0.26,2.4,0.49c-0.02,0.23-1.08,0.38-2.42,0.35c-1.34-0.03-2.4-0.24-2.4-0.47
		C1547.64,620.96,1548.7,620.79,1550.04,620.82z"/>
	<path class="st43" d="M1540.47,620.59c1.34,0.03,2.42,0.26,2.4,0.49c-0.02,0.23-1.09,0.38-2.42,0.35c-1.32-0.03-2.4-0.24-2.4-0.47
		C1538.06,620.73,1539.14,620.56,1540.47,620.59z"/>
	<path class="st43" d="M1530.79,620.38c1.34,0.03,2.42,0.24,2.4,0.47c-0.02,0.23-1.09,0.38-2.42,0.35c-1.32-0.03-2.4-0.24-2.4-0.47
		C1528.38,620.5,1529.45,620.35,1530.79,620.38z"/>
	<path class="st43" d="M1521.16,620.15c1.34,0.03,2.4,0.24,2.4,0.47c0,0.23-1.09,0.4-2.42,0.36c-1.32-0.03-2.4-0.24-2.4-0.49
		C1518.76,620.27,1519.82,620.12,1521.16,620.15z"/>
	<path class="st43" d="M1518.12,626.87c-0.14-1.32-0.05-2.42,0.18-2.43c0.23-0.02,0.5,1.03,0.64,2.36c0.14,1.32,0.06,2.43-0.18,2.43
		C1518.53,629.26,1518.26,628.2,1518.12,626.87z"/>
	<path class="st43" d="M1519.05,636.45c-0.12-1.32-0.05-2.42,0.18-2.43c0.23-0.02,0.52,1.03,0.65,2.36
		c0.14,1.32,0.05,2.43-0.18,2.43C1519.47,638.84,1519.17,637.78,1519.05,636.45z"/>
	<path class="st43" d="M1519.99,646.05c-0.12-1.32-0.05-2.43,0.18-2.45c0.23-0.02,0.52,1.03,0.65,2.36
		c0.14,1.32,0.05,2.43-0.18,2.43C1520.42,648.42,1520.11,647.37,1519.99,646.05z"/>
	<path class="st43" d="M1520.93,655.63c-0.12-1.32-0.05-2.43,0.18-2.45c0.23-0.02,0.53,1.03,0.65,2.36
		c0.12,1.32,0.05,2.43-0.18,2.43C1521.33,658,1521.05,656.95,1520.93,655.63z"/>
	<path class="st43" d="M1521.88,665.21c-0.14-1.32-0.05-2.4,0.18-2.43c0.23-0.03,0.53,1.02,0.65,2.34c0.12,1.32,0.05,2.45-0.18,2.45
		C1522.3,667.58,1522.01,666.53,1521.88,665.21z"/>
	<path class="st43" d="M1522.82,674.79c-0.14-1.32-0.05-2.4,0.18-2.43c0.23-0.03,0.5,1.02,0.64,2.34s0.06,2.45-0.17,2.45
		C1523.23,677.16,1522.96,676.11,1522.82,674.79z"/>
	<path class="st43" d="M1523.73,684.37c-0.14-1.32-0.08-2.4,0.17-2.43c0.24-0.03,0.52,1.03,0.65,2.36s0.06,2.43-0.18,2.43
		C1524.17,686.73,1523.87,685.7,1523.73,684.37z"/>
	<path class="st43" d="M1524.69,693.95c-0.12-1.32-0.05-2.4,0.18-2.43c0.23-0.03,0.52,1.03,0.65,2.36s0.05,2.43-0.18,2.43
		C1525.11,696.33,1524.81,695.28,1524.69,693.95z"/>
	<path class="st43" d="M1525.63,703.53c-0.12-1.32-0.05-2.42,0.18-2.43c0.23-0.02,0.53,1.03,0.65,2.36s0.05,2.43-0.18,2.43
		C1526.06,705.92,1525.75,704.86,1525.63,703.53z"/>
	<path class="st43" d="M1526.57,713.12c-0.12-1.32-0.05-2.42,0.18-2.43c0.23-0.02,0.53,1.03,0.65,2.36
		c0.12,1.32,0.05,2.43-0.18,2.43C1527,715.5,1526.7,714.44,1526.57,713.12z"/>
	<path class="st43" d="M1527.52,722.7c-0.14-1.32-0.05-2.42,0.18-2.43c0.23-0.02,0.53,1.03,0.65,2.36s0.05,2.43-0.18,2.43
		C1527.94,725.08,1527.65,724.02,1527.52,722.7z"/>
	<path class="st43" d="M1528.46,732.29c-0.14-1.32-0.05-2.43,0.18-2.45c0.23-0.02,0.5,1.03,0.64,2.36c0.14,1.32,0.06,2.43-0.18,2.43
		C1528.93,734.66,1528.6,733.61,1528.46,732.29z"/>
	<path class="st43" d="M1529.4,741.87c-0.14-1.32-0.08-2.43,0.17-2.45c0.24-0.02,0.52,1.03,0.65,2.36c0.14,1.32,0.05,2.43-0.18,2.43
		C1529.81,744.25,1529.54,743.2,1529.4,741.87z"/>
	<path class="st43" d="M1530.33,751.45c-0.12-1.32-0.05-2.4,0.18-2.43c0.23-0.03,0.52,1.02,0.65,2.34c0.14,1.32,0.05,2.45-0.18,2.45
		C1530.76,753.83,1530.45,752.78,1530.33,751.45z"/>
	<path class="st43" d="M1531.32,761.03c-0.12-1.32-0.05-2.4,0.18-2.43c0.23-0.03,0.53,1.03,0.65,2.36c0.12,1.32,0.05,2.43-0.18,2.43
		C1531.7,763.41,1531.44,762.36,1531.32,761.03z"/>
	<path class="st43" d="M1531.99,768.36c0-0.08,0.18-0.15,0.41-0.18c0.23-0.03,0.41,0.03,0.43,0.11c0.02,0.08-0.17,0.18-0.4,0.18
		C1532.2,768.49,1531.99,768.44,1531.99,768.36z"/>
	<path class="st25" d="M1536.35,636.32c-1.44-0.76-2.74-1.76-3.85-2.95c-1.29-0.99-2.4-2.2-3.27-3.57
		C1531.96,631.54,1534.37,633.75,1536.35,636.32z"/>
	<path class="st25" d="M1531.5,633.75c1.91,0.71,3.72,1.68,5.37,2.87c-1.99-0.44-3.92-1.14-5.72-2.1c-1.91-0.71-3.72-1.68-5.37-2.87
		C1527.78,632.09,1529.7,632.79,1531.5,633.75z"/>
	<path class="st43" d="M1627.37,522.64c-2.59,0.27-81.8-0.2-81.8-0.2l-1.52,30.51c0,0,53.01,5.93,85.25,6.54l-3.48,16.85
		l73.86,17.22c7.85-8.18,0.24-34.32,0.24-34.32c-6.52-55.74-0.44-85.82-12.61-111.58c-2.5-4.88-6.58-8.76-11.57-11.01l0.52-7.35
		l-33.85,4.11l-2.69,9.41l1.79,1.35C1632.47,468.06,1627.37,522.64,1627.37,522.64"/>
	<path class="st22" d="M1640.81,439.64c-0.29,0.77-0.53,1.55-0.7,2.36c-0.02,0.57,0.31,1.1,0.84,1.34c0.96,0.46,1.75,0.47,1.75,0.59
		c0,0.12-0.73,0.4-2.01,0c-0.35-0.13-0.67-0.35-0.91-0.64c-0.3-0.35-0.45-0.8-0.43-1.26c0.11-0.89,0.34-1.76,0.67-2.59
		c0.55-2.12,1.37-4.17,2.45-6.08C1642.18,435.51,1641.63,437.62,1640.81,439.64z"/>
	<path class="st25" d="M1630.52,525.42c-1.28-1.22-2.49-2.53-3.6-3.91c3.21,1.74,5.71,4.54,7.09,7.92
		C1632.76,528.17,1631.6,526.83,1630.52,525.42z"/>
	<path class="st25" d="M1628.51,525.51c-0.82-2.28-2.1-3.83-1.92-4c2.51,1.96,3.69,5.17,3.04,8.29
		C1629.3,529.8,1629.33,527.79,1628.51,525.51z"/>
	<path class="st25" d="M1552.64,538.12c0.29-4.9,0.88-9.77,1.75-14.6c-0.03,4.9-0.33,9.8-0.91,14.68c-0.3,4.89-0.88,9.76-1.73,14.58
		C1551.76,547.88,1552.06,542.99,1552.64,538.12z"/>
	<path class="st25" d="M1551.83,530.43c0.16,0.61,0.02,1.26-0.38,1.75c-0.57,0.59-1.45,0.74-2.19,0.4c-0.75-0.3-1.23-1.05-1.19-1.86
		c0.06-0.64,0.43-1.22,1-1.52c0.96-0.55,1.55-0.12,1.52,0s-0.59-0.03-1.19,0.44c-0.32,0.26-0.52,0.63-0.56,1.03
		c0.02,0.47,0.32,0.88,0.76,1.05c0.42,0.21,0.93,0.15,1.28-0.17c0.27-0.3,0.41-0.7,0.38-1.11c-0.06-0.76-0.49-1.06-0.49-1.17
		C1550.77,529.16,1551.56,529.32,1551.83,530.43z"/>
	<path class="st25" d="M1627.05,522.56l-1.11,0.14c-0.99,0.15-2.46,0.27-4.38,0.38c-3.83,0.23-9.46,0.36-16.62,0.36
		c-14.33,0.03-34.78-0.4-59.31-1.29l0.38-0.35c-0.52,9.49-1,19.83-1.52,30.7l-0.3-0.41c3.73,0.7,7.74,1,11.74,1.41l12.29,1.05
		l25.67,1.93l32.13,2.19l0,0c9.16-0.59,18.11-3.86,24.2-9.84c3.05-2.88,5.44-6.38,7.03-10.27c1.5-3.73,2.71-7.57,3.6-11.48
		c3.79-15.22,6.22-28.99,8.14-40.45c0.94-5.75,1.75-10.89,2.46-15.45c0.74-3.83,1.25-7.71,1.52-11.6c0.16-2.44-0.3-4.89-1.34-7.1
		c-0.41-0.74-0.88-1.44-1.41-2.1c0.62,0.58,1.14,1.26,1.52,2.02c1.12,2.22,1.64,4.69,1.52,7.18c-0.21,3.91-0.66,7.81-1.35,11.66
		c-0.65,4.53-1.43,9.72-2.34,15.47c-1.9,11.5-4.23,25.35-7.98,40.56c-0.89,3.95-2.09,7.83-3.6,11.59
		c-1.61,3.98-4.05,7.58-7.16,10.54c-6.33,6.14-15.37,9.49-24.7,10.08l0,0l-32.15-2.16c-8.74-0.62-17.34-1.26-25.69-1.95l-12.29-1.06
		c-4.03-0.41-7.97-0.71-11.86-1.44h-0.32v-0.35c0.52-10.92,1.03-21.21,1.52-30.69v-0.35h0.35c24.55,0.9,45,1.43,59.31,1.52
		c7.16,0.06,12.79-0.02,16.62-0.17c1.92-0.06,3.38-0.15,4.36-0.26l1.11-0.09h0.38C1627.33,522.53,1627.19,522.56,1627.05,522.56z"/>
	<path class="st25" d="M1627.93,520.02c0.4-1.72,0.91-3.95,1.52-6.66c1.37-5.76,2.97-13.38,4.91-21.97
		c1.95-8.59,3.8-16.35,5.32-21.91c0.75-2.8,1.35-5.06,1.82-6.58c0.2-0.82,0.46-1.61,0.79-2.39c-0.08,0.83-0.23,1.66-0.47,2.46
		l-1.52,6.65c-1.34,5.61-3.12,13.38-5.06,21.96c-1.95,8.58-3.7,16.35-5.22,21.93c-0.73,2.8-1.34,5.08-1.78,6.6
		c-0.19,0.82-0.46,1.62-0.79,2.39C1627.56,521.66,1627.72,520.83,1627.93,520.02z"/>
	<polygon class="st25" points="1655.57,647.57 1653.91,787.77 1658.35,788.8 1668.98,644.53 	"/>
	<polygon class="st25" points="1694.25,649.55 1740.47,788.64 1746.31,788.64 1714.02,649.55 	"/>
	<polygon class="st25" points="1614.87,649.55 1579.88,788.64 1584.59,788.64 1628.63,649.55 	"/>
	<polygon class="st25" points="1619.98,658.88 1721.43,726.91 1721.43,723.38 1622.73,658.88 	"/>
	<polygon class="st25" points="1703.35,655.74 1599.54,725.34 1599.54,730.85 1706.48,658.88 	"/>
	<path class="st7" d="M1730.86,635.4l-128.98-2.07c-4.17-0.07-7.72,3.03-8.2,7.18l0,0c-0.03,0.28-0.05,0.56-0.06,0.84
		c-0.08,4.49,3.49,8.2,7.98,8.29l127.17,2.3L1730.86,635.4z"/>
	<g class="st32">
		<path d="M1730.86,635.4l-128.98-2.07c-4.17-0.07-7.72,3.03-8.2,7.18l0,0c-0.03,0.28-0.05,0.56-0.06,0.84
			c-0.08,4.49,3.49,8.2,7.98,8.29l127.17,2.3L1730.86,635.4z"/>
	</g>
	<path class="st7" d="M1751.42,482.87c0.07-0.49,0.08-0.99,0.05-1.48c-0.29-3.94-3.71-6.9-7.65-6.61l-10.16,0.87l-10.07,104.19
		l-76.45-6.9c-0.59-0.05-1.18-0.08-1.77-0.07c-9.24,0.14-16.61,7.74-16.47,16.98l-0.26,59.71l100.26,2.39l12.84-98.3L1751.42,482.87
		z"/>
</g>
</svg>
