<?xml version="1.0" encoding="utf-8"?>
<!-- Generator: Adobe Illustrator 24.2.0, SVG Export Plug-In . SVG Version: 6.00 Build 0)  -->
<svg version="1.1" id="Capa_1" xmlns="http://www.w3.org/2000/svg" xmlns:xlink="http://www.w3.org/1999/xlink" x="0px" y="0px"
	 viewBox="0 0 304 77" style="enable-background:new 0 0 304 77;" xml:space="preserve">
<style type="text/css">
	.st0{enable-background:new    ;}
</style>
<g class="st0">
	<path d="M20.8,59.2c-8,0-14.2-6.5-14.2-14.8V17.8h4.5v16.6c2.3-2.9,5.9-4.8,9.7-4.8c7.8,0,14.1,6.3,14.1,14.7
		C35,52.8,28.6,59.2,20.8,59.2z M20.8,33.9c-5.2,0-9.5,4.7-9.5,10.5c0,5.9,4.4,10.6,9.5,10.6c5.2,0,9.5-4.6,9.5-10.6
		C30.3,38.5,26,33.9,20.8,33.9z"/>
	<path d="M79,58.5h-4.7V40.3c0-3.7-2.4-6.4-6.1-6.4c-3.7,0-6.1,2.7-6.1,6.4v18.2h-4.7V40.3c0-3.7-2.4-6.4-6.1-6.4
		c-3.7,0-6.1,2.7-6.1,6.4v18.2h-4.7V40.5c0-6.1,4.4-10.8,10.8-10.8c3.8,0,6.8,1.8,8.4,4.7c1.7-2.8,4.7-4.7,8.5-4.7
		c6.4,0,10.8,4.7,10.8,10.8V58.5z"/>
	<path d="M112.5,49.8c-2.2,6-6.9,9.4-13.4,9.4c-8.1,0-14.5-6.5-14.5-14.7c0-8.2,6.4-14.8,14.2-14.8c6.1,0,12.1,4.3,13.7,11.6
		l-21.6,9.1c1.8,2.8,4.9,4.4,8.2,4.4c4,0,6.8-1.8,8.6-5H112.5z M89.4,46.3l17.4-7.3c-1.8-3.1-4.9-5-8.1-5c-4.5,0-9.5,3.9-9.5,10.4
		C89.3,45.1,89.3,45.7,89.4,46.3z"/>
</g>
<g class="st0">
	<path d="M160,58.5h-2v-6.8c-2.3,4.4-6.8,7.4-12,7.4c-7.8,0-14.1-6.6-14.1-14.7c0-8.2,6.3-14.9,14.1-14.9c5.3,0,9.7,3.1,12,7.6V17.8
		h2V58.5z M146,31.7c-6.6,0-12,5.8-12,12.8c0,7,5.4,12.7,12,12.7c6.6,0,12-5.7,12-12.7C158,37.4,152.6,31.7,146,31.7z"/>
	<path d="M170.2,25.6h-2v-5h2V25.6z M170.2,58.5h-2V30.3h2V58.5z"/>
	<path d="M198.6,55.9c-2,2.1-5.4,3.3-9.3,3.3c-7.1,0-12.2-3.1-13.1-8.9h2c1,4.5,5,7,11,7c3.4,0,6.2-1.1,7.9-2.8c1-1,1.5-2.4,1.4-3.9
		c-0.1-3.5-2.9-5.2-9.8-6.2c-4.9-0.7-10.9-1.5-11-7.1c0-3.8,3.6-7.7,10.7-7.7c6.2,0,10.4,2.8,11.6,7.9h-2.1c-1.2-3.8-4.4-6-9.4-6
		c-5.1,0-8.7,2.5-8.7,5.8c0.1,3.2,3,4.3,9.3,5.1c5.9,0.9,11.3,2.4,11.6,8.1C200.6,52.5,200,54.5,198.6,55.9z"/>
	<path d="M205.9,44.4c0.1,7.3,5.5,12.8,12.4,12.8c6.6,0,9.6-3.7,11-7.4h2.1c-2,6.1-6.5,9.4-13.1,9.4c-8.1,0-14.4-6.5-14.4-14.7
		s6.3-14.9,14.1-14.9c8.4,0,14.2,7.7,14.1,14.8H205.9z M229.8,42.4c-1-6.1-6-10.7-11.9-10.7c-6,0-10.9,4.6-11.8,10.7H229.8z"/>
	<path d="M261.2,58.5h-2v-17c0-6.2-3.3-9.9-9.5-9.9c-5.7,0-10.1,4.2-10.1,9.9v17h-2V30.3h2v4.8c2-3.3,5.7-5.5,10.2-5.5
		c7.2,0,11.5,4.5,11.5,11.9V58.5z M252.5,25.8c-2.8,0-4.1-2.4-6.2-2.4c-0.8,0.1-1.7,0.7-2.2,2.1h-1.7c0.5-2.8,2.2-4.1,3.9-4.1
		c2.9,0,4.1,2.4,6.2,2.3c0.8,0,1.8-0.6,2.2-2.1h1.8C255.9,24.6,254.2,25.8,252.5,25.8z"/>
	<path d="M294.6,44.5c0,8.1-6.4,14.7-14.1,14.7c-7.7,0-14.1-6.6-14.1-14.7c0-8.2,6.4-14.9,14.1-14.9
		C288.2,29.6,294.6,36.3,294.6,44.5z M292.5,44.5c0-7.2-5.4-13-12-13c-6.6,0-12,5.8-12,13c0,7,5.4,12.8,12,12.8
		C287.1,57.3,292.5,51.5,292.5,44.5z"/>
</g>
</svg>
